<?xml version="1.0" encoding="utf-8"?>
<!-- Generator: Adobe Illustrator 25.4.1, SVG Export Plug-In . SVG Version: 6.00 Build 0)  -->
<svg version="1.1"
	 id="svg2" inkscape:version="0.48.0 r9654" sodipodi:docname="gen.svg" xmlns:cc="http://creativecommons.org/ns#" xmlns:dc="http://purl.org/dc/elements/1.1/" xmlns:inkscape="http://www.inkscape.org/namespaces/inkscape" xmlns:rdf="http://www.w3.org/1999/02/22-rdf-syntax-ns#" xmlns:sodipodi="http://sodipodi.sourceforge.net/DTD/sodipodi-0.dtd" xmlns:svg="http://www.w3.org/2000/svg"
	 xmlns="http://www.w3.org/2000/svg" xmlns:xlink="http://www.w3.org/1999/xlink" x="0px" y="0px" viewBox="0 0 471.8 278.5"
	 style="enable-background:new 0 0 471.8 278.5;" xml:space="preserve">
<style type="text/css">
	.st0{fill:#181818;stroke:#D6D6D6;stroke-width:0.1102;stroke-miterlimit:5.4259;}
	.st1{fill:none;stroke:#898989;stroke-width:0.1183;stroke-miterlimit:5.4259;}
	.st2{fill:#2894FF;}
	.st3{opacity:0.3957;fill:none;stroke:#777777;stroke-width:0.279;stroke-miterlimit:3.9967;enable-background:new    ;}
	.st4{fill:#848484;}
	.st5{fill:#FFFFFF;}
	.st6{fill:none;stroke:#333333;stroke-width:1.4732;stroke-linejoin:round;stroke-miterlimit:7.3661;}
	.st7{font-family:'ArialMT';}
	.st8{font-size:7.41px;}
	.st9{font-size:8.4433px;}
	.st10{fill:none;stroke:#FFFFFF;stroke-width:0.7366;stroke-linejoin:round;stroke-miterlimit:7.3661;}
	.st11{fill:none;}
	.st12{fill:#161616;stroke:#D6D6D6;stroke-width:0.3743;stroke-miterlimit:1.4969;}
	.st13{fill:#FF0000;stroke:#D6D6D6;stroke-width:0.2757;stroke-miterlimit:1.1026;}
  .st14{fill:#27272B;stroke:#D6D6D6;stroke-width:0.1102;stroke-miterlimit:5.4259;}
  .st15{fill:#121314;stroke:#D6D6D6;stroke-width:0.1102;stroke-miterlimit:5.4259;}
  .pressed{fill:#FFFFFF;}
</style>
<defs>
	
		<inkscape:perspective  id="perspective7046" inkscape:persp3d-origin="311.94308 : 93.94222 : 1" inkscape:vp_x="0 : 140.91333 : 1" inkscape:vp_y="0 : 1000 : 0" inkscape:vp_z="623.88617 : 140.91333 : 1" sodipodi:type="inkscape:persp3d">
		</inkscape:perspective>
</defs>
<sodipodi:namedview  bordercolor="#666666" borderopacity="1.0" fit-margin-bottom="0" fit-margin-left="0" fit-margin-right="0" fit-margin-top="0" id="base" inkscape:current-layer="layer1" inkscape:cx="700.01877" inkscape:cy="395.52857" inkscape:document-units="px" inkscape:object-nodes="false" inkscape:object-paths="false" inkscape:pageopacity="0.0" inkscape:pageshadow="2" inkscape:window-height="1058" inkscape:window-maximized="1" inkscape:window-width="1839" inkscape:window-x="1272" inkscape:window-y="-8" inkscape:zoom="0.7" pagecolor="#ffffff" showgrid="false">
	</sodipodi:namedview>
<g id="layer1" transform="translate(45.426517,-398.62207)" inkscape:groupmode="layer" inkscape:label="Layer 1">
	<g id="g7764" transform="matrix(0.73660529,0,0,0.73660529,28.02204,169.86362)">
		<path id="path2996" inkscape:connector-curvature="0" class="st0" d="M212.1,311.3c-115.9,0.5-240,51.3-278,93.8
			c-60.5,67.6-29.9,175,25.6,236.9c24.5,27.4,46.8,40.6,66.5,41.9c19.7,1.3,42.3-9.8,49-26.3c12.5-30.7,31-55.1,69.1-65.1
			c24.3-6.4,34.5-11.4,70.9-11.3c1.7,0,3.3,0,4.8,0c1.2,0,2.4,0,3.7,0c37.1,0.8,47.1,6.1,71.5,13.1c37.8,10.9,55.8,35.8,67.5,66.8
			c6.3,16.6,28.6,28.3,48.3,27.5s42.3-13.5,67.5-40.3c57.1-60.6,90.2-167.2,31.5-236.2c-38.1-44.8-167.7-100.8-286.8-100.8
			C219.5,311.4,215.8,311.3,212.1,311.3L212.1,311.3z"/>
		
			<path id="path3032" inkscape:original="M 609.84375 320.21875 C 607.2447 320.32059 604.63393 320.85268 602.15625 321.8125 L 576.8125 332.65625 L 573.40625 334.09375 L 542.875 347.8125 C 533.37477 352.57779 530.08033 362.98092 534 373.28125 C 537.75634 383.47314 550.44998 390.46698 561.0625 386.46875 L 587.84375 374.3125 L 620.53125 360.21875 C 630.62054 355.04018 634.14541 341.62313 628.9375 331.28125 C 625.32143 323.5134 617.6409 319.91322 609.84375 320.21875 z " inkscape:radius="0" sodipodi:type="inkscape:offset" class="st1" d="
			M376.1,376c-1.9,0.1-3.9,0.5-5.7,1.2l-18.8,8l-2.5,1.1l-22.6,10.1c-7,3.5-9.5,11.2-6.6,18.9c2.8,7.5,12.2,12.7,20,9.8l19.8-9
			l24.2-10.4c7.5-3.8,10.1-13.8,6.2-21.4C387.5,378.4,381.8,375.8,376.1,376z"/>
		<g inkscape:connector-curvature="0" sodipodi:nodetypes="ccsccccc">
			<path id="start" class="st2" d="M373.7,384.3L330,403.6c-4.5,2-4.8,8.1-2.7,11.1c2.2,3.1,6.6,4.2,9.8,3.2l42.4-19.8
				c3.2-1.7,5.7-5.4,3.8-10.3l-0.1-0.2C381.2,384.4,378.2,382.6,373.7,384.3L373.7,384.3z"/>
			<path class="st1" d="M373.7,384.3L330,403.6c-4.5,2-4.8,8.1-2.7,11.1c2.2,3.1,6.6,4.2,9.8,3.2l42.4-19.8
				c3.2-1.7,5.7-5.4,3.8-10.3l-0.1-0.2C381.2,384.4,378.2,382.6,373.7,384.3L373.7,384.3z"/>
		</g>
		
			<path id="path3821" sodipodi:cx="156.06857" sodipodi:cy="485.6666" sodipodi:rx="135.36044" sodipodi:ry="135.36044" sodipodi:type="arc" class="st15" d="
			M145.1,487c0,55.4-44.9,100.3-100.3,100.3S-55.5,542.3-55.5,487s44.9-100.3,100.3-100.3S145.1,431.6,145.1,487z"/>
		
			<path id="path3823" sodipodi:cx="156.06857" sodipodi:cy="485.6666" sodipodi:rx="135.36044" sodipodi:ry="135.36044" sodipodi:type="arc" class="st15" d="
			M123.6,487c0,43.5-35.3,78.8-78.8,78.8S-34,530.5-34,487s35.3-78.8,78.8-78.8S123.6,443.4,123.6,487z"/>
		
			<path id="path3825" sodipodi:cx="156.06857" sodipodi:cy="485.6666" sodipodi:rx="135.36044" sodipodi:ry="135.36044" sodipodi:type="arc" class="st14" d="
			M105.5,487c0,33.5-27.2,60.7-60.7,60.7s-60.7-27.2-60.7-60.7s27.2-60.7,60.7-60.7S105.5,453.5,105.5,487z"/>
		
			<path id="path3827" sodipodi:cx="156.06857" sodipodi:cy="485.6666" sodipodi:rx="135.36044" sodipodi:ry="135.36044" sodipodi:type="arc" class="st14" d="
			M57.8,485.9c0,6.7-5.5,12.2-12.2,12.2s-12.2-5.5-12.2-12.2s5.5-12.2,12.2-12.2C52.3,473.7,57.8,479.2,57.8,485.9z"/>
		<path id="path3834" inkscape:connector-curvature="0" sodipodi:nodetypes="cc" class="st1" d="M58,436c0,29.1,9.2,37.8,37.8,37.8"
			/>
		<path id="path3853" inkscape:connector-curvature="0" sodipodi:nodetypes="cc" class="st1" d="M95.8,500.1
			c-29.1,0-37.8,9.2-37.8,37.8"/>
		<path id="path3855" inkscape:connector-curvature="0" sodipodi:nodetypes="cc" class="st1" d="M31.6,538
			c0-29.1-9.2-37.8-37.8-37.8"/>
		<path id="path3857" inkscape:connector-curvature="0" sodipodi:nodetypes="cc" class="st1" d="M-6.2,473.9
			c29.1,0,37.8-9.2,37.8-37.8"/>
		<path id="path3859" inkscape:connector-curvature="0" class="st4" d="M74.7,454.1l5.8,5.6l3.8-9.5L74.7,454.1z"/>
		<path id="path3859-3" inkscape:connector-curvature="0" class="st4" d="M78.5,516.2l-5.6,5.8l9.5,3.8L78.5,516.2z"/>
		<path id="path3859-3-1" inkscape:connector-curvature="0" class="st4" d="M16.7,520.6l-5.8-5.6l-3.8,9.5L16.7,520.6z"/>
		<path id="path3859-3-7" inkscape:connector-curvature="0" class="st4" d="M12,458.4l5.6-5.8l-9.5-3.8L12,458.4z"/>
		<path id="path3859-3-4-8" inkscape:connector-curvature="0" class="st5" d="M128.4,483.9l0.1,9.4l12.3-4.7L128.4,483.9z"/>
		<path id="path3859-3-4-8-1" inkscape:connector-curvature="0" class="st5" d="M-38.8,493.4l-0.1-9.4l-12.3,4.7L-38.8,493.4z"/>
		<path id="path3859-3-4-8-1-7" inkscape:connector-curvature="0" class="st5" d="M38.4,403.4l9.4-0.1L43.1,391L38.4,403.4z"/>
		<path id="path3859-3-4-8-1-8" inkscape:connector-curvature="0" class="st5" d="M47.8,570.9l-9.4,0.1l4.7,12.3L47.8,570.9z"/>
		
			<path id="path3983" sodipodi:cx="76.897865" sodipodi:cy="387.55554" sodipodi:rx="3.661803" sodipodi:ry="3.661803" sodipodi:type="arc" class="st5" d="
			M-16,425.9c0,1.5-1.2,2.7-2.7,2.7s-2.7-1.2-2.7-2.7s1.2-2.7,2.7-2.7S-16,424.4-16,425.9z"/>
		
			<path id="path3983-8" sodipodi:cx="76.897865" sodipodi:cy="387.55554" sodipodi:rx="3.661803" sodipodi:ry="3.661803" sodipodi:type="arc" class="st5" d="
			M110.2,425.2c0,1.5-1.2,2.7-2.7,2.7s-2.7-1.2-2.7-2.7s1.2-2.7,2.7-2.7S110.2,423.7,110.2,425.2z"/>
		
			<path id="path3983-1" sodipodi:cx="76.897865" sodipodi:cy="387.55554" sodipodi:rx="3.661803" sodipodi:ry="3.661803" sodipodi:type="arc" class="st5" d="
			M-16.1,553.6c0,1.5-1.2,2.7-2.7,2.7s-2.7-1.2-2.7-2.7s1.2-2.7,2.7-2.7S-16.1,552.1-16.1,553.6z"/>
		
			<path id="path3983-3" sodipodi:cx="76.897865" sodipodi:cy="387.55554" sodipodi:rx="3.661803" sodipodi:ry="3.661803" sodipodi:type="arc" class="st5" d="
			M111.1,553.6c0,1.5-1.2,2.7-2.7,2.7s-2.7-1.2-2.7-2.7s1.2-2.7,2.7-2.7S111.1,552.1,111.1,553.6z"/>
		
		<path id="path4040" inkscape:connector-curvature="0" sodipodi:nodetypes="sssssssss" class="st15" d="M317.9,579
			c-28.4-6.5-42.6-32.5-40-60.6c2-21.8,20.6-39.1,38.5-53.1c30.6-24,58.4-41.2,105.1-50.5c22.8-4.6,45.1-6.2,61.7,1.5
			c25.3,11.8,35.2,38.2,27.5,67.3c-4.6,17.5-17.4,29-33.1,34.4c-25.9,9-79.5,30.4-116,52C350.5,576.6,335.7,583.1,317.9,579
			L317.9,579z"/>
					
		<path id="path4042" inkscape:connector-curvature="0" sodipodi:nodetypes="sssssssss" class="st1" d="M467.9,506.4
			c10.2-3.1,27.5-10.6,31.7-28.4c4-17.1-4.8-36.3-15.6-44.6c-10.1-7.7-25.6-9-37.3-5c-31.6,10.9-94.9,35.1-138.6,65.6
			c-10.3,7.2-14.7,19.1-14.9,28.3c-0.4,15.9,4.1,26.6,18.9,36.1c11.3,7.2,26.3,8,38.6,1.1C384.1,540.9,439,515.1,467.9,506.4
			L467.9,506.4z"/>
		
      <path id="path4044-0-2" sodipodi:cx="727.67859" sodipodi:cy="442.18362" sodipodi:rx="38.392857" sodipodi:ry="38.392857" sodipodi:type="arc" class="st1" d="
			M427.6,492.1c0,16.3-13.2,29.5-29.5,29.5s-29.5-13.2-29.5-29.5c0-16.3,13.2-29.5,29.5-29.5S427.6,475.9,427.6,492.1z"/>
    
    	<path id="path4044-0" sodipodi:cx="727.67859" sodipodi:cy="442.18362" sodipodi:rx="38.392857" sodipodi:ry="38.392857" sodipodi:type="arc" class="st1" d="
			M362.3,525.2c0,16.3-13.2,29.5-29.5,29.5s-29.5-13.2-29.5-29.5s13.2-29.5,29.5-29.5S362.3,508.9,362.3,525.2z"/>
    
			<path id="path4044-0-7" sodipodi:cx="727.67859" sodipodi:cy="442.18362" sodipodi:rx="38.392857" sodipodi:ry="38.392857" sodipodi:type="arc" class="st1" d="
			M494.5,466c0,16.3-13.2,29.5-29.5,29.5s-29.5-13.2-29.5-29.5c0-16.3,13.2-29.5,29.5-29.5S494.5,449.7,494.5,466z"/>
		
			<path id="B" sodipodi:cx="727.67859" sodipodi:cy="442.18362" sodipodi:rx="38.392857" sodipodi:ry="38.392857" sodipodi:type="arc" class="st14" d="
			M491.5,466c0,14.6-11.9,26.5-26.5,26.5s-26.5-11.9-26.5-26.5s11.9-26.5,26.5-26.5S491.5,451.3,491.5,466z"/>
		
			<path id="A" sodipodi:cx="727.67859" sodipodi:cy="442.18362" sodipodi:rx="38.392857" sodipodi:ry="38.392857" sodipodi:type="arc" class="st14" d="
			M424.6,492.1c0,14.6-11.9,26.5-26.5,26.5s-26.5-11.9-26.5-26.5c0-14.6,11.9-26.5,26.5-26.5S424.6,477.5,424.6,492.1z"/>
		
			<path id="X" sodipodi:cx="727.67859" sodipodi:cy="442.18362" sodipodi:rx="38.392857" sodipodi:ry="38.392857" sodipodi:type="arc" class="st14" d="
			M359.3,525.2c0,14.6-11.9,26.5-26.5,26.5s-26.5-11.9-26.5-26.5s11.9-26.5,26.5-26.5S359.3,510.6,359.3,525.2z"/>
		<g>
			<path id="path4110" inkscape:connector-curvature="0" class="st6" d="M325.5,533.1l4.8-13.8l11.9,6.7"/>
			<path id="path4112" inkscape:connector-curvature="0" class="st6" d="M327,529l11.7-4.8"/>
			<path id="path4133" inkscape:connector-curvature="0" sodipodi:nodetypes="ccccccccc" class="st6" d="M402.5,490.9
				c3.7-1.7,1.5-6.4-2.1-4.8l-11.1,5l0,0l4,9.5l0,0l11-5C408,493.9,406,489.3,402.5,490.9l-11.2,5"/>
			<path id="path4165" inkscape:connector-curvature="0" class="st6" d="M469.4,459.6l-13.4,4.1l2,8.2l13.8-4.1"/>
		</g>
		<text transform="matrix(1.2449 -0.5416 0.5416 1.2449 331.5693 389.104)" class="st5 st7 st8">START</text>
		<text transform="matrix(1.2323 -0.5696 0.5696 1.2323 398.1018 564.252)" class="st5 st7 st9">TRIGGER</text>
		<path id="rect3829" inkscape:connector-curvature="0" class="st1" d="M34.1,433.1c-1.3,0-2.4,1.1-2.4,2.4v38.2H-6.6
			c-1.3,0-2.4,1.1-2.4,2.4v21.5c0,1.3,1.1,2.4,2.4,2.4h38.2v38.2c0,1.3,1.1,2.4,2.4,2.4h21.5c1.3,0,2.4-1.1,2.4-2.4V500h38.2
			c1.3,0,2.4-1.1,2.4-2.4v-21.5c0-1.3-1.1-2.4-2.4-2.4H57.9v-38.2c0-1.3-1.1-2.4-2.4-2.4L34.1,433.1L34.1,433.1z"/>
		<g id="genesisLogo">
			<polygon id="polygon7575" class="st5" points="148.6,432.6 158.3,438.3 297.6,438.3 307.3,432.6 307.3,420.2 298.1,414.8 
				252.3,414.8 244,403.1 211.1,403.1 211.1,403.1 202.9,414.8 157.7,414.8 148.6,420.1 			"/>
			<g id="polygon9">
				<polygon class="st5" points="253.9,413 245.6,400.2 212.7,400.2 212.7,400.2 204.5,413 159.4,413 150.2,418.8 150.2,432.5 
					159.9,438.7 299.2,438.7 309,432.5 309,418.9 299.7,413 				"/>
			</g>
			<path id="path11" inkscape:connector-curvature="0" d="M221.5,412c0,0.6,0.5,1.1,1.1,1.1h4.5v-1.4h-4.2v-0.4h3.3v-1.4h-4.7V412
				L221.5,412z"/>
			<path id="path13" inkscape:connector-curvature="0" d="M221.5,407.5c0-0.6,0.5-1.1,1.1-1.1h4.5v1.4h-4.2v0.4h3.3v1.4h-4.7V407.5
				L221.5,407.5z"/>
			<polygon id="polygon15" points="260.8,422.8 251.4,422.8 251.4,425 265.6,425 265.6,430.6 260.6,434 244.9,434 250.1,430.6 
				259.3,430.6 259.3,428.4 245.1,428.4 245.1,422.9 250.3,419.4 250.3,419.4 266,419.4 			"/>
			<polygon id="polygon17" points="274,434 267.6,434 267.6,419.4 267.6,419.4 274,419.4 			"/>
			<polygon id="polygon19" points="292.2,422.8 282.8,422.8 282.8,425 297.1,425 297.1,430.6 292,434 276.3,434 281.5,430.6 
				290.7,430.6 290.7,428.4 276.5,428.4 276.5,422.9 281.7,419.4 281.7,419.4 297.4,419.4 			"/>
			<polygon id="polygon21" points="245.5,430.6 231.2,430.6 231.2,428.4 237.3,428.4 242.5,425 231.2,425 231.2,422.8 240.4,422.8 
				245.6,419.4 230.4,419.4 224.9,422.8 224.9,422.8 224.9,434 240.3,434 			"/>
			<polygon id="polygon23" points="200.9,430.6 186.6,430.6 186.6,428.4 192.7,428.4 197.9,425 186.6,425 186.6,422.8 195.8,422.8 
				201,419.4 185.8,419.4 180.2,422.8 180.2,422.8 180.2,434 195.7,434 			"/>
			<polygon id="polygon25" points="208.8,424.2 208.8,434 202.4,434 202.4,419.4 208.9,419.4 216.7,423.7 216.7,419.4 216.7,419.4 
				223.1,419.4 223.1,434 216.7,434 216.7,429.2 			"/>
			<polygon id="polygon27" points="180.5,419.4 175.3,422.8 164.3,422.8 164.3,430.6 172.2,430.6 172.2,428.4 165.7,428.4 
				170.9,425 178.6,425 178.6,430.8 173.7,434 157.9,434 157.9,422.9 157.9,422.9 163.2,419.4 			"/>
			<path id="path29" inkscape:connector-curvature="0" d="M222.4,404.6c-1.5,0-2.8,1.2-2.8,2.8v4.8c0,1.5,1.2,2.8,2.8,2.8h4.6v-1.4
				h-4.5c-0.8,0-1.5-0.8-1.5-1.6v-4.5c0-0.8,0.7-1.5,1.5-1.5h4.5v-1.4L222.4,404.6L222.4,404.6L222.4,404.6z"/>
			<path id="path31" inkscape:connector-curvature="0" d="M231.2,411.7v-4h4.4v-1.4h-4.7c-0.6,0-1.1,0.5-1.1,1.1v4.5
				c0,0.6,0.5,1.1,1.1,1.1h2.9v-3.1h-2.1v1.3h0.8v0.5H231.2L231.2,411.7L231.2,411.7z"/>
			<path id="path33" inkscape:connector-curvature="0" d="M218.4,404.5H214c-1.9,0-3.4,1.5-3.4,3.4s1.5,3.4,3.4,3.3h1.4v0.5h-4.9
				v1.3h4.6c0.9,0,1.6-0.7,1.6-1.6s-0.7-1.5-1.6-1.5h-1.2c-1.1,0-2-0.9-2-2s0.9-2,2-2h4.4L218.4,404.5L218.4,404.5L218.4,404.5z"/>
			<path id="path35" inkscape:connector-curvature="0" d="M218.4,407.7h-4.6v0.5h1.4c1.9,0,3.4,1.5,3.4,3.4s-1.5,3.4-3.4,3.4h-4.6
				v-1.4h4.6c1.1,0,2-0.9,2-2s-0.9-2-2-2H214c-0.9,0-1.6-0.7-1.6-1.6s0.7-1.6,1.6-1.6h4.4L218.4,407.7L218.4,407.7L218.4,407.7z"/>
			<path id="path37" inkscape:connector-curvature="0" d="M240.8,406.2c-0.1-0.1-0.1-0.2-0.2-0.2s-0.2,0.1-0.2,0.2l-2.8,8.7h1.5
				l1.6-4.8l0.5,1.6h-1.1v1.4h3L240.8,406.2L240.8,406.2L240.8,406.2z"/>
			<path id="path39" inkscape:connector-curvature="0" d="M230.8,414.9c-1.5,0-2.8-1.2-2.8-2.8v-4.8c0-1.5,1.2-2.8,2.8-2.8h4.8v1.4
				h-4.7c-0.8,0-1.5,0.7-1.5,1.5v4.5c0,0.8,0.7,1.6,1.5,1.6h3.3v-4.1h-2.6V408h4v6.4l2.8-8.8c0.3-0.9,1.1-1.5,2.1-1.5
				s1.8,0.7,2.1,1.6l2.9,9h-5.6v-1.4h3.6l-2.5-7.5c-0.1-0.4-0.4-0.5-0.7-0.5c-0.3,0-0.5,0.1-0.7,0.5l-2.9,8.9L230.8,414.9
				L230.8,414.9L230.8,414.9z"/>
		</g>
		<g>
			<path id="path4110_00000113318429691939622560000015947141586499078844_" inkscape:connector-curvature="0" class="st10" d="
				M302,495.3l2.4-14.3l12.8,4.7"/>
			<path id="path4112_00000005964176441492740590000008474897858252353154_" inkscape:connector-curvature="0" class="st10" d="
				M302.8,490.9l10.7-6.6"/>
			
				<path id="path4133_00000112627707018994123260000002819941912945335718_" inkscape:connector-curvature="0" sodipodi:nodetypes="ccccccccc" class="st10" d="
				M384.3,444.2c3.7-1.7,1.5-6.4-2.1-4.8l-11.1,5l0,0l4,9.5l0,0l11-5C389.8,447.2,387.8,442.6,384.3,444.2l-11.2,5"/>
			<path id="path4165_00000008151016726452730250000012010598401808427440_" inkscape:connector-curvature="0" class="st10" d="
				M451.6,414.2l-13,5l2.6,8l13.4-5.1"/>
		</g>
		<g>
			<path id="R" inkscape:connector-curvature="0" class="st11" d="M76.2,481.2l0.1,9.4l12.3-4.7L76.2,481.2z"/>
			<path id="L" inkscape:connector-curvature="0" class="st11" d="M1.9,485.9l12.3,4.7l0.1-9.4L1.9,485.9z"/>
			<path id="U" inkscape:connector-curvature="0" class="st11" d="M40.6,455l9.4-0.1l-4.7-12.3L40.6,455z"/>
			<path id="D" inkscape:connector-curvature="0" class="st11" d="M45.3,529.3L50,517l-9.4-0.1L45.3,529.3z"/>
		</g>
	</g>
	<g id="fillerButtons">
		<path id="back" class="st12" d="M-49.7-39.6"/>
		<path id="Y" class="st12" d="M-49.7-39.6"/>
		<path id="rBumper" class="st12" d="M-49.7-39.6"/>
		<path id="lBumper" class="st12" d="M-49.7-39.6"/>
	</g>
</g>
<g id="disconnected">
	<path id="disconnected_outline" inkscape:connector-curvature="0" class="st13" d="M229.7,0.5C144.3,0.9,52.9,38.3,24.9,69.6
		c-44.6,49.8-22,128.9,18.9,174.5c18,20.2,34.5,29.9,49,30.9s31.2-7.2,36.1-19.4c9.2-22.6,22.8-40.6,50.9-48
		c17.9-4.7,25.4-8.4,52.2-8.3c1.3,0,2.4,0,3.5,0c0.9,0,1.8,0,2.7,0c27.3,0.6,34.7,4.5,52.7,9.6c27.8,8,41.1,26.4,49.7,49.2
		c4.6,12.2,21.1,20.8,35.6,20.3c14.5-0.6,31.2-9.9,49.7-29.7c42.1-44.6,66.4-123.2,23.2-174C421,41.7,325.6,0.5,237.8,0.5
		C235.2,0.6,232.4,0.5,229.7,0.5L229.7,0.5z"/>
	<g id="disconnected_text">
		<path class="st5" d="M123.9,109.1c0,2.7-0.9,4.9-2.5,6.5c-1.6,1.5-3.8,2.4-6.6,2.4h-14.2V71.2h14.3c2.8,0,4.9,0.8,6.6,2.4
			c1.6,1.6,2.5,3.7,2.5,6.5L123.9,109.1L123.9,109.1z M116.8,107.9V81c0-2.6-1.4-3.9-4.1-3.9h-5.2v34.8h5
			C115.5,111.9,116.8,110.5,116.8,107.9z"/>
		<path class="st5" d="M135.9,83.3H129v-7.1h6.9V83.3z M135.9,117.8h-6.7V87.6h6.7V117.8z"/>
		<path class="st5" d="M159.9,114.1c0,2.5-1.3,3.7-3.8,3.7h-11.5c-2.6,0-3.8-1.3-3.8-3.7v-6.5h6.5v5.1h6v-4.8l-10.5-6.2
			c-1.4-0.9-2-2-2-3.3v-7c0-2.5,1.3-3.7,3.8-3.7H156c2.6,0,3.8,1.3,3.8,3.7v6h-6.5v-4.7h-6V97l10.5,6.1c1.4,0.8,2.1,2,2.1,3.3V114.1
			z"/>
		<path class="st5" d="M184.2,114.1c0,2.5-1.3,3.7-3.8,3.7h-11.9c-2.6,0-3.8-1.3-3.8-3.7V91.4c0-2.5,1.3-3.7,3.8-3.7h11.8
			c2.6,0,3.8,1.3,3.8,3.7v7.1h-6.6v-5.1h-6.1v18.8h6.1v-5.8h6.6L184.2,114.1L184.2,114.1z"/>
		<path class="st5" d="M209,114.1c0,2.5-1.3,3.7-3.8,3.7H193c-2.6,0-3.8-1.3-3.8-3.7V91.4c0-2.5,1.3-3.7,3.8-3.7h12.2
			c2.6,0,3.8,1.3,3.8,3.7V114.1z M202.3,112.2V93.4h-6.5v18.8H202.3z"/>
		<path class="st5" d="M234,117.8h-6.9V93.4l-6.5,0.1v24.4h-6.9V87.7h6.9v1.1c1.6-0.3,3.1-0.5,4.8-0.8c2-0.3,3.6-0.5,4.8-0.5
			c2.5,0,3.7,1.2,3.7,3.7v26.6L234,117.8L234,117.8z"/>
		<path class="st5" d="M259.1,117.8h-6.9V93.4l-6.5,0.1v24.4h-6.9V87.7h6.9v1.1c1.6-0.3,3.1-0.5,4.8-0.8c2-0.3,3.6-0.5,4.8-0.5
			c2.5,0,3.7,1.2,3.7,3.7v26.6L259.1,117.8L259.1,117.8z"/>
		<path class="st5" d="M283.5,114.1c0,2.5-1.3,3.7-3.8,3.7h-11.8c-2.6,0-3.8-1.3-3.8-3.7V91.4c0-2.5,1.3-3.7,3.8-3.7h11.8
			c2.6,0,3.8,1.3,3.8,3.7v11.1l-1.9,1.9h-11.1v8.4h6.5v-5h6.5V114.1L283.5,114.1z M277,99.9v-7.2h-6.5v7.2H277z"/>
		<path class="st5" d="M308,114.1c0,2.5-1.3,3.7-3.8,3.7h-11.9c-2.6,0-3.8-1.3-3.8-3.7V91.4c0-2.5,1.3-3.7,3.8-3.7h11.9
			c2.6,0,3.8,1.3,3.8,3.7v7.1h-6.6v-5.1h-6.1v18.8h6.1v-5.8h6.6V114.1z"/>
		<path class="st5" d="M325.9,117.8h-7.6c-2.6,0-3.8-1.3-3.8-3.7V93.4h-3.2v-5.9h3.2v-8.1h6.8v8.2h4.4v5.9h-4.4V112h4.6V117.8z"/>
		<path class="st5" d="M349.2,114.1c0,2.5-1.3,3.7-3.8,3.7h-11.8c-2.6,0-3.8-1.3-3.8-3.7V91.4c0-2.5,1.3-3.7,3.8-3.7h11.8
			c2.6,0,3.8,1.3,3.8,3.7v11.1l-1.9,1.9h-11v8.4h6.5v-5h6.5L349.2,114.1L349.2,114.1z M342.7,99.9v-7.2h-6.5v7.2H342.7z"/>
		<path class="st5" d="M374.2,117.8h-6.8v-1c-4.6,0.9-7.2,1.2-7.7,1.2c-1.7,0-3.1-0.5-4-1.5s-1.4-2.4-1.4-4.1V93.7
			c0-2.5,0.9-4.2,2.6-5.1c1.3-0.7,3.2-1.1,5.8-1.1c0.6,0,1.4,0,2.6,0.1c1.1,0,1.9,0.1,2.3,0.1V71.1h6.8L374.2,117.8L374.2,117.8z
			 M367.4,112V93.4h-4.3c-1.5,0-2.3,0.8-2.3,2.3v14.5c0,1.4,0.7,2.2,2.1,2.2C363.4,112.3,364.9,112.2,367.4,112z"/>
		<path class="st5" d="M30,152.4c0,1.4-0.7,2.1-2.1,2.1h-7.3c-1.4,0-2-0.7-2-2.1v-19.1c0-1.4,0.7-2.1,2-2.1h7.3
			c1.4,0,2.1,0.7,2.1,2.1v5.4h-3.5v-4.6H22v17.3h4.5v-4.9H30V152.4z"/>
		<path class="st5" d="M42.5,152.7c0,1.3-0.6,1.9-1.9,1.9h-6.1c-1.3,0-2-0.6-2-1.9v-11.4c0-1.3,0.7-1.9,2-1.9h6.1
			c1.3,0,1.9,0.6,1.9,1.9V152.7z M39.2,151.8v-9.4H36v9.4H39.2z"/>
		<path class="st5" d="M55.1,154.6h-3.4v-12.2l-3.2,0.1v12.2h-3.4v-15.3h3.4v0.6c0.8-0.2,1.6-0.3,2.4-0.3c0.9-0.2,1.8-0.3,2.4-0.3
			c1.3,0,1.9,0.6,1.9,1.9v13.3H55.1z"/>
		<path class="st5" d="M67.6,154.6h-3.4v-12.2l-3.2,0.1v12.2h-3.4v-15.3H61v0.6c0.8-0.2,1.6-0.3,2.4-0.3c0.9-0.2,1.8-0.3,2.4-0.3
			c1.3,0,1.9,0.6,1.9,1.9v13.3H67.6z"/>
		<path class="st5" d="M79.9,152.7c0,1.3-0.7,1.9-2,1.9H72c-1.3,0-2-0.6-2-1.9v-11.4c0-1.3,0.7-1.9,2-1.9h5.9c1.3,0,2,0.6,2,1.9v5.5
			l-0.9,0.9h-5.5v4.3h3.2v-2.6h3.2C79.9,149.5,79.9,152.7,79.9,152.7z M76.5,145.6v-3.7h-3.1v3.7H76.5z"/>
		<path class="st5" d="M92.1,152.7c0,1.3-0.6,1.9-1.9,1.9h-6c-1.3,0-2-0.6-2-1.9v-11.4c0-1.3,0.7-1.9,2-1.9h6c1.3,0,1.9,0.6,1.9,1.9
			v3.6h-3.3v-2.6h-3.1v9.4h3.1v-2.9h3.3V152.7z"/>
		<path class="st5" d="M101,154.6h-3.8c-1.3,0-1.9-0.6-1.9-1.9v-10.3h-1.6v-2.9h1.6v-4.1h3.4v4.1h2.2v2.9h-2.2v9.3h2.3V154.6z"/>
		<path class="st5" d="M119,154.6h-3.2v-0.5c-0.8,0.1-1.5,0.3-2.3,0.3c-1,0.2-1.8,0.3-2.3,0.3c-1.3,0-1.9-0.6-1.9-1.9v-5.4
			c0-1.3,0.7-1.9,2-1.9h4.6V142h-3.3v2.1h-3.1v-2.8c0-1.3,0.7-1.9,2-1.9h5.8c1.3,0,1.9,0.6,1.9,1.9L119,154.6L119,154.6z
			 M115.7,151.8v-4.1h-3.2v4.2L115.7,151.8z"/>
		<path class="st5" d="M137.5,152.7c0,1.3-0.6,1.9-1.9,1.9h-6c-1.3,0-2-0.6-2-1.9v-11.4c0-1.3,0.7-1.9,2-1.9h6
			c1.3,0,1.9,0.6,1.9,1.9v3.6h-3.3v-2.6h-3.1v9.4h3.1v-2.9h3.3V152.7z"/>
		<path class="st5" d="M149.9,152.7c0,1.3-0.6,1.9-1.9,1.9h-6.1c-1.3,0-2-0.6-2-1.9v-11.4c0-1.3,0.7-1.9,2-1.9h6.1
			c1.3,0,1.9,0.6,1.9,1.9V152.7z M146.6,151.8v-9.4h-3.3v9.4H146.6z"/>
		<path class="st5" d="M162.4,154.6H159v-12.2l-3.2,0.1v12.2h-3.4v-15.3h3.4v0.6c0.8-0.2,1.6-0.3,2.4-0.3c0.9-0.2,1.8-0.3,2.4-0.3
			c1.3,0,1.9,0.6,1.9,1.9L162.4,154.6L162.4,154.6z"/>
		<path class="st5" d="M171.4,154.6h-3.8c-1.3,0-1.9-0.6-1.9-1.9v-10.3h-1.6v-2.9h1.6v-4.1h3.4v4.1h2.2v2.9h-2.2v9.3h2.3V154.6z"/>
		<path class="st5" d="M182.8,145.8h-3.4v-3.5l-2.7,0.1v12.2h-3.4v-15.2h3.4v0.6c0.7-0.2,1.4-0.3,2.1-0.4c0.9-0.2,1.5-0.3,2.1-0.3
			c1.3,0,1.9,0.6,1.9,1.9V145.8z"/>
		<path class="st5" d="M194.7,152.7c0,1.3-0.6,1.9-1.9,1.9h-6.1c-1.3,0-2-0.6-2-1.9v-11.4c0-1.3,0.7-1.9,2-1.9h6.1
			c1.3,0,1.9,0.6,1.9,1.9V152.7z M191.4,151.8v-9.4h-3.2v9.4H191.4z"/>
		<path class="st5" d="M200.6,154.6h-3.4v-23.4h3.4V154.6z"/>
		<path class="st5" d="M206.6,154.6h-3.4v-23.4h3.4V154.6z"/>
		<path class="st5" d="M218.9,152.7c0,1.3-0.7,1.9-2,1.9H211c-1.3,0-2-0.6-2-1.9v-11.4c0-1.3,0.7-1.9,2-1.9h5.9c1.3,0,2,0.6,2,1.9
			v5.5l-0.9,0.9h-5.5v4.3h3.2v-2.6h3.2L218.9,152.7L218.9,152.7z M215.6,145.6v-3.7h-3.2v3.7H215.6z"/>
		<path class="st5" d="M230.9,145.8h-3.4v-3.5l-2.7,0.1v12.2h-3.4v-15.2h3.4v0.6c0.7-0.2,1.4-0.3,2.1-0.4c0.9-0.2,1.5-0.3,2.1-0.3
			c1.3,0,1.9,0.6,1.9,1.9V145.8z"/>
		<path class="st5" d="M248.8,154.6h-3.2v-0.5c-0.8,0.1-1.5,0.3-2.3,0.3c-1,0.2-1.8,0.3-2.3,0.3c-1.3,0-1.9-0.6-1.9-1.9v-5.4
			c0-1.3,0.7-1.9,2-1.9h4.6V142h-3.2v2.1h-3.1v-2.8c0-1.3,0.7-1.9,2-1.9h5.8c1.3,0,1.9,0.6,1.9,1.9v13.3L248.8,154.6L248.8,154.6z
			 M245.6,151.8v-4.1h-3.2v4.2L245.6,151.8z"/>
		<path class="st5" d="M261.3,154.6h-3.4v-12.2l-3.2,0.1v12.2h-3.4v-15.3h3.4v0.6c0.8-0.2,1.6-0.3,2.4-0.3c0.9-0.2,1.8-0.3,2.4-0.3
			c1.3,0,1.9,0.6,1.9,1.9L261.3,154.6L261.3,154.6z"/>
		<path class="st5" d="M273.8,154.6h-3.4v-0.5c-2.3,0.4-3.6,0.6-3.9,0.6c-0.9,0-1.5-0.3-2-0.8s-0.7-1.2-0.7-2v-9.4
			c0-1.2,0.4-2,1.3-2.6c0.7-0.3,1.6-0.5,2.9-0.5c0.3,0,0.7,0,1.3,0c0.6,0,0.9,0,1.2,0v-8.3h3.4L273.8,154.6L273.8,154.6z
			 M270.4,151.7v-9.3h-2.1c-0.8,0-1.1,0.3-1.1,1.1v7.2c0,0.8,0.3,1.1,1.1,1.1C268.4,151.8,269.2,151.8,270.4,151.7z"/>
		<path class="st5" d="M292.7,151.6c0,1.2-0.4,2-1.3,2.6c-0.7,0.3-1.6,0.5-2.9,0.5c-0.3,0-0.7,0-1.3,0c-0.6,0-0.9,0-1.2,0v5.5h-3.4
			v-20.6h3.4v0.6c0.8-0.1,1.6-0.3,2.4-0.3c1-0.2,1.8-0.3,2.4-0.3c1.3,0,1.9,0.6,1.9,1.9V151.6z M289.2,150.7v-8.3l-3.2,0.1v9.4h2.1
			C288.9,151.8,289.2,151.3,289.2,150.7z"/>
		<path class="st5" d="M304.6,145.8h-3.4v-3.5l-2.7,0.1v12.2h-3.4v-15.2h3.4v0.6c0.7-0.2,1.4-0.3,2.1-0.4c0.9-0.2,1.5-0.3,2.1-0.3
			c1.3,0,1.9,0.6,1.9,1.9V145.8z"/>
		<path class="st5" d="M316.3,152.7c0,1.3-0.7,1.9-2,1.9h-5.9c-1.3,0-2-0.6-2-1.9v-11.4c0-1.3,0.7-1.9,2-1.9h5.9c1.3,0,2,0.6,2,1.9
			v5.5l-0.9,0.9h-5.5v4.3h3.2v-2.6h3.2L316.3,152.7L316.3,152.7z M313,145.6v-3.7h-3.2v3.7H313z"/>
		<path class="st5" d="M328.3,152.7c0,1.3-0.6,1.9-1.9,1.9h-5.8c-1.3,0-1.9-0.6-1.9-1.9v-3.2h3.2v2.6h3v-2.4l-5.3-3.1
			c-0.7-0.4-1-0.9-1-1.6v-3.5c0-1.3,0.7-1.9,2-1.9h5.7c1.3,0,1.9,0.6,1.9,1.9v3.1H325v-2.3h-3v2.2l5.3,3.1c0.7,0.4,1,0.9,1,1.7
			L328.3,152.7L328.3,152.7z"/>
		<path class="st5" d="M340.1,152.7c0,1.3-0.6,1.9-1.9,1.9h-5.8c-1.3,0-1.9-0.6-1.9-1.9v-3.2h3.2v2.6h3v-2.4l-5.3-3.1
			c-0.7-0.4-1-0.9-1-1.6v-3.5c0-1.3,0.7-1.9,2-1.9h5.7c1.3,0,1.9,0.6,1.9,1.9v3.1h-3.1v-2.3h-3v2.2l5.3,3.1c0.7,0.4,1,0.9,1,1.7
			L340.1,152.7L340.1,152.7z"/>
		<path class="st5" d="M358.6,154.6h-3.3v-0.5c-0.8,0.1-1.5,0.3-2.3,0.3c-1,0.2-1.8,0.3-2.3,0.3c-1.3,0-1.9-0.6-1.9-1.9v-5.4
			c0-1.3,0.7-1.9,2-1.9h4.6V142h-3.2v2.1h-3.1v-2.8c0-1.3,0.7-1.9,2-1.9h5.8c1.3,0,1.9,0.6,1.9,1.9v13.3L358.6,154.6L358.6,154.6z
			 M355.3,151.8v-4.1h-3.2v4.2L355.3,151.8z"/>
		<path class="st5" d="M371.1,154.6h-3.4v-12.2l-3.2,0.1v12.2h-3.4v-15.3h3.4v0.6c0.8-0.2,1.6-0.3,2.4-0.3c0.9-0.2,1.8-0.3,2.4-0.3
			c1.3,0,1.9,0.6,1.9,1.9L371.1,154.6L371.1,154.6z"/>
		<path class="st5" d="M383.7,139.5l-3.7,14.9l-1.4,5.7h-3.5l1.5-5.6l-3.8-15h3.5l2,9.9l2-9.9L383.7,139.5L383.7,139.5z"/>
		<path class="st5" d="M401.8,151.6c0,0.9-0.3,1.7-0.9,2.2s-1.4,0.8-2.3,0.8h-7v-23.4h3.4v8.8c0.8-0.1,1.6-0.3,2.4-0.3
			c1-0.2,1.8-0.3,2.4-0.3c1.3,0,1.9,0.6,1.9,1.9L401.8,151.6L401.8,151.6z M398.4,150.7v-8.3l-3.2,0.1v9.4h2.1
			C398,151.8,398.4,151.3,398.4,150.7z"/>
		<path class="st5" d="M414.3,154.6h-3.4v-0.5c-0.8,0.2-1.6,0.3-2.4,0.4c-0.9,0.2-1.8,0.3-2.4,0.3c-1.3,0-1.9-0.6-1.9-1.9v-13.3h3.4
			v12.2l3.2-0.1v-12.2h3.4L414.3,154.6L414.3,154.6z"/>
		<path class="st5" d="M423.4,154.6h-3.8c-1.3,0-1.9-0.6-1.9-1.9v-10.3h-1.6v-2.9h1.6v-4.1h3.4v4.1h2.2v2.9h-2.2v9.3h2.3V154.6z"/>
		<path class="st5" d="M431.8,154.6H428c-1.3,0-1.9-0.6-1.9-1.9v-10.3h-1.6v-2.9h1.6v-4.1h3.4v4.1h2.2v2.9h-2.2v9.3h2.3V154.6
			L431.8,154.6z"/>
		<path class="st5" d="M443.6,152.7c0,1.3-0.6,1.9-1.9,1.9h-6.1c-1.3,0-2-0.6-2-1.9v-11.4c0-1.3,0.7-1.9,2-1.9h6.1
			c1.3,0,1.9,0.6,1.9,1.9V152.7z M440.3,151.8v-9.4h-3.2v9.4H440.3z"/>
		<path class="st5" d="M456.2,154.6h-3.4v-12.2l-3.2,0.1v12.2h-3.4v-15.3h3.4v0.6c0.8-0.2,1.6-0.3,2.4-0.3c0.9-0.2,1.8-0.3,2.4-0.3
			c1.3,0,1.9,0.6,1.9,1.9L456.2,154.6L456.2,154.6z"/>
	</g>
</g>
</svg>
