<?xml version="1.0" encoding="utf-8"?>
<!-- Generator: Adobe Illustrator 25.4.1, SVG Export Plug-In . SVG Version: 6.00 Build 0)  -->
<svg version="1.1"
	 id="svg2" xmlns:cc="http://creativecommons.org/ns#" xmlns:dc="http://purl.org/dc/elements/1.1/" xmlns:rdf="http://www.w3.org/1999/02/22-rdf-syntax-ns#"
	 xmlns="http://www.w3.org/2000/svg" xmlns:xlink="http://www.w3.org/1999/xlink" x="0px" y="0px" viewBox="0 270 612 251.9"
	 style="enable-background:new 0 270 612 251.9;" xml:space="preserve">
<style type="text/css">
	.st0{fill:#1A1A1A;}
	.st1{fill:#808080;}
	.st2{fill:#DCDCDC;}
	.st3{stroke:#FFFFFF;stroke-width:1.6523;stroke-linecap:round;}
	.st4{fill:#DDDDDD;}
	.st5{fill:#FF0000;}
	.st6{fill:none;stroke:#808080;stroke-width:1.4584;stroke-linecap:round;}
	.st7{fill:#FE0016;}
	.st8{stroke:#000000;stroke-width:0.5;}
	.st9{fill:none;stroke:#000000;stroke-width:0.7366;}
	.st10{fill:#00000000;}
	.st11{fill:#FFFFFF;}
  .pressed{fill:#FFFFFF;}
</style>
<g>
	<rect id="rect11983" x="15.9" y="312" class="st0" width="581.8" height="195.3"/>
	<path id="rect12203" class="st1" d="M206,305h153.3c5.4,0,9.7,4.3,9.7,9.7v10.6c0,5.4-4.3,9.7-9.7,9.7H206c-5.4,0-9.7-4.3-9.7-9.7
		v-10.6C196.2,309.4,200.6,305,206,305z"/>
	<path id="rect13178" class="st1" d="M206,488.1h153.3c5.4,0,9.7,4.3,9.7,9.7v10.6c0,5.4-4.3,9.7-9.7,9.7H206
		c-5.4,0-9.7-4.3-9.7-9.7v-10.6C196.2,492.4,200.6,488.1,206,488.1z"/>
	<path id="rect11976" class="st2" d="M8.1,270c-4.5,0-8.2,3.6-8.2,8.2v235.6c0,4.5,3.6,8.2,8.2,8.2H604c4.5,0,8-3.6,8-8.2V278.2
		c0-4.5-3.4-8.2-8-8.2H8.1L8.1,270z M15.9,312h582v195.3h-582V312L15.9,312z"/>
	<path id="rect2235" class="st3" d="M87.5,362c-2.7,0-4.7,2.2-4.7,4.9v33.7H49.1c-2.7,0-4.9,2.2-4.9,4.9v27.1c0,2.7,2.2,4.9,4.9,4.9
		h33.7v33.7c0,2.7,2,4.7,4.7,4.7h27.3c2.7,0,4.7-2,4.7-4.7v-33.7h33.7c2.7,0,4.9-2.2,4.9-4.9v-27.1c0-2.7-2.2-4.9-4.9-4.9h-33.7
		v-33.7c0-2.7-2-4.9-4.7-4.9H87.5z"/>
	<path id="rect3757" class="st0" d="M88.5,366.3c-0.8,0-1.5,0.7-1.5,1.5v36.8H50.1c-0.8,0-1.5,0.7-1.5,1.5V432
		c0,0.8,0.7,1.6,1.5,1.6H87v36.8c0,0.8,0.7,1.6,1.5,1.6h26c0.8,0,1.5-0.7,1.5-1.6v-36.8h36.8c0.8,0,1.5-0.7,1.5-1.6v-25.9
		c0-0.8-0.7-1.5-1.5-1.5H116v-36.8c0-0.8-0.7-1.5-1.5-1.5H88.5z"/>
	<path id="rect11986" class="st1" d="M206,343.7h153.3c5.4,0,9.7,4.3,9.7,9.7V364c0,5.4-4.3,9.7-9.7,9.7H206c-5.4,0-9.7-4.3-9.7-9.7
		v-10.6C196.2,348,200.6,343.7,206,343.7z"/>
	<g id="g12011" transform="matrix(2.9042238,0,0,2.9042238,-597.29495,-994.37335)">
		<path id="rect11997" class="st4" d="M343.5,484.8h20.6c0.9,0,1.6,0.7,1.6,1.6v20.6c0,0.9-0.7,1.6-1.6,1.6h-20.6
			c-0.9,0-1.6-0.7-1.6-1.6v-20.6C341.8,485.6,342.6,484.8,343.5,484.8z"/>
		<path id="X" fill="#FF0000" d="M363.5,496.9c0,5.4-4.4,9.8-9.8,9.8s-9.8-4.4-9.8-9.8c0-5.4,4.4-9.8,9.8-9.8
			S363.5,491.5,363.5,496.9z"/>
	</g>
	<g id="g12007" transform="matrix(2.9042238,0,0,2.9042238,-597.29495,-994.37335)">
		<path id="rect12003" class="st4" d="M370.6,484.8h20.6c0.9,0,1.6,0.7,1.6,1.6v20.6c0,0.9-0.7,1.6-1.6,1.6h-20.6
			c-0.9,0-1.6-0.7-1.6-1.6v-20.6C368.9,485.6,369.7,484.8,370.6,484.8z"/>
		<path id="A" fill="#FF0000" d="M390.6,496.9c0,5.4-4.4,9.8-9.8,9.8c-5.4,0-9.8-4.4-9.8-9.8c0-5.4,4.4-9.8,9.8-9.8
			C386.3,487.1,390.6,491.5,390.6,496.9z"/>
	</g>
    <g id="fillerButtons">
    <path id="B"/>
    <path id="Y"/>
    <path id="rBumper"/>
    <path id="lBumper"/>
  </g>
	<path id="rect12205" class="st1" d="M206,382.3h153.3c5.4,0,9.7,4.3,9.7,9.7v10.6c0,5.4-4.3,9.7-9.7,9.7H206
		c-5.4,0-9.7-4.3-9.7-9.7V392C196.2,386.7,200.6,382.3,206,382.3z"/>
	<path id="rect12199" class="st4" d="M207.1,420.5h151.1c6,0,10.8,4.8,10.8,10.8v35.3c0,6-4.8,10.8-10.8,10.8H207.1
		c-6,0-10.8-4.8-10.8-10.8v-35.3C196.2,425.3,201.1,420.5,207.1,420.5z"/>
	<path id="rect12207" class="st6" d="M212.2,425.9h140.9c4.9,0,8.9,4,8.9,8.9v29c0,4.9-4,8.9-8.9,8.9H212.2c-4.9,0-8.9-4-8.9-8.9
		v-29C203.3,429.9,207.3,425.9,212.2,425.9z"/>
	<path id="rect3789" d="M225.7,440.4h29.4c5.3,0,9.6,4.3,9.6,9.6l0,0c0,5.3-4.3,9.6-9.6,9.6h-29.4c-5.3,0-9.6-4.3-9.6-9.6l0,0
		C216.1,444.7,220.4,440.4,225.7,440.4z"/>
	<path id="rect3791" d="M309.7,440.4h29.4c5.3,0,9.6,4.3,9.6,9.6l0,0c0,5.3-4.3,9.6-9.6,9.6h-29.4c-5.3,0-9.6-4.3-9.6-9.6l0,0
		C300.1,444.7,304.4,440.4,309.7,440.4z"/>
	<g>
		<path id="path6991" class="st7" d="M429.6,346.9v15.7h-5l-6.4-10.7c-0.4-0.7-0.4,0-0.4,0v10.7h-5.1v-15.7h5.1
			c0,0,6.1,10.1,6.4,10.5c0.3,0.5,0.3,0,0.3,0v-10.5H429.6"/>
		<path id="path6995" class="st7" d="M432.1,349.8h4.7v-2.9h-4.7V349.8z"/>
		<path id="path6999" class="st7" d="M461.8,349.2v1.7h2.1l0.1,1h-2.2v10.7h-4.9v-10.7h-2.2l0.1-1h2.1v-1.7H461.8"/>
		<path id="path7003" class="st7" d="M452.5,352.5c1.2,0.9,1.6,2.8,1.6,2.8v7.4h-4.9v-7.3c0,0-0.4-1.7-2.3-1.7
			c-1.9,0-2.3,1.6-2.3,1.6v7.4h-4.8v-10.7h4.8c0.5,0.9,1.6-0.2,2.7-0.4C449,351,451,351.6,452.5,352.5"/>
		<path id="path7007" class="st7" d="M432.1,362.6h4.7v-10.7h-4.7V362.6z"/>
		<path id="path7011" class="st7" d="M473.1,360.8c0,0-0.4,1.5-2,1.5c-1.6,0-1.9-1.6-1.9-1.6l0.1-3.2h8.9c0-3-1.3-4.1-2.3-4.9
			c-3-1.6-7.3-1.6-10.2,0.7c-1,0.9-1.7,2.5-1.7,4c0,1.4,0.6,2.8,1.5,3.7c1.9,1.6,4.8,2.3,7.5,1.8c1.8-0.6,4.2-1.5,4.7-3.5h-4.7
			L473.1,360.8L473.1,360.8z M469.4,354.1c0,0,0.3-1.4,1.9-1.4c1.6,0,1.8,1.5,1.8,1.5l0,1.4h-3.7V354.1"/>
		<path id="path7015" class="st7" d="M504.9,346.9v5.5c-1.6-0.9-4.3-1.4-6-0.3c-2.1,1-2.8,3.4-2.9,5.6c0.1,1.6,1,3.4,2.4,4.4
			c1.7,1.1,4.1,1.2,6,0.4c0.2-0.1,0.4-0.2,0.5-0.3c0.2,0.1,0.4,0.2,0.6,0.3c1.4,0.5,3.9,0.2,3.9,0.2v-15.7H504.9L504.9,346.9z
			 M504.9,360.7c0,0-0.5,1-1.9,1.1c-1.1,0-1.8-0.8-1.8-0.8v-7c0,0,0.3-1,1.7-1c1.4,0,2,1,2,1V360.7"/>
		<path id="path7019" class="st7" d="M492.9,352.5c1.2,0.9,1.6,2.8,1.6,2.8v7.4h-4.9v-7.3c0,0-0.4-1.7-2.3-1.7
			c-1.9,0-2.3,1.6-2.3,1.6v7.4h-4.8V352h4.8c0.5,0.9,1.6-0.2,2.6-0.4C489.5,351,491.4,351.6,492.9,352.5"/>
		<path id="path7023" class="st7" d="M518.6,351.3c-4,0-7.2,2.6-7.2,5.8c0,3.2,3.2,5.8,7.2,5.8c3.9,0,7.1-2.6,7.1-5.8
			C525.8,353.9,522.6,351.3,518.6,351.3z M520.5,360.6c0,0-0.5,1-1.9,1.1c-1.1,0-1.8-0.8-1.8-0.8v-7c0,0,0.3-1,1.7-1c1.4,0,2,1,2,1
			V360.6"/>
		<path id="path7027" class="st7" d="M527.9,352.2c1,0,2-0.4,2.8-1.1c0.7-0.7,1.2-1.7,1.2-2.8c0-1-0.4-2-1.2-2.8
			c-0.7-0.7-1.7-1.1-2.8-1.1c-2.2,0-3.9,1.8-3.9,3.9c0,1,0.4,2,1.2,2.8C525.8,351.8,526.8,352.2,527.9,352.2L527.9,352.2z
			 M524.7,348.3c0-0.8,0.3-1.6,0.9-2.2c0.6-0.6,1.4-0.9,2.2-0.9c0.8,0,1.6,0.3,2.2,0.9c0.6,0.6,0.9,1.4,0.9,2.2
			c0,1.7-1.4,3.1-3.1,3.1c-0.8,0-1.6-0.3-2.2-0.9C525,349.9,524.7,349.1,524.7,348.3"/>
		<path id="path7029" class="st7" d="M527,346.7h1.3c0.2,0,0.3,0,0.4,0.1c0.2,0.1,0.3,0.3,0.3,0.6c0,0.3-0.1,0.4-0.2,0.5
			c-0.1,0.1-0.3,0.2-0.6,0.2H527V346.7L527,346.7z M527,350.2v-1.7h1.2c0.2,0,0.4,0,0.5,0.1c0.2,0.1,0.3,0.3,0.3,0.5l0,0.7
			c0,0.2,0,0.3,0,0.3c0,0.1,0,0.1,0,0.1h0.7v-0.1c-0.1,0-0.1-0.1-0.1-0.2c0-0.1-0.1-0.2-0.1-0.3l0-0.5c0-0.2,0-0.4-0.1-0.5
			c-0.1-0.1-0.2-0.2-0.4-0.3c0.2-0.1,0.3-0.2,0.4-0.4c0.1-0.2,0.1-0.4,0.1-0.6c0-0.5-0.2-0.8-0.6-0.9c-0.2-0.1-0.4-0.1-0.7-0.1h-1.8
			v4H527"/>
	</g>
	<g id="text2887">
		<path id="path2921" class="st5" d="M205.8,403h7.8c2.2,0,3.4-1,3.4-3.1c0-2-1.1-3.1-3.4-3.1h-5.6v-1.7h8.9V393h-7.8
			c-2.2,0-3.4,1-3.4,3.1c0,2,1.1,3,3.4,3h5.6v1.7h-8.9V403z"/>
		<path id="path2923" class="st5" d="M229.3,403h-7.8c-2.2,0-3.4-1.1-3.4-3.4V393h11.2v2.2h-8.9v1.7h8.9v2.2h-8.9v0.6
			c0,0.7,0.4,1.1,1.1,1.1h7.8V403z"/>
		<path id="path2925" class="st5" d="M230.4,393v6.7c0,2.2,1.1,3.4,3.4,3.4h7.8v-2.2h-7.8c-0.7,0-1.1-0.4-1.1-1.1V393H230.4z"/>
		<path id="path2927" class="st5" d="M253.9,403h-7.8c-2.2,0-3.4-1.1-3.4-3.4V393h11.2v2.2H245v1.7h8.9v2.2H245v0.6
			c0,0.7,0.4,1.1,1.1,1.1h7.8V403z"/>
		<path id="path2929" class="st5" d="M266.2,403h-7.8c-2.2,0-3.4-1.1-3.4-3.4v-3.4c0-2.2,1.1-3.4,3.4-3.4h7.8v2.2h-7.8
			c-0.7,0-1.1,0.4-1.1,1.1v3.4c0,0.7,0.4,1.1,1.1,1.1h7.8V403z"/>
		<path id="path2931" class="st5" d="M267.3,393h11.2v2.2H274v7.8h-2.2v-7.8h-4.5V393z"/>
	</g>
	<g id="text2891">
		<path id="path2934" class="st5" d="M298.7,403h7.8c2.2,0,3.4-1,3.4-3.1c0-2-1.1-3.1-3.4-3.1h-5.6v-1.7h8.9V393H302
			c-2.2,0-3.4,1-3.4,3.1c0,2,1.1,3,3.4,3h5.6v1.7h-8.9V403z"/>
		<path id="path2936" class="st5" d="M310.9,393h11.2v2.2h-4.5v7.8h-2.2v-7.8h-4.5V393z"/>
		<path id="path2938" class="st5" d="M332.2,398v-1.7c0-0.7-0.4-1.1-1.1-1.1h-4.5c-0.7,0-1.1,0.4-1.1,1.1v1.7H332.2z M325.5,400.2
			v2.8h-2.2v-6.7c0-2.2,1.1-3.4,3.4-3.4h4.5c2.2,0,3.4,1.1,3.4,3.4v6.7h-2.2v-2.8H325.5z"/>
		<path id="path2940" class="st5" d="M337.8,396.9h6.7v-1.7h-6.7V396.9z M337.8,399.1v3.9h-2.2V393h7.8c2.2,0,3.4,1,3.4,3.1
			c0,1-0.2,1.7-0.5,2.1c0.3,0.5,0.5,1.2,0.5,2.1v2.8h-2.2v-2.8c0-0.7-0.4-1.1-1.1-1.1H337.8z"/>
		<path id="path2942" class="st5" d="M347.8,393H359v2.2h-4.5v7.8h-2.2v-7.8h-4.5V393z"/>
	</g>
	<g id="text2895">
		<path id="path2945" class="st5" d="M457.1,493.1h8v-2h-8V493.1z M457.1,497.8h8v-2h-8V497.8z M454.4,500.5v-12h9.4
			c2.7,0,4,1.2,4,3.6c0,1-0.2,1.8-0.6,2.4c0.4,0.6,0.6,1.4,0.6,2.4c0,2.4-1.3,3.7-4,3.7H454.4z"/>
	</g>
	<g id="text2903">
		<path id="path2948" class="st5" d="M543.8,495v-2c0-0.9-0.4-1.3-1.3-1.3h-5.3c-0.9,0-1.3,0.4-1.3,1.3v2H543.8z M535.8,497.7v3.3
			h-2.7v-8c0-2.7,1.3-4,4-4h5.3c2.7,0,4,1.3,4,4v8h-2.7v-3.3H535.8z"/>
	</g>
	<path id="L" class="st8" fill="none" d="M63.2,408.3l-5.5,5.5l-5.5,5.5l5.5,5.5l5.5,5.5V427h11v-15.3h-11V408.3z"/>
	<path id="R" class="st8" fill="none" d="M139.7,408.3l5.5,5.5l5.5,5.5l-5.5,5.5l-5.5,5.5V427h-11v-15.3h11V408.3z"/>
	<path id="U" class="st8" fill="none" d="M112.3,380.7l-5.5-5.5l-5.5-5.5l-5.5,5.5l-5.5,5.5h3.3v11H109v-11H112.3z"/>
	<path id="D" class="st8" fill="none" d="M112.3,458.3l-5.5,5.5l-5.5,5.5l-5.5-5.5l-5.5-5.5h3.3v-11H109v11H112.3z"/>
	<path id="path3763" class="st9" d="M114.6,419.1c0,7.3-5.9,13.1-13.1,13.2c-7.3,0-13.1-5.9-13.2-13.1c0,0,0,0,0,0
		c0-7.3,5.9-13.1,13.1-13.2C108.8,406,114.6,411.8,114.6,419.1C114.6,419.1,114.6,419.1,114.6,419.1z"/>
	<path id="back" fill="#1A1A1A" d="M228.2,442.3h24.4c5.3,0,9.6,3.4,9.6,7.7l0,0c0,4.3-4.3,7.7-9.6,7.7h-24.4
		c-5.3,0-9.6-3.4-9.6-7.7l0,0C218.6,445.7,222.9,442.3,228.2,442.3z"/>
	<path id="start" fill="#1A1A1A" d="M312.2,442.3h24.4c5.3,0,9.6,3.4,9.6,7.7l0,0c0,4.3-4.3,7.7-9.6,7.7h-24.4
		c-5.3,0-9.6-3.4-9.6-7.7l0,0C302.6,445.7,306.9,442.3,312.2,442.3z"/>
	<g id="disconnected">
		<path id="disconnected_rect" class="st5" d="M8.1,270.1c-4.5,0-8.2,3.6-8.2,8.2
			v235.6c0,4.5,3.6,8.2,8.2,8.2H604c4.5,0,8-3.6,8-8.2V278.2c0-4.5-3.4-8.2-8-8.2H8.1L8.1,270.1z M15.9,312"/>
		<g id="disconnected_text" class="st11">
			<path d="M164.4,385.7c0,3.2-1,5.8-2.9,7.6c-1.9,1.8-4.5,2.8-7.8,2.8H137v-55h16.8c3.3,0,5.8,0.9,7.8,2.8
				c1.9,1.9,2.9,4.4,2.9,7.6V385.7z M156.1,384.3v-31.6c0-3.1-1.6-4.6-4.8-4.6h-6.1V389h5.9C154.5,389,156.1,387.4,156.1,384.3z"/>
			<path d="M178.5,355.4h-8.1v-8.3h8.1V355.4z M178.5,396h-7.9v-35.5h7.9V396z"/>
			<path d="M206.8,391.6c0,2.9-1.5,4.4-4.5,4.4h-13.5c-3,0-4.5-1.5-4.5-4.4V384h7.7v6h7.1v-5.6l-12.3-7.3
				c-1.6-1-2.4-2.3-2.4-3.9v-8.3c0-2.9,1.5-4.4,4.5-4.4h13.4c3,0,4.5,1.5,4.5,4.4v7.1h-7.6v-5.5H192v5.1l12.3,7.2
				c1.6,0.9,2.5,2.3,2.5,3.9V391.6z"/>
			<path d="M235.3,391.6c0,2.9-1.5,4.4-4.5,4.4h-14c-3,0-4.5-1.5-4.5-4.4v-26.7c0-2.9,1.5-4.4,4.5-4.4h14
				c3,0,4.5,1.5,4.5,4.4v8.4h-7.8v-6.1h-7.2v22.1h7.2v-6.8h7.8V391.6z"/>
			<path d="M264.5,391.6c0,2.9-1.5,4.4-4.5,4.4h-14.4c-3,0-4.5-1.5-4.5-4.4v-26.7c0-2.9,1.5-4.4,4.5-4.4h14.4
				c3,0,4.5,1.5,4.5,4.4V391.6z M256.6,389.3v-22.1H249v22.1H256.6z"/>
			<path d="M294,396h-8.1v-28.8l-7.6,0.1V396h-8.1v-35.5h8.1v1.3c1.9-0.3,3.7-0.6,5.6-0.9c2.3-0.4,4.2-0.6,5.7-0.6
				c2.9,0,4.4,1.4,4.4,4.3V396z"/>
			<path d="M323.5,396h-8.1v-28.8l-7.6,0.1V396h-8.1v-35.5h8.1v1.3c1.9-0.3,3.7-0.6,5.6-0.9c2.3-0.4,4.2-0.6,5.7-0.6
				c2.9,0,4.4,1.4,4.4,4.3V396z"/>
			<path d="M352.2,391.6c0,2.9-1.5,4.4-4.5,4.4h-13.9c-3,0-4.5-1.5-4.5-4.4v-26.7c0-2.9,1.5-4.4,4.5-4.4h13.9
				c3,0,4.5,1.5,4.5,4.4v13l-2.2,2.2h-13v9.9h7.6v-5.9h7.7V391.6z M344.5,374.9v-8.5h-7.6v8.5H344.5z"/>
			<path d="M381,391.6c0,2.9-1.5,4.4-4.5,4.4h-14c-3,0-4.5-1.5-4.5-4.4v-26.7c0-2.9,1.5-4.4,4.5-4.4h14
				c3,0,4.5,1.5,4.5,4.4v8.4h-7.8v-6.1h-7.2v22.1h7.2v-6.8h7.8V391.6z"/>
			<path d="M402.1,396h-8.9c-3,0-4.5-1.5-4.5-4.4v-24.3h-3.8v-6.9h3.8v-9.6h8v9.6h5.2v6.9h-5.2v21.8h5.4V396z"/>
			<path d="M429.5,391.6c0,2.9-1.5,4.4-4.5,4.4h-13.9c-3,0-4.5-1.5-4.5-4.4v-26.7c0-2.9,1.5-4.4,4.5-4.4H425
				c3,0,4.5,1.5,4.5,4.4v13l-2.2,2.2h-13v9.9h7.6v-5.9h7.7V391.6z M421.8,374.9v-8.5h-7.6v8.5H421.8z"/>
			<path d="M458.9,396h-8v-1.2c-5.4,1-8.5,1.4-9.1,1.4c-2,0-3.6-0.6-4.7-1.8c-1.1-1.2-1.7-2.8-1.7-4.8v-22
				c0-2.9,1-4.9,3.1-6c1.5-0.8,3.8-1.3,6.8-1.3c0.7,0,1.7,0,3,0.1c1.3,0,2.2,0.1,2.7,0.1V341h8V396z M450.9,389.1v-21.9h-5
				c-1.8,0-2.7,0.9-2.7,2.7v17c0,1.7,0.8,2.6,2.5,2.6C446.2,389.5,447.9,389.4,450.9,389.1z"/>
			<path d="M54,436.7c0,1.7-0.8,2.5-2.5,2.5h-8.6c-1.6,0-2.4-0.8-2.4-2.5v-22.5c0-1.7,0.8-2.5,2.4-2.5h8.6
				c1.7,0,2.5,0.8,2.5,2.5v6.4h-4.1v-5.4h-5.3v20.4h5.3v-5.8H54V436.7z"/>
			<path d="M68.7,437c0,1.5-0.7,2.2-2.2,2.2h-7.2c-1.5,0-2.3-0.7-2.3-2.2v-13.4c0-1.5,0.8-2.2,2.3-2.2h7.2
				c1.5,0,2.2,0.7,2.2,2.2V437z M64.8,435.9v-11.1H61v11.1H64.8z"/>
			<path d="M83.5,439.2h-4v-14.4l-3.8,0.1v14.3h-4v-17.8h4v0.7c0.9-0.2,1.9-0.3,2.8-0.4c1.1-0.2,2.1-0.3,2.8-0.3
				c1.5,0,2.2,0.7,2.2,2.2V439.2z"/>
			<path d="M98.2,439.2h-4v-14.4l-3.8,0.1v14.3h-4v-17.8h4v0.7c0.9-0.2,1.9-0.3,2.8-0.4c1.1-0.2,2.1-0.3,2.8-0.3
				c1.5,0,2.2,0.7,2.2,2.2V439.2z"/>
			<path d="M112.6,437c0,1.5-0.8,2.2-2.3,2.2h-6.9c-1.5,0-2.3-0.7-2.3-2.2v-13.4c0-1.5,0.8-2.2,2.3-2.2h6.9
				c1.5,0,2.3,0.7,2.3,2.2v6.5l-1.1,1.1H105v5h3.8v-3h3.8V437z M108.7,428.7v-4.3H105v4.3H108.7z"/>
			<path d="M127,437c0,1.5-0.7,2.2-2.2,2.2h-7c-1.5,0-2.3-0.7-2.3-2.2v-13.4c0-1.5,0.8-2.2,2.3-2.2h7
				c1.5,0,2.2,0.7,2.2,2.2v4.2h-3.9v-3.1h-3.6v11.1h3.6v-3.4h3.9V437z"/>
			<path d="M137.5,439.2h-4.5c-1.5,0-2.2-0.7-2.2-2.2v-12.1h-1.9v-3.4h1.9v-4.8h4v4.8h2.6v3.4h-2.6v10.9h2.7V439.2z"/>
			<path d="M158.6,439.2h-3.8v-0.6c-0.9,0.1-1.8,0.3-2.7,0.4c-1.2,0.2-2.1,0.3-2.7,0.3c-1.5,0-2.2-0.7-2.2-2.2v-6.4
				c0-1.5,0.8-2.2,2.3-2.2h5.4v-4.1H151v2.5h-3.6v-3.3c0-1.5,0.8-2.2,2.3-2.2h6.8c1.5,0,2.2,0.7,2.2,2.2V439.2z M154.8,436v-4.8H151
				v4.9L154.8,436z"/>
			<path d="M180.4,437c0,1.5-0.7,2.2-2.2,2.2h-7c-1.5,0-2.3-0.7-2.3-2.2v-13.4c0-1.5,0.8-2.2,2.3-2.2h7
				c1.5,0,2.2,0.7,2.2,2.2v4.2h-3.9v-3.1h-3.6v11.1h3.6v-3.4h3.9V437z"/>
			<path d="M195,437c0,1.5-0.7,2.2-2.2,2.2h-7.2c-1.5,0-2.3-0.7-2.3-2.2v-13.4c0-1.5,0.8-2.2,2.3-2.2h7.2
				c1.5,0,2.2,0.7,2.2,2.2V437z M191.1,435.9v-11.1h-3.8v11.1H191.1z"/>
			<path d="M209.7,439.2h-4v-14.4l-3.8,0.1v14.3h-4v-17.8h4v0.7c0.9-0.2,1.9-0.3,2.8-0.4c1.1-0.2,2.1-0.3,2.8-0.3
				c1.5,0,2.2,0.7,2.2,2.2V439.2z"/>
			<path d="M220.3,439.2h-4.5c-1.5,0-2.2-0.7-2.2-2.2v-12.1h-1.9v-3.4h1.9v-4.8h4v4.8h2.6v3.4h-2.6v10.9h2.7V439.2z"/>
			<path d="M233.7,428.9h-4v-4.1l-3.2,0.1v14.3h-4v-17.8h4v0.7c0.8-0.2,1.7-0.3,2.5-0.5c1-0.2,1.8-0.3,2.5-0.3
				c1.5,0,2.2,0.7,2.2,2.2V428.9z"/>
			<path d="M247.7,437c0,1.5-0.7,2.2-2.2,2.2h-7.2c-1.5,0-2.3-0.7-2.3-2.2v-13.4c0-1.5,0.8-2.2,2.3-2.2h7.2
				c1.5,0,2.2,0.7,2.2,2.2V437z M243.8,435.9v-11.1h-3.8v11.1H243.8z"/>
			<path d="M254.7,439.2h-4v-27.5h4V439.2z"/>
			<path d="M261.7,439.2h-4v-27.5h4V439.2z"/>
			<path d="M276.2,437c0,1.5-0.8,2.2-2.3,2.2H267c-1.5,0-2.3-0.7-2.3-2.2v-13.4c0-1.5,0.8-2.2,2.3-2.2h6.9
				c1.5,0,2.3,0.7,2.3,2.2v6.5l-1.1,1.1h-6.5v5h3.8v-3h3.8V437z M272.3,428.7v-4.3h-3.8v4.3H272.3z"/>
			<path d="M290.3,428.9h-4v-4.1l-3.2,0.1v14.3h-4v-17.8h4v0.7c0.8-0.2,1.7-0.3,2.5-0.5c1-0.2,1.8-0.3,2.5-0.3
				c1.5,0,2.2,0.7,2.2,2.2V428.9z"/>
			<path d="M311.4,439.2h-3.8v-0.6c-0.9,0.1-1.8,0.3-2.7,0.4c-1.2,0.2-2.1,0.3-2.7,0.3c-1.5,0-2.2-0.7-2.2-2.2v-6.4
				c0-1.5,0.8-2.2,2.3-2.2h5.4v-4.1h-3.8v2.5h-3.6v-3.3c0-1.5,0.8-2.2,2.3-2.2h6.8c1.5,0,2.2,0.7,2.2,2.2V439.2z M307.6,436v-4.8
				h-3.8v4.9L307.6,436z"/>
			<path d="M326.1,439.2h-4v-14.4l-3.8,0.1v14.3h-4v-17.8h4v0.7c0.9-0.2,1.9-0.3,2.8-0.4c1.1-0.2,2.1-0.3,2.8-0.3
				c1.5,0,2.2,0.7,2.2,2.2V439.2z"/>
			<path d="M340.8,439.2h-4v-0.6c-2.7,0.5-4.2,0.7-4.6,0.7c-1,0-1.8-0.3-2.4-0.9S329,437,329,436v-11
				c0-1.4,0.5-2.4,1.5-3c0.8-0.4,1.9-0.6,3.4-0.6c0.3,0,0.8,0,1.5,0s1.1,0,1.4,0v-9.8h4V439.2z M336.8,435.8v-10.9h-2.5
				c-0.9,0-1.3,0.4-1.3,1.3v8.5c0,0.9,0.4,1.3,1.3,1.3C334.4,436,335.3,435.9,336.8,435.8z"/>
			<path d="M363,435.7c0,1.4-0.5,2.4-1.5,3c-0.8,0.4-1.9,0.6-3.4,0.6c-0.4,0-0.8,0-1.5,0s-1.1,0-1.4,0v6.5h-4v-24.2h4
				v0.7c0.9-0.1,1.9-0.3,2.8-0.4c1.2-0.2,2.1-0.3,2.8-0.3c1.5,0,2.2,0.7,2.2,2.2V435.7z M358.9,434.6v-9.7l-3.8,0.1v11h2.5
				C358.5,435.9,358.9,435.4,358.9,434.6z"/>
			<path d="M377,428.9h-4v-4.1l-3.2,0.1v14.3h-4v-17.8h4v0.7c0.8-0.2,1.7-0.3,2.5-0.5c1-0.2,1.8-0.3,2.5-0.3
				c1.5,0,2.2,0.7,2.2,2.2V428.9z"/>
			<path d="M390.8,437c0,1.5-0.8,2.2-2.3,2.2h-6.9c-1.5,0-2.3-0.7-2.3-2.2v-13.4c0-1.5,0.8-2.2,2.3-2.2h6.9
				c1.5,0,2.3,0.7,2.3,2.2v6.5l-1.1,1.1h-6.5v5h3.8v-3h3.8V437z M386.9,428.7v-4.3h-3.8v4.3H386.9z"/>
			<path d="M404.9,437c0,1.5-0.7,2.2-2.2,2.2h-6.8c-1.5,0-2.2-0.7-2.2-2.2v-3.8h3.8v3h3.5v-2.8l-6.2-3.6
				c-0.8-0.5-1.2-1.1-1.2-1.9v-4.1c0-1.5,0.8-2.2,2.3-2.2h6.7c1.5,0,2.2,0.7,2.2,2.2v3.6H401v-2.7h-3.5v2.6l6.2,3.6
				c0.8,0.5,1.2,1.1,1.2,2V437z"/>
			<path d="M418.8,437c0,1.5-0.7,2.2-2.2,2.2h-6.8c-1.5,0-2.2-0.7-2.2-2.2v-3.8h3.8v3h3.5v-2.8l-6.2-3.6
				c-0.8-0.5-1.2-1.1-1.2-1.9v-4.1c0-1.5,0.8-2.2,2.3-2.2h6.7c1.5,0,2.2,0.7,2.2,2.2v3.6H415v-2.7h-3.5v2.6l6.2,3.6
				c0.8,0.5,1.2,1.1,1.2,2V437z"/>
			<path d="M440.5,439.2h-3.8v-0.6c-0.9,0.1-1.8,0.3-2.7,0.4c-1.2,0.2-2.1,0.3-2.7,0.3c-1.5,0-2.2-0.7-2.2-2.2v-6.4
				c0-1.5,0.8-2.2,2.3-2.2h5.4v-4.1h-3.8v2.5h-3.6v-3.3c0-1.5,0.8-2.2,2.3-2.2h6.8c1.5,0,2.2,0.7,2.2,2.2V439.2z M436.7,436v-4.8
				h-3.8v4.9L436.7,436z"/>
			<path d="M455.2,439.2h-4v-14.4l-3.8,0.1v14.3h-4v-17.8h4v0.7c0.9-0.2,1.9-0.3,2.8-0.4c1.1-0.2,2.1-0.3,2.8-0.3
				c1.5,0,2.2,0.7,2.2,2.2V439.2z"/>
			<path d="M470.1,421.5l-4.4,17.5l-1.7,6.7h-4.1l1.8-6.6l-4.5-17.6h4.1l2.3,11.7l2.3-11.7H470.1z"/>
			<path d="M491.4,435.7c0,1.1-0.3,2-1,2.6s-1.6,0.9-2.7,0.9h-8.2v-27.5h4v10.4c0.9-0.1,1.9-0.3,2.8-0.4
				c1.2-0.2,2.1-0.3,2.8-0.3c1.5,0,2.2,0.7,2.2,2.2V435.7z M487.3,434.6v-9.7l-3.8,0.1v11h2.5C486.9,435.9,487.3,435.4,487.3,434.6z
				"/>
			<path d="M506.1,439.2h-4v-0.6c-0.9,0.2-1.9,0.3-2.8,0.5c-1.1,0.2-2.1,0.3-2.8,0.3c-1.5,0-2.2-0.7-2.2-2.2v-15.7h4
				v14.4l3.8-0.1v-14.3h4V439.2z"/>
			<path d="M516.7,439.2h-4.5c-1.5,0-2.2-0.7-2.2-2.2v-12.1h-1.9v-3.4h1.9v-4.8h4v4.8h2.6v3.4H514v10.9h2.7V439.2z"/>
			<path d="M526.6,439.2h-4.5c-1.5,0-2.2-0.7-2.2-2.2v-12.1H518v-3.4h1.9v-4.8h4v4.8h2.6v3.4h-2.6v10.9h2.7V439.2z"/>
			<path d="M540.5,437c0,1.5-0.7,2.2-2.2,2.2h-7.2c-1.5,0-2.3-0.7-2.3-2.2v-13.4c0-1.5,0.8-2.2,2.3-2.2h7.2
				c1.5,0,2.2,0.7,2.2,2.2V437z M536.6,435.9v-11.1h-3.8v11.1H536.6z"/>
			<path d="M555.3,439.2h-4v-14.4l-3.8,0.1v14.3h-4v-17.8h4v0.7c0.9-0.2,1.9-0.3,2.8-0.4c1.1-0.2,2.1-0.3,2.8-0.3
				c1.5,0,2.2,0.7,2.2,2.2V439.2z"/>
		</g>
	</g>
</g>
</svg>
