<?xml version="1.0" encoding="utf-8"?>
<!-- Generator: Adobe Illustrator 25.4.1, SVG Export Plug-In . SVG Version: 6.00 Build 0)  -->
<svg version="1.1" id="Layer_2_00000038394828286812012990000015456588105921984156_"
	 xmlns="http://www.w3.org/2000/svg" xmlns:xlink="http://www.w3.org/1999/xlink" x="0px" y="0px" viewBox="0 0 1147 593.7"
	 style="enable-background:new 0 0 1147 593.7;" xml:space="preserve">
<style type="text/css">
	.st0{fill:#181818;stroke:#7F7F7F;stroke-width:0.75;stroke-miterlimit:10;}
	.st1{fill:#020304;stroke:#898989;stroke-width:0.25;stroke-miterlimit:10;}
	.st2{fill:#27272B;stroke:#898989;stroke-width:0.25;stroke-miterlimit:10;}
	.st3{fill:#27272B;}
	.st4{fill:#2894FF;stroke:#333333;stroke-width:4;stroke-miterlimit:3.9967;}
	.st5{fill:#B4B5B6;}
	.st6{fill:#D3D3D4;}
	.st7{fill:#909090;stroke:#333333;stroke-width:2;stroke-miterlimit:10;}
	.st8{fill:#909090;stroke:#333333;stroke-width:2;stroke-miterlimit:3.9967;}
	.st9{fill:none;stroke:#333333;stroke-width:2;stroke-miterlimit:10;}
	.st10{fill:#27272B;stroke:#333333;stroke-width:3;stroke-miterlimit:3.9967;}
	.st11{fill:none;stroke:#333333;stroke-width:3;stroke-miterlimit:3.9967;}
	.st12{fill:none;stroke:#333333;stroke-width:3;stroke-linejoin:round;stroke-miterlimit:5.4259;}
	.st13{fill:none;stroke:#7F7F7F;stroke-width:0.75;stroke-miterlimit:10;}
	.st14{fill:#FF0000;stroke:#7F7F7F;stroke-width:0.25;stroke-miterlimit:10;}
	.st15{fill:#FFFFFF;}
  .st16{fill:#454545;stroke:#898989;stroke-width:0.25;stroke-miterlimit:10;}
  .st17{fill:#121314;stroke:#7F7F7F;stroke-width:0.75;stroke-miterlimit:10;}
  .pressed{fill:#FFFFFF;}
</style>
<g>
	<path class="st0" d="M36.8,269.6C20.2,299-33.6,432.3,39.5,519.1c25.9,30.7,75.8,73.8,135.1,74.6c57,0.8,81.7-22.8,126.3-52.1
		c92-60.4,194.5-72,257.7-79.3c38.6-4.5,121.4,1.7,218.8,42c73.4,30.3,87.4,46.4,116,66.5c27.4,19.3,100.6,33,168.3-6.2
		c82.5-47.8,87.1-148.5,84.8-169.7c-6.7-62-22.8-108.5-38.9-137.7C1019.6,97,841.5,43,792.6,29.3C694.4,1.8,627.9,3.1,577,2.1
		c-45.6-0.9-126.8,6.1-221,28.1C202.8,66,88.8,177.3,36.8,269.6z"/>
	<g>
		<path class="st17" d="M121.6,398.1c61.6,83.7,201.9,71.1,283.8-8.4c73-70.8,105.3-179.5,48.8-250.7c-54.7-69-174.1-64-267.1,5.9
			C89.6,218.2,67,323.8,121.6,398.1z"/>
		<path class="st17" d="M1003.5,175.7c79.6,93.3,77.2,201.6,2.8,256.2c-95.4,70-250.9,28.2-316.4-67.9
			c-59.5-87.2-78.8-199.3,17.2-261.4C782.6,53.7,931.6,91.5,1003.5,175.7z"/>
		<path class="st17" d="M744.4,141.6c74.7-41.2,181.1-4.3,229.8,53.1c9.4,11.1,52.9,70.3,32.7,134c-10.6,33.4-34,53-41.4,58.7
			c-62.7,48.4-178.9,34.6-249.9-41.7C655.2,280.9,664.8,185.6,744.4,141.6z"/>
		<path class="st17" d="M144.6,253.8c-24,64.8,9.9,138.4,93.7,150.4c28.8,4.1,48.8-0.7,70.3-6c33.6-8.4,67.8-28.7,95.3-61.8
			c57.3-68.8,45.5-157.9,2.8-191.3C346.1,97.6,200.2,104,144.6,253.8z"/>
	</g>
	<circle class="st1" cx="286.2" cy="253.9" r="117.7"/>
	<g>
		<path id="path3825" class="st2" d="M391.2,253.8c0,58.3-47.3,105.6-105.6,105.6S180,312,180,253.8s47.3-105.6,105.6-105.6
			S391.2,195.5,391.2,253.8z"/>
		<path id="path3834" class="st2" d="M308.6,165c0,50.6,16,65.8,65.8,65.8"/>
		<path id="path3853" class="st2" d="M374.4,276.5c-50.6,0-65.8,16-65.8,65.8"/>
		<path id="path3855" class="st2" d="M262.7,342.5c0-50.6-16-65.8-65.8-65.8"/>
		<path id="path3857" class="st2" d="M196.9,231c50.6,0,65.8-16,65.8-65.8"/>
		<path id="path3859" class="st16" d="M337.7,196.5l10.1,9.7l6.6-16.5L337.7,196.5z"/>
		<path id="path3859-3" class="st16" d="M344.3,304.6l-9.7,10.1l16.5,6.6L344.3,304.6z"/>
		<path id="path3859-3-1" class="st16" d="M236.7,312.2l-10.1-9.7L220,319L236.7,312.2z"/>
		<path id="path3859-3-7" class="st16" d="M228.6,204l9.7-10.1l-16.5-6.6L228.6,204z"/>
		<path id="rect3829" class="st2" d="M267,160c-2.3,0-4.2,1.9-4.2,4.2v66.5h-66.6c-2.3,0-4.2,1.9-4.2,4.2v37.4
			c0,2.3,1.9,4.2,4.2,4.2h66.5V343c0,2.3,1.9,4.2,4.2,4.2h37.4c2.3,0,4.2-1.9,4.2-4.2v-66.5H375c2.3,0,4.2-1.9,4.2-4.2v-37.4
			c0-2.3-1.9-4.2-4.2-4.2h-66.5v-66.5c0-2.3-1.9-4.2-4.2-4.2H267L267,160z"/>
		<g>
			<path id="R" class="st3" d="M340.3,243.7l0.2,16.4l21.4-8.2L340.3,243.7z"/>
			<path id="L" class="st3" d="M211,251.8l21.4,8.2l0.2-16.4L211,251.8z"/>
			<path id="U" class="st3" d="M278.3,198.1l16.4-0.2l-8.2-21.4L278.3,198.1z"/>
			<path id="D" class="st3" d="M286.5,327.3l8.2-21.4l-16.4-0.2L286.5,327.3z"/>
		</g>
		<path id="path3827" class="st2" d="M308.2,251.8c0,11.7-9.6,21.2-21.2,21.2s-21.2-9.6-21.2-21.2s9.6-21.2,21.2-21.2
			C298.7,230.6,308.2,240.2,308.2,251.8z"/>
	</g>
	<path id="start" class="st4" d="M597.6,243.6c8.8-1.1,13.6-7.8,13-17.7c-0.4-7.6-5-14.7-11.9-15.8l-79.3,0.1
		c-6.4,2-9.6,7.7-10.6,13.7c-1.5,8.8,3.6,19.1,10.8,20.1L597.6,243.6z"/>
	<g>
		<path class="st5" d="M527.8,269.9l2-2.4c1.1,1,2.6,1.6,3.8,1.6c1.5,0,2.2-0.6,2.2-1.5c0-1-0.9-1.3-2.3-1.9l-2-0.9
			c-1.6-0.7-3.2-2-3.2-4.3c0-2.6,2.3-4.7,5.6-4.7c1.8,0,3.7,0.7,5,2l-1.8,2.2c-1-0.8-2-1.2-3.2-1.2s-2,0.5-2,1.4c0,1,1,1.3,2.4,1.9
			l2,0.8c1.9,0.8,3.1,2,3.1,4.3c0,2.6-2.2,4.8-5.9,4.8C531.6,272.2,529.4,271.4,527.8,269.9z"/>
		<path class="st5" d="M545.3,259.2H541v-3h12.1v3h-4.3v12.7h-3.5V259.2z"/>
		<path class="st5" d="M558.1,256.3h4.2l4.9,15.6h-3.7l-2-7.9c-0.4-1.6-0.9-3.4-1.3-5h-0.1c-0.4,1.7-0.8,3.5-1.2,5l-2.1,7.9h-3.6
			L558.1,256.3z M556.4,265.4h7.5v2.7h-7.5V265.4z"/>
		<path class="st5" d="M569.3,256.3h5.6c3.3,0,6,1.2,6,4.9c0,3.6-2.7,5.1-6,5.1h-2.1v5.6h-3.5V256.3z M574.6,263.5
			c1.9,0,2.9-0.8,2.9-2.3s-1-2.1-2.9-2.1h-1.8v4.4H574.6z M574.3,265.3l2.4-2.3l5,8.8h-4L574.3,265.3z"/>
		<path class="st5" d="M587.2,259.2h-4.3v-3H595v3h-4.3v12.7h-3.5V259.2z"/>
	</g>
	<g transform="matrix(1.2 0 0 1.2 100 140.261)">
		<g>
			<path class="st6" d="M328.7-5h15.5c6.3,0,11.5-5.1,11.5-11.4s-5.1-11.4-11.5-11.4h-4c-0.3,0-0.6-0.3-0.6-0.6
				c0-0.3,0.3-0.6,0.6-0.6h15.4v-4.8h-15.4c-3,0-5.4,2.4-5.4,5.4s2.4,5.4,5.4,5.4l4,0.1c3.6,0,6.6,2.9,6.6,6.5s-2.9,6.5-6.6,6.5
				h-15.5V-5z"/>
			<path class="st6" d="M328.7-11.1h15.5c3,0,5.4-2.4,5.4-5.4s-2.4-5.4-5.4-5.4h-4c-3.6,0-6.6-2.9-6.6-6.5s2.9-6.5,6.6-6.5h15.4
				v-4.9h-15.4c-6.3,0-11.5,5.1-11.5,11.4S333.8-17,340.1-17h4c0.3,0,0.6,0.2,0.6,0.6c0,0.3-0.3,0.6-0.6,0.6h-15.4V-11.1z"/>
			<path class="st6" d="M367.6-9.9c-2.7,0-4.9-2.1-4.9-4.9v-15.4c0-2.6,2.2-4.8,4.9-4.8h16.5v-4.9h-16.5c-5.4,0-9.7,4.3-9.7,9.7
				v15.4c0,5.4,4.4,9.7,9.7,9.7H384v-4.8L367.6-9.9z"/>
			<path class="st6" d="M363.9-30.2c0-2,1.6-3.7,3.7-3.7h16.5v4.9h-14.2c-1.1,0-1.2,1.1-1.2,1.1h11.9v4.8h-16.7L363.9-30.2z"/>
			<path class="st6" d="M367.6-11.1c-2,0-3.7-1.6-3.7-3.7v-7.1h16.7v4.8h-11.9c0,1.1,1.2,1.1,1.2,1.1H384v4.8L367.6-11.1z"/>
			<path class="st6" d="M395.7-9.9c-2.7,0-4.9-2.2-4.9-4.9v-15.4c0-2.7,2.2-4.8,4.8-4.8h16v-4.8h-16c-5.4,0-9.7,4.3-9.7,9.7v15.4
				c0,5.4,4.4,9.7,9.8,9.7h16v-22.8H398v4.8h8.9v13.1H395.7z"/>
			<path class="st6" d="M391.9-14.8c0,2.1,1.7,3.7,3.7,3.7h10v-10.8h-7.7v4.9h2.9v1.1h-2.9c-0.6,0-1.1-0.5-1.1-1.1v-10.8
				c0,0,0-1.1,1.1-1.2h13.7v-4.8h-16c-2,0-3.7,1.7-3.7,3.7V-14.8"/>
			<path class="st6" d="M426.7-33.9c0.2-0.6,0.8-1.1,1.5-1.1s1.3,0.4,1.5,1.1l7.8,22.9H426v-5.4h3.8l-1.7-5.1l-5.6,16.4h-5.7
				L426.7-33.9z"/>
			<path class="st6" d="M439-9.9h-12.9v4.8h19.6l-10.2-30.2c-0.9-2.9-3.8-5.1-7.3-5.1s-6.4,2.2-7.3,5.1L410.5-5.1h5.1l10-29.4
				c0.4-1,1.4-1.7,2.5-1.7s2.1,0.7,2.5,1.7L439-9.9z"/>
		</g>
	</g>
	<g>
		<circle id="X" class="st7" cx="729.1" cy="229.6" r="34.9"/>
		<circle id="Y" class="st7" cx="823.8" cy="186.3" r="34.9"/>
		<circle id="lBumper" class="st7" cx="920.1" cy="162" r="34.9"/>
		<g>
			<polyline class="st8" points="715.2,222.6 729.1,223 734.3,210.7 723,237.7 729.1,223 745.6,223.2 			"/>
			<path class="st9" d="M907.4,152.3l24.4-6.2c0.5-0.1,0.8,0.5,0.5,0.9l-20.1,18c-0.4,0.4,0,1,0.5,0.9l25.2-6.8"/>
			<polyline class="st9" points="809.5,179 826,181.7 829.8,189.3 826,181.7 834.3,167.4 			"/>
		</g>
	</g>
	<g>
		<circle id="A" class="st10" cx="768.2" cy="349.2" r="49"/>
		<circle id="B" class="st10" cx="870.3" cy="293.7" r="49"/>
		<circle id="rBumper" class="st10" cx="983.1" cy="263.1" r="49"/>
		<g>
			<polyline class="st11" points="759.3,366.8 762.9,336.5 793,344.6 			"/>
			<line class="st11" x1="760.5" y1="356.5" x2="782.2" y2="341.7"/>
			<polyline class="st11" points="997.8,247.1 969.4,250.3 971.5,267.9 1002,264.8 			"/>
			<path id="path4133" class="st12" d="M882.2,285.1c7.6-3.1,3.1-11.8-4.3-8.8l-22.8,9.2l0,0l8.2,17.5l0,0l22.6-9.2
				C893.5,290.6,889.4,282.1,882.2,285.1l-23,9.2"/>
		</g>
	</g>
	<path class="st13" d="M356,30.2l38.8,30c46.9-11,108.5-20.8,181-20.5C645.1,40,707.5,47.1,753,57.8l39.5-28.5"/>
	<path id="back" class="st0" d="M816.5,36.4c-3.6-2.4,18.1,0.1,21.8,1.2c10,3,25.6,9.9,42.3,16.4c10.7,4.1,21.4,9.6,32.6,15.6
		c40,21.4,100.8,60.8,89.8,64.5c-1.4,0.5-34.8-26.6-92.7-58.1C861.4,49.4,817.1,36.9,816.5,36.4z"/>
</g>
<g id="disconnected">
	<path id="disconnected_outline" class="st14" d="M37,270.2c-16.6,29.4-70.4,162.7,2.7,249.5c25.9,30.7,75.8,73.8,135.1,74.6
		c57,0.8,81.7-22.8,126.3-52.1c92-60.4,194.5-72,257.7-79.3c38.6-4.5,121.4,1.7,218.8,42c73.4,30.3,87.4,46.4,116,66.5
		c27.4,19.3,100.6,33,168.3-6.2c82.5-47.8,87.1-148.5,84.8-169.7c-6.7-62-22.8-108.5-38.9-137.7c-88-160.2-266.1-214.2-315-227.9
		C694.6,2.4,628.1,3.7,577.2,2.7c-45.6-0.9-126.8,6.1-221,28.1C203,66.6,89,177.9,37,270.2z"/>
	<path id="disconnected_back" class="st14" d="M816.5,36.4c-3.6-2.4,18.1,0.1,21.8,1.2c10,3,25.6,9.9,42.3,16.4
		c10.7,4.1,21.4,9.6,32.6,15.6c40,21.4,100.8,60.8,89.8,64.5c-1.4,0.5-34.8-26.6-92.7-58.1C861.4,49.4,817.1,36.9,816.5,36.4z"/>
	<g id="disconnected_text">
		<path class="st15" d="M375,287c0,4.7-1.6,8.6-4.4,11.4c-2.8,2.6-6.7,4.2-11.6,4.2h-25v-82.3h25.2c4.9,0,8.6,1.4,11.6,4.2
			c2.8,2.8,4.4,6.5,4.4,11.4L375,287L375,287z M362.5,284.9v-47.3c0-4.6-2.5-6.9-7.2-6.9h-9.1v61.2h8.8
			C360.2,291.9,362.5,289.4,362.5,284.9z"/>
		<path class="st15" d="M396.1,241.6h-12.1v-12.5h12.1V241.6z M396.1,302.3h-11.8v-53.1h11.8V302.3z"/>
		<path class="st15" d="M438.3,295.8c0,4.4-2.3,6.5-6.7,6.5h-20.2c-4.6,0-6.7-2.3-6.7-6.5v-11.4h11.4v9h10.6v-8.4l-18.5-10.9
			c-2.5-1.6-3.5-3.5-3.5-5.8v-12.3c0-4.4,2.3-6.5,6.7-6.5h20.1c4.6,0,6.7,2.3,6.7,6.5v10.6h-11.4v-8.3h-10.6v7.6l18.5,10.7
			c2.5,1.4,3.7,3.5,3.7,5.8L438.3,295.8L438.3,295.8z"/>
		<path class="st15" d="M481,295.8c0,4.4-2.3,6.5-6.7,6.5h-20.9c-4.6,0-6.7-2.3-6.7-6.5v-39.9c0-4.4,2.3-6.5,6.7-6.5h20.8
			c4.6,0,6.7,2.3,6.7,6.5v12.5h-11.6v-9h-10.7v33.1h10.7v-10.2h11.6L481,295.8L481,295.8z"/>
		<path class="st15" d="M524.7,295.8c0,4.4-2.3,6.5-6.7,6.5h-21.5c-4.6,0-6.7-2.3-6.7-6.5v-39.9c0-4.4,2.3-6.5,6.7-6.5H518
			c4.6,0,6.7,2.3,6.7,6.5V295.8z M512.9,292.4v-33.1h-11.4v33.1H512.9z"/>
		<path class="st15" d="M568.6,302.3h-12.1v-42.9l-11.4,0.2v42.9h-12.1v-53.1h12.1v1.9c2.8-0.5,5.5-0.9,8.4-1.4
			c3.5-0.5,6.3-0.9,8.4-0.9c4.4,0,6.5,2.1,6.5,6.5v46.8L568.6,302.3L568.6,302.3z"/>
		<path class="st15" d="M612.8,302.3h-12.1v-42.9l-11.4,0.2v42.9h-12.1v-53.1h12.1v1.9c2.8-0.5,5.5-0.9,8.4-1.4
			c3.5-0.5,6.3-0.9,8.4-0.9c4.4,0,6.5,2.1,6.5,6.5v46.8L612.8,302.3L612.8,302.3z"/>
		<path class="st15" d="M655.7,295.8c0,4.4-2.3,6.5-6.7,6.5h-20.8c-4.6,0-6.7-2.3-6.7-6.5v-39.9c0-4.4,2.3-6.5,6.7-6.5H649
			c4.6,0,6.7,2.3,6.7,6.5v19.5l-3.3,3.3h-19.5v14.8h11.4v-8.8h11.4V295.8L655.7,295.8z M644.3,270.8v-12.7h-11.4v12.7H644.3z"/>
		<path class="st15" d="M698.8,295.8c0,4.4-2.3,6.5-6.7,6.5h-20.9c-4.6,0-6.7-2.3-6.7-6.5v-39.9c0-4.4,2.3-6.5,6.7-6.5h20.9
			c4.6,0,6.7,2.3,6.7,6.5v12.5h-11.6v-9h-10.7v33.1h10.7v-10.2h11.6V295.8z"/>
		<path class="st15" d="M730.3,302.3h-13.4c-4.6,0-6.7-2.3-6.7-6.5v-36.4h-5.6V249h5.6v-14.2h12v14.4h7.7v10.4h-7.7v32.5h8.1V302.3z
			"/>
		<path class="st15" d="M771.3,295.8c0,4.4-2.3,6.5-6.7,6.5h-20.8c-4.6,0-6.7-2.3-6.7-6.5v-39.9c0-4.4,2.3-6.5,6.7-6.5h20.8
			c4.6,0,6.7,2.3,6.7,6.5v19.5l-3.3,3.3h-19.3v14.8H760v-8.8h11.4L771.3,295.8L771.3,295.8z M759.9,270.8v-12.7h-11.4v12.7H759.9z"
			/>
		<path class="st15" d="M815.3,302.3h-12v-1.8c-8.1,1.6-12.7,2.1-13.5,2.1c-3,0-5.5-0.9-7-2.6c-1.6-1.8-2.5-4.2-2.5-7.2v-32.9
			c0-4.4,1.6-7.4,4.6-9c2.3-1.2,5.6-1.9,10.2-1.9c1.1,0,2.5,0,4.6,0.2c1.9,0,3.3,0.2,4,0.2v-29.2h12L815.3,302.3L815.3,302.3z
			 M803.3,292.1v-32.7h-7.6c-2.6,0-4,1.4-4,4v25.5c0,2.5,1.2,3.9,3.7,3.9C796.3,292.6,798.9,292.4,803.3,292.1z"/>
		<path class="st15" d="M209.8,363.1c0,2.5-1.2,3.7-3.7,3.7h-12.8c-2.5,0-3.5-1.2-3.5-3.7v-33.6c0-2.5,1.2-3.7,3.5-3.7h12.8
			c2.5,0,3.7,1.2,3.7,3.7v9.5h-6.2v-8.1h-7.9v30.4h7.9v-8.6h6.2V363.1z"/>
		<path class="st15" d="M231.8,363.7c0,2.3-1.1,3.3-3.3,3.3h-10.7c-2.3,0-3.5-1.1-3.5-3.3v-20.1c0-2.3,1.2-3.3,3.5-3.3h10.7
			c2.3,0,3.3,1.1,3.3,3.3V363.7z M226,362.1v-16.5h-5.6v16.5H226z"/>
		<path class="st15" d="M253.9,367h-6v-21.5l-5.6,0.2v21.5h-6v-26.9h6v1.1c1.4-0.4,2.8-0.5,4.2-0.5c1.6-0.4,3.2-0.5,4.2-0.5
			c2.3,0,3.3,1.1,3.3,3.3V367H253.9z"/>
		<path class="st15" d="M275.9,367h-6v-21.5l-5.6,0.2v21.5h-6v-26.9h6v1.1c1.4-0.4,2.8-0.5,4.2-0.5c1.6-0.4,3.2-0.5,4.2-0.5
			c2.3,0,3.3,1.1,3.3,3.3V367H275.9z"/>
		<path class="st15" d="M297.6,363.7c0,2.3-1.2,3.3-3.5,3.3h-10.4c-2.3,0-3.5-1.1-3.5-3.3v-20.1c0-2.3,1.2-3.3,3.5-3.3h10.4
			c2.3,0,3.5,1.1,3.5,3.3v9.7l-1.6,1.6h-9.7v7.6h5.6v-4.6h5.6C297.6,358,297.6,363.7,297.6,363.7z M291.6,351.2v-6.5h-5.5v6.5H291.6
			z"/>
		<path class="st15" d="M319,363.7c0,2.3-1.1,3.3-3.3,3.3h-10.6c-2.3,0-3.5-1.1-3.5-3.3v-20.1c0-2.3,1.2-3.3,3.5-3.3h10.6
			c2.3,0,3.3,1.1,3.3,3.3v6.3h-5.8v-4.6h-5.5v16.5h5.5v-5.1h5.8V363.7z"/>
		<path class="st15" d="M334.7,367H328c-2.3,0-3.3-1.1-3.3-3.3v-18.1h-2.8v-5.1h2.8v-7.2h6v7.2h3.9v5.1h-3.9v16.4h4V367z"/>
		<path class="st15" d="M366.3,367h-5.6v-0.9c-1.4,0.2-2.6,0.5-4,0.5c-1.8,0.4-3.2,0.5-4,0.5c-2.3,0-3.3-1.1-3.3-3.3v-9.5
			c0-2.3,1.2-3.3,3.5-3.3h8.1v-6.2h-5.8v3.7h-5.5v-4.9c0-2.3,1.2-3.3,3.5-3.3h10.2c2.3,0,3.3,1.1,3.3,3.3L366.3,367L366.3,367z
			 M360.5,362.1v-7.2h-5.6v7.4L360.5,362.1z"/>
		<path class="st15" d="M398.9,363.7c0,2.3-1.1,3.3-3.3,3.3H385c-2.3,0-3.5-1.1-3.5-3.3v-20.1c0-2.3,1.2-3.3,3.5-3.3h10.6
			c2.3,0,3.3,1.1,3.3,3.3v6.3h-5.8v-4.6h-5.5v16.5h5.5v-5.1h5.8V363.7z"/>
		<path class="st15" d="M420.7,363.7c0,2.3-1.1,3.3-3.3,3.3h-10.7c-2.3,0-3.5-1.1-3.5-3.3v-20.1c0-2.3,1.2-3.3,3.5-3.3h10.7
			c2.3,0,3.3,1.1,3.3,3.3V363.7z M414.9,362.1v-16.5h-5.8v16.5H414.9z"/>
		<path class="st15" d="M442.7,367h-6v-21.5l-5.6,0.2v21.5h-6v-26.9h6v1.1c1.4-0.4,2.8-0.5,4.2-0.5c1.6-0.4,3.2-0.5,4.2-0.5
			c2.3,0,3.3,1.1,3.3,3.3L442.7,367L442.7,367z"/>
		<path class="st15" d="M458.5,367h-6.7c-2.3,0-3.3-1.1-3.3-3.3v-18.1h-2.8v-5.1h2.8v-7.2h6v7.2h3.9v5.1h-3.9v16.4h4V367z"/>
		<path class="st15" d="M478.6,351.5h-6v-6.2l-4.7,0.2V367h-6v-26.7h6v1.1c1.2-0.4,2.5-0.5,3.7-0.7c1.6-0.4,2.6-0.5,3.7-0.5
			c2.3,0,3.3,1.1,3.3,3.3L478.6,351.5L478.6,351.5z"/>
		<path class="st15" d="M499.5,363.7c0,2.3-1.1,3.3-3.3,3.3h-10.7c-2.3,0-3.5-1.1-3.5-3.3v-20.1c0-2.3,1.2-3.3,3.5-3.3h10.7
			c2.3,0,3.3,1.1,3.3,3.3V363.7z M493.7,362.1v-16.5h-5.6v16.5H493.7z"/>
		<path class="st15" d="M509.9,367h-6v-41.2h6V367z"/>
		<path class="st15" d="M520.4,367h-6v-41.2h6V367z"/>
		<path class="st15" d="M542.1,363.7c0,2.3-1.2,3.3-3.5,3.3h-10.4c-2.3,0-3.5-1.1-3.5-3.3v-20.1c0-2.3,1.2-3.3,3.5-3.3h10.4
			c2.3,0,3.5,1.1,3.5,3.3v9.7l-1.6,1.6h-9.7v7.6h5.6v-4.6h5.6V363.7L542.1,363.7z M536.3,351.2v-6.5h-5.6v6.5H536.3z"/>
		<path class="st15" d="M563.2,351.5h-6v-6.2l-4.7,0.2V367h-6v-26.7h6v1.1c1.2-0.4,2.5-0.5,3.7-0.7c1.6-0.4,2.6-0.5,3.7-0.5
			c2.3,0,3.3,1.1,3.3,3.3L563.2,351.5L563.2,351.5z"/>
		<path class="st15" d="M594.7,367H589v-0.9c-1.4,0.2-2.6,0.5-4,0.5c-1.8,0.4-3.2,0.5-4,0.5c-2.3,0-3.3-1.1-3.3-3.3v-9.5
			c0-2.3,1.2-3.3,3.5-3.3h8.1v-6.2h-5.6v3.7h-5.5v-4.9c0-2.3,1.2-3.3,3.5-3.3h10.2c2.3,0,3.3,1.1,3.3,3.3V367H594.7L594.7,367z
			 M589,362.1v-7.2h-5.6v7.4L589,362.1z"/>
		<path class="st15" d="M616.7,367h-6v-21.5l-5.6,0.2v21.5h-6v-26.9h6v1.1c1.4-0.4,2.8-0.5,4.2-0.5c1.6-0.4,3.2-0.5,4.2-0.5
			c2.3,0,3.3,1.1,3.3,3.3L616.7,367L616.7,367z"/>
		<path class="st15" d="M638.7,367h-6v-0.9c-4,0.7-6.3,1.1-6.9,1.1c-1.6,0-2.6-0.5-3.5-1.4s-1.2-2.1-1.2-3.5v-16.5
			c0-2.1,0.7-3.5,2.3-4.6c1.2-0.5,2.8-0.9,5.1-0.9c0.5,0,1.2,0,2.3,0s1.6,0,2.1,0v-14.6h6L638.7,367L638.7,367z M632.7,361.9v-16.4
			H629c-1.4,0-1.9,0.5-1.9,1.9v12.7c0,1.4,0.5,1.9,1.9,1.9C629.2,362.1,630.6,362.1,632.7,361.9z"/>
		<path class="st15" d="M671.9,361.7c0,2.1-0.7,3.5-2.3,4.6c-1.2,0.5-2.8,0.9-5.1,0.9c-0.5,0-1.2,0-2.3,0s-1.6,0-2.1,0v9.7h-6v-36.2
			h6v1.1c1.4-0.2,2.8-0.5,4.2-0.5c1.8-0.4,3.2-0.5,4.2-0.5c2.3,0,3.3,1.1,3.3,3.3V361.7z M665.7,360.1v-14.6l-5.6,0.2v16.5h3.7
			C665.2,362.1,665.7,361.2,665.7,360.1z"/>
		<path class="st15" d="M692.8,351.5h-6v-6.2l-4.7,0.2V367h-6v-26.7h6v1.1c1.2-0.4,2.5-0.5,3.7-0.7c1.6-0.4,2.6-0.5,3.7-0.5
			c2.3,0,3.3,1.1,3.3,3.3V351.5z"/>
		<path class="st15" d="M713.4,363.7c0,2.3-1.2,3.3-3.5,3.3h-10.4c-2.3,0-3.5-1.1-3.5-3.3v-20.1c0-2.3,1.2-3.3,3.5-3.3h10.4
			c2.3,0,3.5,1.1,3.5,3.3v9.7l-1.6,1.6h-9.7v7.6h5.6v-4.6h5.6L713.4,363.7L713.4,363.7z M707.6,351.2v-6.5H702v6.5H707.6z"/>
		<path class="st15" d="M734.5,363.7c0,2.3-1.1,3.3-3.3,3.3H721c-2.3,0-3.3-1.1-3.3-3.3V358h5.6v4.6h5.3v-4.2l-9.3-5.5
			c-1.2-0.7-1.8-1.6-1.8-2.8V344c0-2.3,1.2-3.3,3.5-3.3h10c2.3,0,3.3,1.1,3.3,3.3v5.5h-5.6v-4h-5.3v3.9l9.3,5.5
			c1.2,0.7,1.8,1.6,1.8,3V363.7L734.5,363.7z"/>
		<path class="st15" d="M755.3,363.7c0,2.3-1.1,3.3-3.3,3.3h-10.2c-2.3,0-3.3-1.1-3.3-3.3V358h5.6v4.6h5.3v-4.2l-9.3-5.5
			c-1.2-0.7-1.8-1.6-1.8-2.8V344c0-2.3,1.2-3.3,3.5-3.3h10c2.3,0,3.3,1.1,3.3,3.3v5.5h-5.5v-4h-5.3v3.9l9.3,5.5
			c1.2,0.7,1.8,1.6,1.8,3L755.3,363.7L755.3,363.7z"/>
		<path class="st15" d="M787.8,367H782v-0.9c-1.4,0.2-2.6,0.5-4,0.5c-1.8,0.4-3.2,0.5-4,0.5c-2.3,0-3.3-1.1-3.3-3.3v-9.5
			c0-2.3,1.2-3.3,3.5-3.3h8.1v-6.2h-5.6v3.7h-5.5v-4.9c0-2.3,1.2-3.3,3.5-3.3h10.2c2.3,0,3.3,1.1,3.3,3.3V367H787.8L787.8,367z
			 M782,362.1v-7.2h-5.6v7.4L782,362.1z"/>
		<path class="st15" d="M809.8,367h-6v-21.5l-5.6,0.2v21.5h-6v-26.9h6v1.1c1.4-0.4,2.8-0.5,4.2-0.5c1.6-0.4,3.2-0.5,4.2-0.5
			c2.3,0,3.3,1.1,3.3,3.3L809.8,367L809.8,367z"/>
		<path class="st15" d="M832,340.4l-6.5,26.2l-2.5,10h-6.2l2.6-9.9l-6.7-26.4h6.2l3.5,17.4l3.5-17.4H832L832,340.4z"/>
		<path class="st15" d="M863.8,361.7c0,1.6-0.5,3-1.6,3.9c-1.1,0.9-2.5,1.4-4,1.4h-12.3v-41.2h6v15.5c1.4-0.2,2.8-0.5,4.2-0.5
			c1.8-0.4,3.2-0.5,4.2-0.5c2.3,0,3.3,1.1,3.3,3.3L863.8,361.7L863.8,361.7z M857.8,360.1v-14.6l-5.6,0.2v16.5h3.7
			C857.1,362.1,857.8,361.2,857.8,360.1z"/>
		<path class="st15" d="M885.8,367h-6v-0.9c-1.4,0.4-2.8,0.5-4.2,0.7c-1.6,0.4-3.2,0.5-4.2,0.5c-2.3,0-3.3-1.1-3.3-3.3v-23.4h6v21.5
			l5.6-0.2v-21.5h6L885.8,367L885.8,367z"/>
		<path class="st15" d="M901.8,367h-6.7c-2.3,0-3.3-1.1-3.3-3.3v-18.1H889v-5.1h2.8v-7.2h6v7.2h3.9v5.1h-3.9v16.4h4V367z"/>
		<path class="st15" d="M916.6,367h-6.7c-2.3,0-3.3-1.1-3.3-3.3v-18.1h-2.8v-5.1h2.8v-7.2h6v7.2h3.9v5.1h-3.9v16.4h4V367L916.6,367z
			"/>
		<path class="st15" d="M937.3,363.7c0,2.3-1.1,3.3-3.3,3.3h-10.7c-2.3,0-3.5-1.1-3.5-3.3v-20.1c0-2.3,1.2-3.3,3.5-3.3H934
			c2.3,0,3.3,1.1,3.3,3.3V363.7z M931.5,362.1v-16.5h-5.6v16.5H931.5z"/>
		<path class="st15" d="M959.5,367h-6v-21.5l-5.6,0.2v21.5h-6v-26.9h6v1.1c1.4-0.4,2.8-0.5,4.2-0.5c1.6-0.4,3.2-0.5,4.2-0.5
			c2.3,0,3.3,1.1,3.3,3.3L959.5,367L959.5,367z"/>
	</g>
</g>
</svg>
