<?xml version="1.0" encoding="utf-8"?>
<!-- Generator: Adobe Illustrator 25.4.1, SVG Export Plug-In . SVG Version: 6.00 Build 0)  -->
<svg version="1.1"
	 id="svg2" inkscape:version="0.48.0 r9654" sodipodi:docname="GenesisPad.svg" xmlns:cc="http://creativecommons.org/ns#" xmlns:dc="http://purl.org/dc/elements/1.1/" xmlns:inkscape="http://www.inkscape.org/namespaces/inkscape" xmlns:rdf="http://www.w3.org/1999/02/22-rdf-syntax-ns#" xmlns:sodipodi="http://sodipodi.sourceforge.net/DTD/sodipodi-0.dtd" xmlns:svg="http://www.w3.org/2000/svg"
	 xmlns="http://www.w3.org/2000/svg" xmlns:xlink="http://www.w3.org/1999/xlink" x="0px" y="0px" viewBox="0 0 650 318.2"
	 style="enable-background:new 0 0 650 318.2;" xml:space="preserve">
<style type="text/css">
	.st0{fill:#161616;}
	.st1{fill:none;stroke:#898989;stroke-width:0.4019;stroke-miterlimit:1.6076;}
	.st2{fill:#2894FF;}
	.st3{fill:none;stroke:#000000;stroke-width:1.2057;stroke-miterlimit:1.6076;}
	.st4{fill:none;stroke:#777777;stroke-width:1.2057;stroke-miterlimit:1.6076;}
	.st5{opacity:0.3957;fill:none;stroke:#777777;stroke-width:0.9476;stroke-miterlimit:1.2636;enable-background:new    ;}
	.st6{fill:none;stroke:#777777;stroke-width:1.2057;stroke-miterlimit:10;}
	.st7{fill:none;stroke:#6E6E6E;stroke-width:0.1467;stroke-miterlimit:7.3661;}
	.st8{fill:none;stroke:#5E5E5E;stroke-width:0.4099;stroke-linejoin:round;stroke-miterlimit:2.1703;}
	.st9{fill:#848484;}
	.st10{fill:#FFFFFF;}
	.st11{stroke:#626262;stroke-width:0.4167;stroke-miterlimit:1.6667;}
	.st12{fill:none;stroke:#AFAFAF;stroke-width:0.4019;stroke-miterlimit:2.1703;}
	.st13{fill:none;stroke:#FFFFFF;stroke-width:0.4019;stroke-miterlimit:2.1703;}
	.st14{fill:#161616;stroke:#D6D6D6;stroke-width:0.3743;stroke-miterlimit:1.4969;}
	.st15{fill:none;stroke:#ED0000;stroke-width:1.4067;stroke-linejoin:round;stroke-miterlimit:2.1703;}
	.st16{font-family:'ArialMT';}
	.st17{font-size:7.41px;}
	.st18{font-size:8.4433px;}
	.st19{fill:none;}
	.st20{font-size:8.5524px;}
	.st21{font-size:8.5527px;}
	.st22{fill:#FFFFFF;enable-background:new    ;}
	.st23{fill:none;stroke:#CDCDCD;stroke-width:0.4099;stroke-linejoin:round;stroke-miterlimit:2.1703;}
	.st24{fill-rule:evenodd;clip-rule:evenodd;fill:#FFFFFF;}
	.st25{fill-rule:evenodd;clip-rule:evenodd;}
	.st26{fill:none;stroke:#FFFFFF;stroke-width:1.4067;stroke-linejoin:round;stroke-miterlimit:2.1703;}
	.st27{fill:#161616;stroke:#777777;stroke-width:0.25;stroke-miterlimit:10;}
</style>
<defs>
	
		<inkscape:perspective  id="perspective7046" inkscape:persp3d-origin="311.94308 : 93.94222 : 1" inkscape:vp_x="0 : 140.91333 : 1" inkscape:vp_y="0 : 1000 : 0" inkscape:vp_z="623.88617 : 140.91333 : 1" sodipodi:type="inkscape:persp3d">
		</inkscape:perspective>
</defs>
<sodipodi:namedview  bordercolor="#666666" borderopacity="1.0" fit-margin-bottom="0" fit-margin-left="0" fit-margin-right="0" fit-margin-top="0" id="base" inkscape:current-layer="layer1" inkscape:cx="700.01877" inkscape:cy="395.52857" inkscape:document-units="px" inkscape:object-nodes="false" inkscape:object-paths="false" inkscape:pageopacity="0.0" inkscape:pageshadow="2" inkscape:window-height="1058" inkscape:window-maximized="1" inkscape:window-width="1839" inkscape:window-x="1272" inkscape:window-y="-8" inkscape:zoom="0.7" pagecolor="#ffffff" showgrid="false">
	</sodipodi:namedview>
<g id="layer1" transform="translate(45.426517,-398.62207)" inkscape:groupmode="layer" inkscape:label="Layer 1">
	<g id="g7764" transform="matrix(0.73660529,0,0,0.73660529,28.02204,169.86362)">
		<path id="path2996" inkscape:connector-curvature="0" class="st0" d="M279.6,365c-115.9,0.5-240,51.3-278,93.8
			c-60.5,67.6-29.9,175,25.6,236.9c24.5,27.4,46.8,40.6,66.5,41.9c19.7,1.3,42.3-9.8,49-26.3c12.5-30.7,31-55.1,69.1-65.1
			c24.3-6.4,34.5-11.4,70.9-11.3c1.7,0,3.3,0,4.8,0c1.2,0,2.4,0,3.7,0c37.1,0.8,47.1,6.1,71.5,13.1c37.8,10.9,55.8,35.8,67.5,66.8
			c6.3,16.6,28.6,28.3,48.3,27.5s42.3-13.5,67.5-40.3c57.1-60.6,90.2-167.2,31.5-236.2C539.4,421,409.8,365,290.7,365
			C287,365.1,283.3,365,279.6,365L279.6,365z"/>
		
			<path id="path3032" inkscape:original="M 609.84375 320.21875 C 607.2447 320.32059 604.63393 320.85268 602.15625 321.8125 L 576.8125 332.65625 L 573.40625 334.09375 L 542.875 347.8125 C 533.37477 352.57779 530.08033 362.98092 534 373.28125 C 537.75634 383.47314 550.44998 390.46698 561.0625 386.46875 L 587.84375 374.3125 L 620.53125 360.21875 C 630.62054 355.04018 634.14541 341.62313 628.9375 331.28125 C 625.32143 323.5134 617.6409 319.91322 609.84375 320.21875 z " inkscape:radius="0" sodipodi:type="inkscape:offset" class="st1" d="
			M443.6,429.7c-1.9,0.1-3.9,0.5-5.7,1.2l-18.8,8l-2.5,1.1L394,450.1c-7,3.5-9.5,11.2-6.6,18.9c2.8,7.5,12.2,12.7,20,9.8l19.8-9
			l24.2-10.4c7.5-3.8,10.1-13.8,6.2-21.4C455,432.1,449.3,429.5,443.6,429.7z"/>
		<g id="start" inkscape:connector-curvature="0" sodipodi:nodetypes="ccsccccc">
			<path class="st2" d="M441.2,438l-43.7,19.3c-4.5,2-4.8,8.1-2.7,11.1c2.2,3.1,6.6,4.2,9.8,3.2l42.4-19.8c3.2-1.7,5.7-5.4,3.8-10.3
				l-0.1-0.2C448.7,438.1,445.7,436.3,441.2,438L441.2,438z"/>
			<path class="st3" d="M441.2,438l-43.7,19.3c-4.5,2-4.8,8.1-2.7,11.1c2.2,3.1,6.6,4.2,9.8,3.2l42.4-19.8c3.2-1.7,5.7-5.4,3.8-10.3
				l-0.1-0.2C448.7,438.1,445.7,436.3,441.2,438L441.2,438z"/>
		</g>
		
			<path id="path3821" sodipodi:cx="156.06857" sodipodi:cy="485.6666" sodipodi:rx="135.36044" sodipodi:ry="135.36044" sodipodi:type="arc" class="st4" d="
			M212.6,540.7c0,55.4-44.9,100.3-100.3,100.3S12,596,12,540.7c0-55.3,44.9-100.3,100.3-100.3S212.6,485.3,212.6,540.7z"/>
		
			<path id="path3823" sodipodi:cx="156.06857" sodipodi:cy="485.6666" sodipodi:rx="135.36044" sodipodi:ry="135.36044" sodipodi:type="arc" class="st5" d="
			M191.1,540.7c0,43.5-35.3,78.8-78.8,78.8s-78.8-35.3-78.8-78.8c0-43.5,35.3-78.8,78.8-78.8S191.1,497.1,191.1,540.7z"/>
		
			<path id="path3825" sodipodi:cx="156.06857" sodipodi:cy="485.6666" sodipodi:rx="135.36044" sodipodi:ry="135.36044" sodipodi:type="arc" class="st6" d="
			M173,540.7c0,33.5-27.2,60.7-60.7,60.7s-60.7-27.2-60.7-60.7c0-33.5,27.2-60.7,60.7-60.7S173,507.2,173,540.7z"/>
		
			<path id="path3827" sodipodi:cx="156.06857" sodipodi:cy="485.6666" sodipodi:rx="135.36044" sodipodi:ry="135.36044" sodipodi:type="arc" class="st7" d="
			M125.3,539.6c0,6.7-5.5,12.2-12.2,12.2s-12.2-5.5-12.2-12.2s5.5-12.2,12.2-12.2C119.8,527.4,125.3,532.9,125.3,539.6z"/>
		<path id="path3834" inkscape:connector-curvature="0" sodipodi:nodetypes="cc" class="st8" d="M125.5,489.7
			c0,29.1,9.2,37.8,37.8,37.8"/>
		<path id="path3853" inkscape:connector-curvature="0" sodipodi:nodetypes="cc" class="st8" d="M163.3,553.8
			c-29.1,0-37.8,9.2-37.8,37.8"/>
		<path id="path3855" inkscape:connector-curvature="0" sodipodi:nodetypes="cc" class="st8" d="M99.1,591.7
			c0-29.1-9.2-37.8-37.8-37.8"/>
		<path id="path3857" inkscape:connector-curvature="0" sodipodi:nodetypes="cc" class="st8" d="M61.3,527.6
			c29.1,0,37.8-9.2,37.8-37.8"/>
		<path id="path3859" inkscape:connector-curvature="0" class="st9" d="M142.2,507.8l5.8,5.6l3.8-9.5L142.2,507.8z"/>
		<path id="path3859-3" inkscape:connector-curvature="0" class="st9" d="M146,569.9l-5.6,5.8l9.5,3.8L146,569.9z"/>
		<path id="path3859-3-1" inkscape:connector-curvature="0" class="st9" d="M84.2,574.3l-5.8-5.6l-3.8,9.5L84.2,574.3z"/>
		<path id="path3859-3-7" inkscape:connector-curvature="0" class="st9" d="M79.5,512.1l5.6-5.8l-9.5-3.8L79.5,512.1z"/>
		<path id="path3859-3-4-8" inkscape:connector-curvature="0" class="st10" d="M195.9,537.6l0.1,9.4l12.3-4.7L195.9,537.6z"/>
		<path id="path3859-3-4-8-1" inkscape:connector-curvature="0" class="st10" d="M28.7,547.1l-0.1-9.4l-12.3,4.7L28.7,547.1z"/>
		<path id="path3859-3-4-8-1-7" inkscape:connector-curvature="0" class="st10" d="M105.9,457.1l9.4-0.1l-4.7-12.3L105.9,457.1z"/>
		<path id="path3859-3-4-8-1-8" inkscape:connector-curvature="0" class="st10" d="M115.3,624.6l-9.4,0.1l4.7,12.3L115.3,624.6z"/>
		
			<path id="path3983" sodipodi:cx="76.897865" sodipodi:cy="387.55554" sodipodi:rx="3.661803" sodipodi:ry="3.661803" sodipodi:type="arc" class="st10" d="
			M51.5,479.6c0,1.5-1.2,2.7-2.7,2.7s-2.7-1.2-2.7-2.7s1.2-2.7,2.7-2.7S51.5,478.1,51.5,479.6z"/>
		
			<path id="path3983-8" sodipodi:cx="76.897865" sodipodi:cy="387.55554" sodipodi:rx="3.661803" sodipodi:ry="3.661803" sodipodi:type="arc" class="st10" d="
			M177.7,478.9c0,1.5-1.2,2.7-2.7,2.7s-2.7-1.2-2.7-2.7s1.2-2.7,2.7-2.7S177.7,477.4,177.7,478.9z"/>
		
			<path id="path3983-1" sodipodi:cx="76.897865" sodipodi:cy="387.55554" sodipodi:rx="3.661803" sodipodi:ry="3.661803" sodipodi:type="arc" class="st10" d="
			M51.4,607.3c0,1.5-1.2,2.7-2.7,2.7s-2.7-1.2-2.7-2.7s1.2-2.7,2.7-2.7S51.4,605.8,51.4,607.3z"/>
		
			<path id="path3983-3" sodipodi:cx="76.897865" sodipodi:cy="387.55554" sodipodi:rx="3.661803" sodipodi:ry="3.661803" sodipodi:type="arc" class="st10" d="
			M178.6,607.3c0,1.5-1.2,2.7-2.7,2.7s-2.7-1.2-2.7-2.7s1.2-2.7,2.7-2.7S178.6,605.8,178.6,607.3z"/>
		
			<path id="path4044-0" sodipodi:cx="727.67859" sodipodi:cy="442.18362" sodipodi:rx="38.392857" sodipodi:ry="38.392857" sodipodi:type="arc" class="st11" d="
			M429.8,578.9c0,16.3-13.2,29.5-29.5,29.5s-29.5-13.2-29.5-29.5s13.2-29.5,29.5-29.5S429.8,562.6,429.8,578.9z"/>
		<path id="path4040" inkscape:connector-curvature="0" sodipodi:nodetypes="sssssssss" class="st12" d="M385.4,632.7
			c-28.4-6.5-42.6-32.5-40-60.6c2-21.8,20.6-39.1,38.5-53.1c30.6-24,58.4-41.2,105.1-50.5c22.8-4.6,45.1-6.2,61.7,1.5
			c25.3,11.8,35.2,38.2,27.5,67.3c-4.6,17.5-17.4,29-33.1,34.4c-25.9,9-79.5,30.4-116,52C418,630.3,403.2,636.8,385.4,632.7
			L385.4,632.7z"/>
		
			<path id="path4044-0-2" sodipodi:cx="727.67859" sodipodi:cy="442.18362" sodipodi:rx="38.392857" sodipodi:ry="38.392857" sodipodi:type="arc" class="st11" d="
			M495.1,545.8c0,16.3-13.2,29.5-29.5,29.5s-29.5-13.2-29.5-29.5c0-16.3,13.2-29.5,29.5-29.5S495.1,529.6,495.1,545.8z"/>
		<path id="path4042" inkscape:connector-curvature="0" sodipodi:nodetypes="sssssssss" class="st13" d="M535.4,560.1
			c10.2-3.1,27.5-10.6,31.7-28.4c4-17.1-4.8-36.3-15.6-44.6c-10.1-7.7-25.6-9-37.3-5c-31.6,10.9-94.9,35.1-138.6,65.6
			c-10.3,7.2-14.7,19.1-14.9,28.3c-0.4,15.9,4.1,26.6,18.9,36.1c11.3,7.2,26.3,8,38.6,1.1C451.6,594.6,506.5,568.8,535.4,560.1
			L535.4,560.1z"/>
		
			<path id="path4044-0-7" sodipodi:cx="727.67859" sodipodi:cy="442.18362" sodipodi:rx="38.392857" sodipodi:ry="38.392857" sodipodi:type="arc" class="st11" d="
			M562,519.7c0,16.3-13.2,29.5-29.5,29.5c-16.3,0-29.5-13.2-29.5-29.5s13.2-29.5,29.5-29.5C548.8,490.2,562,503.4,562,519.7z"/>
		
			<path id="X" sodipodi:cx="727.67859" sodipodi:cy="442.18362" sodipodi:rx="38.392857" sodipodi:ry="38.392857" sodipodi:type="arc" class="st14" d="
			M559,519.7c0,14.6-11.9,26.5-26.5,26.5c-14.6,0-26.5-11.9-26.5-26.5c0-14.6,11.9-26.5,26.5-26.5C547.1,493.2,559,505,559,519.7z"
			/>
		
			<path id="A" sodipodi:cx="727.67859" sodipodi:cy="442.18362" sodipodi:rx="38.392857" sodipodi:ry="38.392857" sodipodi:type="arc" class="st14" d="
			M492.1,545.8c0,14.6-11.9,26.5-26.5,26.5s-26.5-11.9-26.5-26.5c0-14.6,11.9-26.5,26.5-26.5S492.1,531.2,492.1,545.8z"/>
		
			<path id="B" sodipodi:cx="727.67859" sodipodi:cy="442.18362" sodipodi:rx="38.392857" sodipodi:ry="38.392857" sodipodi:type="arc" class="st14" d="
			M426.8,578.9c0,14.6-11.9,26.5-26.5,26.5s-26.5-11.9-26.5-26.5s11.9-26.5,26.5-26.5S426.8,564.3,426.8,578.9z"/>
		<g>
			<path id="path4110" inkscape:connector-curvature="0" class="st15" d="M393,586.8l4.8-13.8l11.9,6.7"/>
			<path id="path4112" inkscape:connector-curvature="0" class="st15" d="M394.5,582.7l11.7-4.8"/>
			<path id="path4133" inkscape:connector-curvature="0" sodipodi:nodetypes="ccccccccc" class="st15" d="M470,544.6
				c3.7-1.7,1.5-6.4-2.1-4.8l-11.1,5l0,0l4,9.5l0,0l11-5C475.5,547.6,473.5,543,470,544.6l-11.2,5"/>
			<path id="path4165" inkscape:connector-curvature="0" class="st15" d="M536.9,513.3l-13.4,4.1l2,8.2l13.8-4.1"/>
		</g>
		<g id="g5468">
			<path id="path4183" inkscape:connector-curvature="0" class="st10" d="M248.8,535.1h10.5c4.3,0,7.8-3.5,7.8-7.7
				c0-4.3-3.5-7.7-7.8-7.7h-2.7c-0.2,0-0.4-0.2-0.4-0.4s0.2-0.4,0.4-0.4h10.5v-3.3h-10.5c-2,0-3.7,1.6-3.7,3.7c0,2,1.6,3.7,3.7,3.7
				h2.7c2.5,0,4.4,2,4.4,4.4s-2,4.4-4.4,4.4h-10.5L248.8,535.1"/>
			<path id="path4185" inkscape:connector-curvature="0" class="st10" d="M248.8,531h10.5c2,0,3.7-1.6,3.7-3.7c0-2-1.6-3.7-3.7-3.7
				h-2.7c-2.5,0-4.4-2-4.4-4.4s2-4.4,4.4-4.4h10.5v-3.3h-10.5c-4.3,0-7.8,3.5-7.8,7.7s3.5,7.7,7.8,7.7h2.7c0.2,0,0.4,0.2,0.4,0.4
				s-0.2,0.4-0.4,0.4h-10.5L248.8,531"/>
			<path id="path4187" inkscape:connector-curvature="0" class="st10" d="M275.1,531.8c-1.8,0-3.3-1.4-3.3-3.3V518
				c0-1.8,1.5-3.2,3.3-3.2h11.2v-3.3h-11.2c-3.6,0-6.6,2.9-6.6,6.6v10.4c0,3.6,2.9,6.6,6.6,6.6h11.1v-3.3H275.1"/>
			<path id="path4189" inkscape:connector-curvature="0" class="st10" d="M272.6,518c0-1.4,1.1-2.5,2.5-2.5h11.2v3.3h-9.6
				c-0.8,0-0.8,0.8-0.8,0.8h8v3.3h-11.3L272.6,518"/>
			<path id="path4191" inkscape:connector-curvature="0" class="st10" d="M275.1,531c-1.4,0-2.5-1.1-2.5-2.5v-4.8h11.3v3.3h-8
				c0,0.8,0.8,0.8,0.8,0.8h9.6v3.3L275.1,531"/>
			<path id="path4193" inkscape:connector-curvature="0" class="st10" d="M294.2,531.8c-1.8,0-3.3-1.5-3.3-3.3V518
				c0-1.8,1.5-3.3,3.3-3.3H305v-3.3h-10.9c-3.6,0-6.6,2.9-6.6,6.6v10.4c0,3.6,3,6.6,6.6,6.6h10.8v-15.5h-9.3v3.3h6v8.9L294.2,531.8"
				/>
			<path id="path4195" inkscape:connector-curvature="0" class="st10" d="M291.6,528.5c0,1.4,1.1,2.5,2.5,2.5h6.8v-7.4h-5.2v3.3h1.9
				v0.8h-1.9c-0.4,0-0.8-0.3-0.8-0.8v-7.3c0,0,0-0.8,0.8-0.8h9.3v-3.3h-10.8c-1.4,0-2.5,1.1-2.5,2.5L291.6,528.5"/>
			<path id="path4197" inkscape:connector-curvature="0" class="st10" d="M315.2,515.5c0.1-0.4,0.5-0.7,1-0.7s0.9,0.3,1,0.7
				l5.3,15.5h-7.7v-3.7h2.6l-1.2-3.4l-3.8,11.1h-3.9L315.2,515.5"/>
			<path id="path4199" inkscape:connector-curvature="0" class="st10" d="M323.5,531.8h-8.7v3.3h13.3l-6.9-20.5
				c-0.6-2-2.6-3.5-5-3.5s-4.4,1.5-5,3.5l-7,20.5h3.5l6.8-19.9c0.3-0.7,0.9-1.1,1.7-1.1c0.8,0,1.4,0.5,1.7,1.1L323.5,531.8"/>
			<path id="path4201" inkscape:connector-curvature="0" class="st10" d="M327.3,517.5c1.1,0,2.1-0.4,2.8-1.2
				c0.8-0.8,1.2-1.8,1.2-2.8c0-1.1-0.4-2.1-1.2-2.8c-0.8-0.7-1.8-1.2-2.8-1.2c-2.2,0-4,1.8-4,4c0,1.1,0.4,2.1,1.2,2.8
				C325.2,517,326.2,517.5,327.3,517.5 M323.8,513.5c0-0.9,0.4-1.8,1-2.4c0.7-0.6,1.5-1,2.4-1s1.8,0.4,2.4,1c0.6,0.6,1,1.5,1,2.4
				c0,1.9-1.5,3.4-3.5,3.4c-0.9,0-1.8-0.4-2.4-1C324.2,515.2,323.8,514.4,323.8,513.5L323.8,513.5z"/>
			<path id="path4203" inkscape:connector-curvature="0" class="st10" d="M326.2,513.8v1.9h-0.6v-4.4h1.6c0.6,0,1,0,1.3,0.3
				c0.3,0.2,0.5,0.6,0.5,1c0,1-0.8,1.2-1.1,1.2l1.2,1.9h-0.7l-1.2-1.9H326.2 M326.2,513.3h1.2c0.2,0,0.4,0,0.5,0
				c0.4-0.1,0.6-0.4,0.6-0.7c0-0.1,0-0.4-0.3-0.6c-0.2-0.2-0.5-0.2-0.9-0.2h-1.1L326.2,513.3L326.2,513.3z"/>
		</g>
		<text transform="matrix(1.2449 -0.5416 0.5416 1.2449 399.067 442.8126)" class="st10 st16 st17">START</text>
		<text transform="matrix(1.2323 -0.5696 0.5696 1.2323 423.5983 510.6339)" class="st10 st16 st18">TRIGGER</text>
		<path id="path4307" inkscape:connector-curvature="0" class="st19" d="M172.9,418c36.7-9,75.9-14.7,114.2-14.9l0,0
			c3.7,0,7.5,0,11.2,0.1c36.3,0,73.5,5.2,108.8,13.7"/>
		<text transform="matrix(1.3224 -0.3072 0.3072 1.3224 176.3574 417.3894)" class="st10 st16 st20">C</text>
		<text transform="matrix(1.3271 -0.2862 0.2862 1.3271 184.5242 415.4893)" class="st10 st16 st20">O</text>
		<text transform="matrix(1.3318 -0.2632 0.2632 1.3318 193.3531 413.5848)" class="st10 st16 st20">M</text>
		<text transform="matrix(1.3359 -0.2415 0.2415 1.3359 202.8427 411.7156)" class="st10 st16 st20">P</text>
		<text transform="matrix(1.3395 -0.221 0.221 1.3395 210.4637 410.3359)" class="st10 st16 st20">U</text>
		<text transform="matrix(1.3426 -0.2009 0.2009 1.3426 218.7371 408.9749)" class="st10 st16 st20">T</text>
		<text transform="matrix(1.3454 -0.1813 0.1813 1.3454 225.7509 407.9239)" class="st10 st16 st20">E</text>
		<text transform="matrix(1.3482 -0.1594 0.1594 1.3482 233.4244 406.8854)" class="st10 st16 st20">R</text>
		<text transform="matrix(1.35 -0.1433 0.1433 1.35 241.7541 405.9178)" class="st10 st16 st20"> </text>
		<text transform="matrix(1.3516 -0.1278 0.1278 1.3516 244.9611 405.5634)" class="st10 st16 st21">V</text>
		<text transform="matrix(1.353 -0.112 0.112 1.353 252.6714 404.8476)" class="st10 st16 st21">I</text>
		<text transform="matrix(1.3543 -9.484557e-02 9.484557e-02 1.3543 255.8856 404.5656)" class="st10 st16 st20">D</text>
		<text transform="matrix(1.3558 -7.042720e-02 7.042720e-02 1.3558 264.2493 403.9822)" class="st10 st16 st21">E</text>
		<text transform="matrix(1.3569 -4.416524e-02 4.416524e-02 1.3569 271.9832 403.5728)" class="st10 st16 st20">O</text>
		<text transform="matrix(1.3574 -2.437127e-02 2.437127e-02 1.3574 281.0105 403.3008)" class="st10 st16 st20"> </text>
		<text transform="matrix(1.3576 -4.034821e-03 4.034821e-03 1.3576 284.2797 403.2669)" class="st10 st16 st20">G</text>
		<text transform="matrix(1.3574 2.488314e-02 -2.488314e-02 1.3574 293.2664 403.1998)" class="st10 st16 st21">A</text>
		<text transform="matrix(1.3574 2.196770e-02 -2.196770e-02 1.3574 301.0096 403.3516)" class="st10 st16 st20">M</text>
		<text transform="matrix(1.3566 5.189971e-02 -5.189971e-02 1.3566 310.6815 403.5202)" class="st10 st16 st20">E</text>
		<text transform="matrix(1.3558 7.013965e-02 -7.013965e-02 1.3558 318.4187 403.8312)" class="st10 st16 st20"> </text>
		<text transform="matrix(1.3547 8.895783e-02 -8.895783e-02 1.3547 321.6415 403.9803)" class="st10 st16 st20">C</text>
		<text transform="matrix(1.3526 0.1163 -0.1163 1.3526 330.0084 404.5263)" class="st10 st16 st20">O</text>
		<text transform="matrix(1.3501 0.1427 -0.1427 1.3501 339.0059 405.3037)" class="st10 st16 st20">N</text>
		<text transform="matrix(1.3475 0.1653 -0.1653 1.3475 347.3438 406.19)" class="st10 st16 st20">T</text>
		<text transform="matrix(1.3446 0.1874 -0.1874 1.3446 354.3841 407.0497)" class="st10 st16 st20">R</text>
		<text transform="matrix(1.341 0.2114 -0.2114 1.341 362.69 408.2049)" class="st10 st16 st20">O</text>
		<text transform="matrix(1.3376 0.2322 -0.2322 1.3376 371.6084 409.62)" class="st10 st16 st20">L</text>
		<text transform="matrix(1.3353 0.245 -0.245 1.3353 377.9699 410.7329)" class="st10 st16 st20"> </text>
		<text transform="matrix(1.3326 0.2592 -0.2592 1.3326 381.1439 411.304)" class="st10 st16 st20">P</text>
		<text transform="matrix(1.3286 0.279 -0.279 1.3286 388.7476 412.7834)" class="st10 st16 st20">A</text>
		
			<text id="text4645" sodipodi:linespacing="125%" transform="matrix(1.3242 0.2992 -0.2992 1.3242 396.3257 414.3718)" class="st22 st16 st20">D</text>
		<path id="rect3829" inkscape:connector-curvature="0" class="st23" d="M101.6,486.8c-1.3,0-2.4,1.1-2.4,2.4v38.2H60.9
			c-1.3,0-2.4,1.1-2.4,2.4v21.5c0,1.3,1.1,2.4,2.4,2.4h38.2v38.2c0,1.3,1.1,2.4,2.4,2.4H123c1.3,0,2.4-1.1,2.4-2.4v-38.2h38.2
			c1.3,0,2.4-1.1,2.4-2.4v-21.5c0-1.3-1.1-2.4-2.4-2.4h-38.2v-38.2c0-1.3-1.1-2.4-2.4-2.4L101.6,486.8L101.6,486.8z"/>
		<g id="genesisLogo">
			<polygon id="polygon7575" class="st24" points="216.1,486.3 225.8,492 365.1,492 374.8,486.3 374.8,473.9 365.6,468.5 
				319.8,468.5 311.5,456.8 278.6,456.8 278.6,456.8 270.4,468.5 225.2,468.5 216.1,473.8 			"/>
			<g id="polygon9">
				<polygon class="st24" points="321.4,466.7 313.1,453.9 280.2,453.9 280.2,453.9 272,466.7 226.9,466.7 217.7,472.5 217.7,486.2 
					227.4,492.4 366.7,492.4 376.5,486.2 376.5,472.6 367.2,466.7 				"/>
			</g>
			<path id="path11" inkscape:connector-curvature="0" class="st25" d="M289,465.7c0,0.6,0.5,1.1,1.1,1.1h4.5v-1.4h-4.2V465h3.3
				v-1.4H289V465.7L289,465.7z"/>
			<path id="path13" inkscape:connector-curvature="0" class="st25" d="M289,461.2c0-0.6,0.5-1.1,1.1-1.1h4.5v1.4h-4.2v0.4h3.3v1.4
				H289V461.2L289,461.2z"/>
			<polygon id="polygon15" class="st25" points="328.3,476.5 318.9,476.5 318.9,478.7 333.1,478.7 333.1,484.3 328.1,487.7 
				312.4,487.7 317.6,484.3 326.8,484.3 326.8,482.1 312.6,482.1 312.6,476.6 317.8,473.1 317.8,473.1 333.5,473.1 			"/>
			<polygon id="polygon17" class="st25" points="341.5,487.7 335.1,487.7 335.1,473.1 335.1,473.1 341.5,473.1 			"/>
			<polygon id="polygon19" class="st25" points="359.7,476.5 350.3,476.5 350.3,478.7 364.6,478.7 364.6,484.3 359.5,487.7 
				343.8,487.7 349,484.3 358.2,484.3 358.2,482.1 344,482.1 344,476.6 349.2,473.1 349.2,473.1 364.9,473.1 			"/>
			<polygon id="polygon21" class="st25" points="313,484.3 298.7,484.3 298.7,482.1 304.8,482.1 310,478.7 298.7,478.7 298.7,476.5 
				307.9,476.5 313.1,473.1 297.9,473.1 292.4,476.5 292.4,476.5 292.4,487.7 307.8,487.7 			"/>
			<polygon id="polygon23" class="st25" points="268.4,484.3 254.1,484.3 254.1,482.1 260.2,482.1 265.4,478.7 254.1,478.7 
				254.1,476.5 263.3,476.5 268.5,473.1 253.3,473.1 247.7,476.5 247.7,476.5 247.7,487.7 263.2,487.7 			"/>
			<polygon id="polygon25" class="st25" points="276.3,477.9 276.3,487.7 269.9,487.7 269.9,473.1 276.4,473.1 284.2,477.4 
				284.2,473.1 284.2,473.1 290.6,473.1 290.6,487.7 284.2,487.7 284.2,482.9 			"/>
			<polygon id="polygon27" class="st25" points="248,473.1 242.8,476.5 231.8,476.5 231.8,484.3 239.7,484.3 239.7,482.1 
				233.2,482.1 238.4,478.7 246.1,478.7 246.1,484.5 241.2,487.7 225.4,487.7 225.4,476.6 225.4,476.6 230.7,473.1 			"/>
			<path id="path29" inkscape:connector-curvature="0" class="st25" d="M289.9,458.3c-1.5,0-2.8,1.2-2.8,2.8v4.8
				c0,1.5,1.2,2.8,2.8,2.8h4.6v-1.4H290c-0.8,0-1.5-0.8-1.5-1.6v-4.5c0-0.8,0.7-1.5,1.5-1.5h4.5v-1.4L289.9,458.3L289.9,458.3
				L289.9,458.3z"/>
			<path id="path31" inkscape:connector-curvature="0" class="st25" d="M298.7,465.4v-4h4.4V460h-4.7c-0.6,0-1.1,0.5-1.1,1.1v4.5
				c0,0.6,0.5,1.1,1.1,1.1h2.9v-3.1h-2.1v1.3h0.8v0.5H298.7L298.7,465.4L298.7,465.4z"/>
			<path id="path33" inkscape:connector-curvature="0" class="st25" d="M285.9,458.2h-4.4c-1.9,0-3.4,1.5-3.4,3.4s1.5,3.4,3.4,3.3
				h1.4v0.5H278v1.3h4.6c0.9,0,1.6-0.7,1.6-1.6s-0.7-1.5-1.6-1.5h-1.2c-1.1,0-2-0.9-2-2s0.9-2,2-2h4.4L285.9,458.2L285.9,458.2
				L285.9,458.2z"/>
			<path id="path35" inkscape:connector-curvature="0" class="st25" d="M285.9,461.4h-4.6v0.5h1.4c1.9,0,3.4,1.5,3.4,3.4
				s-1.5,3.4-3.4,3.4h-4.6v-1.4h4.6c1.1,0,2-0.9,2-2s-0.9-2-2-2h-1.2c-0.9,0-1.6-0.7-1.6-1.6s0.7-1.6,1.6-1.6h4.4L285.9,461.4
				L285.9,461.4L285.9,461.4z"/>
			<path id="path37" inkscape:connector-curvature="0" class="st25" d="M308.3,459.9c-0.1-0.1-0.1-0.2-0.2-0.2s-0.2,0.1-0.2,0.2
				l-2.8,8.7h1.5l1.6-4.8l0.5,1.6h-1.1v1.4h3L308.3,459.9L308.3,459.9L308.3,459.9z"/>
			<path id="path39" inkscape:connector-curvature="0" class="st25" d="M298.3,468.6c-1.5,0-2.8-1.2-2.8-2.8V461
				c0-1.5,1.2-2.8,2.8-2.8h4.8v1.4h-4.7c-0.8,0-1.5,0.7-1.5,1.5v4.5c0,0.8,0.7,1.6,1.5,1.6h3.3v-4.1h-2.6v-1.4h4v6.4l2.8-8.8
				c0.3-0.9,1.1-1.5,2.1-1.5s1.8,0.7,2.1,1.6l2.9,9h-5.6V467h3.6l-2.5-7.5c-0.1-0.4-0.4-0.5-0.7-0.5c-0.3,0-0.5,0.1-0.7,0.5
				l-2.9,8.9L298.3,468.6L298.3,468.6L298.3,468.6z"/>
		</g>
		<g>
			<path id="path4110_00000113318429691939622560000015947141586499078844_" inkscape:connector-curvature="0" class="st26" d="
				M369.5,549l2.4-14.3l12.8,4.7"/>
			<path id="path4112_00000005964176441492740590000008474897858252353154_" inkscape:connector-curvature="0" class="st26" d="
				M370.3,544.6L381,538"/>
			
				<path id="path4133_00000112627707018994123260000002819941912945335718_" inkscape:connector-curvature="0" sodipodi:nodetypes="ccccccccc" class="st26" d="
				M451.8,497.9c3.7-1.7,1.5-6.4-2.1-4.8l-11.1,5l0,0l4,9.5l0,0l11-5C457.3,500.9,455.3,496.3,451.8,497.9l-11.2,5"/>
			<path id="path4165_00000008151016726452730250000012010598401808427440_" inkscape:connector-curvature="0" class="st26" d="
				M519.1,467.9l-13,5l2.6,8l13.4-5.1"/>
		</g>
		<g>
			
				<path id="R" inkscape:connector-curvature="0" class="st27" d="
				M143.7,534.9l0.1,9.4l12.3-4.7L143.7,534.9z"/>
			
				<path id="L" inkscape:connector-curvature="0" class="st27" d="
				M69.4,539.6l12.3,4.7l0.1-9.4L69.4,539.6z"/>
			
				<path id="U" inkscape:connector-curvature="0" class="st27" d="
				M108.1,508.7l9.4-0.1l-4.7-12.3L108.1,508.7z"/>
			
				<path id="D" inkscape:connector-curvature="0" class="st27" d="
				M112.8,583l4.7-12.3l-9.4-0.1L112.8,583z"/>
		</g>
	</g>
    <g id="fillerButtons">
    <path id="back"/>
    <path id="Y"/>
    <path id="rBumper"/>
    <path id="lBumper"/>
  </g>
	</g>
</g>
</svg>
