<?xml version="1.0" encoding="utf-8"?>
<!-- Generator: Adobe Illustrator 25.4.1, SVG Export Plug-In . SVG Version: 6.00 Build 0)  -->
<svg version="1.1"
	 id="svg4871" sodipodi:docname="drawing.svg" xmlns:cc="http://creativecommons.org/ns#" xmlns:dc="http://purl.org/dc/elements/1.1/" xmlns:inkscape="http://www.inkscape.org/namespaces/inkscape" xmlns:rdf="http://www.w3.org/1999/02/22-rdf-syntax-ns#" xmlns:sodipodi="http://sodipodi.sourceforge.net/DTD/sodipodi-0.dtd" xmlns:svg="http://www.w3.org/2000/svg"
	 xmlns="http://www.w3.org/2000/svg" xmlns:xlink="http://www.w3.org/1999/xlink" x="0px" y="0px" viewBox="0 0 968 423.5"
	 style="enable-background:new 0 0 968 423.5;" xml:space="preserve">
<style type="text/css">
	.st0{fill:#C4C1BC;}
	.st1{fill:#747B81;}
	.st2{fill:none;stroke:#747B81;stroke-width:1.1159;stroke-miterlimit:4.4638;}
	.st3{fill:#485053;stroke:#1A1C1B;stroke-width:3;stroke-linejoin:bevel;}
	.dpad{stroke:#1A1C1B;}
	.X{stroke:#1A1C1B;stroke-miterlimit:5.0949;}
	.Y{stroke:#1A1C1B;stroke-miterlimit:5.0949;}
	.A{stroke:#1A1C1B;stroke-miterlimit:5.0949;}
	.B{stroke:#1A1C1B;stroke-miterlimit:5.0949;}
	.st10{fill:#747B81;stroke:#747B81;}
	.st11{fill:#D3D4D6;stroke:#D3D4D6;}
	.st12{fill:#FF0000;}
	.st13{fill:#FFFFFF;}
	.pressed{fill:#FFFFFF;}
</style>
<sodipodi:namedview  bordercolor="#666666" borderopacity="1.0" fit-margin-bottom="0" fit-margin-left="0" fit-margin-right="0" fit-margin-top="0" id="base" inkscape:current-layer="layer1" inkscape:cx="573.50824" inkscape:cy="684.67522" inkscape:document-units="px" inkscape:pageopacity="0.0" inkscape:pageshadow="2" inkscape:window-height="747" inkscape:window-maximized="0" inkscape:window-width="1358" inkscape:window-x="0" inkscape:window-y="19" inkscape:zoom="0.44725269" pagecolor="#ffffff" showgrid="false" width="1920px">
	</sodipodi:namedview>
<g id="layer1" transform="translate(-1.3125275,-628.60194)" inkscape:groupmode="layer" inkscape:label="Layer 1">
	<path id="path4944" inkscape:connector-curvature="0" class="st0" d="M200.3,636.5v0.2C89.7,641,1.3,732.1,1.3,843.8
		c0,114.5,92.8,207.3,207.3,207.3c42.7,0,82.4-12.9,115.3-35c5.8-3.9,7.6-5,13.4-7.9c5.6-2.8,12.5-4.7,16.4-4.7h129.3h3.9h129.3
		c3.9,0,10.8,1.9,16.4,4.7c5.8,2.8,7.6,4,13.4,7.9c33,22.1,72.6,35,115.3,35c114.5,0,207.3-92.8,207.3-207.3
		c0-111.7-88.4-202.8-199-207.2v-0.2h-8.3H486.9h-3.9H208.7H200.3L200.3,636.5z"/>
	
		<path id="path5603" sodipodi:cx="1241.7771" sodipodi:cy="545.25275" sodipodi:rx="144.68755" sodipodi:ry="144.68755" sodipodi:type="arc" class="st1" d="
		M944.5,843.8c0,100.4-81.4,181.8-181.8,181.8s-181.8-81.4-181.8-181.8S662.3,662,762.7,662S944.5,743.4,944.5,843.8z"/>
	
		<path id="rBumper" inkscape:connector-curvature="0" sodipodi:nodetypes="ccccaacaasaczssssscccaaasczccsscczczccccccccccccccc" fill="#C4C1BC" d="
		M654.1,635.8h40.3h33.9h36.7c0,0,2.7,0,4,0c3.8,0.1,7.5,0.3,11.3,0.6c3.5,0.3,6.8,0.6,10.4,1.1c3.6,0.5,6.6,0.8,9.9,1.4
		c2.6,0.5,5.2,1,7.8,1.7c2.7,0.6,5.3,1.4,7.9,2.2c2.2,0.6,4.3,1.3,6.4,2c3.7,1.2,7.9,2.7,11,3.8c1.7,0.6,3,1.1,4.9,1.9
		c1.9,0.8,4.4,1.8,6.5,2.8c2.2,1,4.4,2,6.5,3.1c2,1,4,2,6,3.1c0.9,0.5,1.8,1,2.7,1.4c0.6,0.3,1.3,0.7,1.9,1c0.3,0.2,1,0.5,1,0.5
		l0.7-5.5c-0.3-0.8-1-1.4-1.7-1.7c-1.1-0.7-2.2-1.3-3.2-2c-1.4-0.9-2.9-1.8-4.3-2.6c-1-0.6-2-1.1-3.1-1.6c-1.2-0.6-2.5-1.2-3.7-1.7
		c-1-0.5-2-1-3-1.5s-0.8-0.5-3.3-1.5s-8.4-3.1-11.9-4.4c-2.7-0.9-4.1-1.4-5.9-2c-3.3-1.1-6.2-1.7-10.3-2.8c-2.5-0.7-3.8-1.2-6.6-1.7
		c-2.5-0.4-4.5-0.9-6.4-1.2l-2.4-0.4c0,0-1.8-0.3-3.1-0.4s-3.5-0.4-4.9-0.6c-1.5-0.1-2.6-0.3-6-0.7s-7.9-0.7-11.8-1
		c-2-0.2-6.2-0.4-6.2-0.4h-12.4h-16.5h-15.4h-15H691h-14.8h-10.6h-2.7l-3.5,0.3l-2.6,1l-1.7,1.3l-1,1.5L654.1,635.8z"/>
	
		<path id="lBumper" inkscape:connector-curvature="0" sodipodi:nodetypes="ccccaacaasaczssssscccaaasczccsscczczccccccccccccccc" fill="#C4C1BC" d="
		M315.9,635.8h-40.3h-33.9h-36.7c0,0-2.7,0-4,0c-3.8,0.1-7.5,0.3-11.3,0.6c-3.5,0.3-6.8,0.6-10.4,1.1c-3.6,0.5-6.6,0.8-9.9,1.4
		c-2.6,0.5-5.2,1-7.8,1.7c-2.7,0.6-5.3,1.4-7.9,2.2c-2.2,0.6-4.3,1.3-6.4,2c-3.7,1.2-7.9,2.7-11,3.8c-1.7,0.6-3,1.1-4.9,1.9
		c-1.9,0.8-4.4,1.8-6.5,2.8c-2.2,1-4.4,2-6.5,3.1c-2,1-4,2-6,3.1c-0.9,0.5-1.8,1-2.7,1.4c-0.6,0.3-1.3,0.7-1.9,1
		c-0.3,0.2-1,0.5-1,0.5l-0.7-5.5c0.3-0.8,1-1.4,1.7-1.7c1.1-0.7,2.2-1.3,3.2-2c1.4-0.9,2.9-1.8,4.3-2.6c1-0.6,2-1.1,3.1-1.6
		c1.2-0.6,2.5-1.2,3.7-1.7c1-0.5,2-1,3-1.5c1.1-0.5,0.8-0.5,3.3-1.5s8.4-3.1,11.9-4.4c2.7-0.9,4.1-1.4,5.9-2
		c3.3-1.1,6.2-1.7,10.3-2.8c2.5-0.7,3.8-1.2,6.6-1.7c2.5-0.4,4.5-0.9,6.4-1.2l2.4-0.4c0,0,1.8-0.3,3.1-0.4s3.5-0.4,4.9-0.6
		c1.5-0.1,2.6-0.3,6-0.7s7.9-0.7,11.8-1c2-0.2,6.2-0.4,6.2-0.4h12.4h16.5h15.4h15H279h14.8h10.6h2.7l3.5,0.3l2.6,1l1.7,1.3l1,1.5
		L315.9,635.8z"/>
	
		<path id="path5695" sodipodi:cx="578.75018" sodipodi:cy="464.70502" sodipodi:rx="102.92207" sodipodi:ry="102.92207" sodipodi:type="arc" class="st2" d="
		M322.2,843.8c0,63.4-51.4,114.9-114.9,114.9S92.5,907.2,92.5,843.8s51.4-114.9,114.9-114.9S322.2,780.4,322.2,843.8z"/>
	<path id="rect4752-7" inkscape:connector-curvature="0" class="st3" d="M190,762.9c-4.6,0-8.2,3.7-8.2,8.2v47.2h-47.2
		c-4.6,0-8.3,3.7-8.3,8.3v34.6c0,4.6,3.7,8.2,8.3,8.2h47.2v47.2c0,4.6,3.7,8.3,8.2,8.3h34.6c4.6,0,8.2-3.7,8.2-8.3v-47.2H280
		c4.6,0,8.3-3.7,8.3-8.2v-34.6c0-4.6-3.7-8.3-8.3-8.3h-47.2v-47.2c0-4.6-3.7-8.2-8.2-8.2H190z"/>
	
		<path id="R" inkscape:connector-curvature="0" inkscape:transform-center-x="-5.1055901" inkscape:transform-center-y="2.3103264" fill="#485053" class="dpad" d="
		M247.1,860.3l0-33l32.6,16.5L247.1,860.3z"/>
	
		<path id="L" inkscape:connector-curvature="0" inkscape:transform-center-x="5.1055901" inkscape:transform-center-y="2.3103264" fill="#485053" class="dpad" d="
		M167.5,860.3l0-33l-32.6,16.5L167.5,860.3z"/>
	
		<path id="U" inkscape:connector-curvature="0" inkscape:transform-center-x="-2.3103301" inkscape:transform-center-y="-5.1055936" fill="#485053" class="dpad" d="
		M223.8,804l-33,0l16.5-32.6L223.8,804z"/>
	
		<path id="D" inkscape:connector-curvature="0" inkscape:transform-center-x="-2.3103301" inkscape:transform-center-y="5.1055936" fill="#485053" class="dpad" d="
		M223.8,883.6l-33,0l16.5,32.6L223.8,883.6z"/>
	<path id="rect6093-8" class="st0" d="M642.2,806.1l92.4-71.9c20.4-15.8,49.7-12.2,65.6,8.2l0,0c15.8,20.4,12.2,49.7-8.2,65.6
		l-92.4,71.9c-20.4,15.8-49.7,12.2-65.6-8.2l0,0C618.2,851.3,621.9,821.9,642.2,806.1z"/>
	
		<path id="Y" sodipodi:cx="1216.689" sodipodi:cy="468.91046" sodipodi:rx="28.928564" sodipodi:ry="28.928564" fill="#014DA3" sodipodi:type="arc" class="X" d="
		M800.1,771.2c0,20.4-16.5,36.8-36.8,36.8c-20.3,0-36.8-16.5-36.8-36.8s16.5-36.8,36.8-36.8C783.6,734.3,800.1,750.8,800.1,771.2z"
		/>
	
		<path id="X" sodipodi:cx="1216.689" sodipodi:cy="468.91046" sodipodi:rx="28.928564" sodipodi:ry="28.928564" fill="#00926D" sodipodi:type="arc" class="Y" d="
		M707.9,842.9c0,20.3-16.5,36.8-36.8,36.8c-20.3,0-36.8-16.5-36.8-36.8c0-20.4,16.5-36.8,36.8-36.8
		C691.4,806.1,707.9,822.6,707.9,842.9z"/>
	<path id="rect6093-8-7" class="st0" d="M734,876.8l92.4-71.9c20.4-15.8,49.7-12.2,65.6,8.2l0,0c15.8,20.4,12.2,49.7-8.2,65.6
		l-92.4,71.9c-20.4,15.8-49.7,12.2-65.6-8.2l0,0C709.9,922,713.6,892.7,734,876.8z"/>
	
		<path id="B" sodipodi:cx="1216.689" sodipodi:cy="468.91046" sodipodi:rx="28.928564" sodipodi:ry="28.928564" fill="#E03C4B" sodipodi:type="arc" class="A" d="
		M891.8,841.9c0,20.4-16.5,36.8-36.8,36.8c-20.3,0-36.8-16.5-36.8-36.8c0-20.3,16.5-36.8,36.8-36.8
		C875.3,805.1,891.8,821.6,891.8,841.9z"/>
	
		<path id="A" sodipodi:cx="1216.689" sodipodi:cy="468.91046" sodipodi:rx="28.928564" sodipodi:ry="28.928564" fill="#FFBC54" sodipodi:type="arc" class="B" d="
		M799.6,913.7c0,20.4-16.5,36.8-36.8,36.8c-20.3,0-36.8-16.5-36.8-36.8s16.5-36.8,36.8-36.8C783.1,876.8,799.6,893.3,799.6,913.7z"
		/>
	<path id="start" fill="#485053" d="M470.3,876.6L511,846c6.8-5.1,16.4-3.7,21.4,3l0,0c5.1,6.8,3.7,16.4-3,21.4L488.7,901
		c-6.8,5.1-16.4,3.7-21.4-3l0,0C462.2,891.3,463.5,881.7,470.3,876.6z"/>
	<path id="back" fill="#485053" d="M365,876.6l40.7-30.6c6.8-5.1,16.4-3.7,21.4,3l0,0c5.1,6.8,3.7,16.4-3,21.4L383.4,901
		c-6.8,5.1-16.4,3.7-21.4-3l0,0C356.9,891.3,358.2,881.7,365,876.6z"/>
	<g id="text3017-7">
		<path id="path3143" inkscape:connector-curvature="0" class="st10" d="M365.1,949.2c-0.1,0.4-0.2,0.6-0.5,0.9
			c-0.3,0.2-0.6,0.3-0.9,0.3h-4.2c-0.4,0-0.6-0.1-0.8-0.3c-0.2-0.2-0.2-0.5-0.2-0.9l0.9-4.3h1.5l-0.8,4.1h3.6l0.8-4l-3.5-5.6
			c-0.3-0.4-0.3-0.8-0.2-1.3l0.7-3.4c0.1-0.4,0.2-0.6,0.5-0.9c0.3-0.2,0.6-0.3,0.9-0.3h4.2c0.4,0,0.6,0.1,0.8,0.3
			c0.2,0.2,0.2,0.5,0.2,0.9l-0.8,3.9h-1.5l0.8-3.8h-3.6l-0.7,3.5l3.5,5.6c0.2,0.4,0.3,0.8,0.2,1.3L365.1,949.2"/>
		<path id="path3145" inkscape:connector-curvature="0" class="st10" d="M377.3,950.4h-5.5l3.4-16.8h5.5l-0.3,1.3h-4l-1.2,6.3h3.6
			l-0.3,1.3h-3.6l-1.3,6.6h4L377.3,950.4"/>
		<path id="path3147" inkscape:connector-curvature="0" class="st10" d="M389.4,950.4H384l3.4-16.8h1.5l-3.1,15.5h3.9L389.4,950.4"
			/>
		<path id="path3149" inkscape:connector-curvature="0" class="st10" d="M401.2,950.4h-5.5l3.4-16.8h5.5l-0.3,1.3h-4l-1.2,6.3h3.6
			l-0.3,1.3h-3.6l-1.3,6.6h4L401.2,950.4"/>
		<path id="path3151" inkscape:connector-curvature="0" class="st10" d="M414.8,949.2c-0.1,0.4-0.2,0.6-0.5,0.9
			c-0.3,0.2-0.6,0.3-0.9,0.3h-4.3c-0.4,0-0.6-0.1-0.8-0.3s-0.2-0.5-0.2-0.9l2.9-14.4c0.1-0.4,0.2-0.6,0.5-0.9
			c0.3-0.2,0.6-0.3,0.9-0.3h4.3c0.4,0,0.6,0.1,0.8,0.3c0.2,0.2,0.2,0.5,0.2,0.9l-0.8,3.9h-1.5l0.8-3.8h-3.7l-2.8,14.2h3.7l0.8-4.1
			h1.5L414.8,949.2"/>
		<path id="path3153" inkscape:connector-curvature="0" class="st10" d="M430.4,934.9h-2.6l-3.1,15.5h-1.5l3.1-15.5h-2.6l0.3-1.3
			h6.7L430.4,934.9"/>
	</g>
	<g id="text3017-7-2">
		<path id="path3132" inkscape:connector-curvature="0" class="st10" d="M475.9,949.2c-0.1,0.4-0.2,0.6-0.5,0.9
			c-0.3,0.2-0.6,0.3-0.9,0.3h-4.2c-0.4,0-0.6-0.1-0.8-0.3c-0.2-0.2-0.2-0.5-0.2-0.9l0.9-4.3h1.5l-0.8,4.1h3.6l0.8-4l-3.5-5.6
			c-0.3-0.4-0.3-0.8-0.2-1.3l0.7-3.4c0.1-0.4,0.2-0.6,0.5-0.9c0.3-0.2,0.6-0.3,0.9-0.3h4.2c0.4,0,0.6,0.1,0.8,0.3
			c0.2,0.2,0.2,0.5,0.2,0.9l-0.8,3.9h-1.5l0.8-3.8h-3.6l-0.7,3.5l3.5,5.6c0.2,0.4,0.3,0.8,0.2,1.3L475.9,949.2"/>
		<path id="path3134" inkscape:connector-curvature="0" class="st10" d="M491.5,934.9h-2.6l-3.1,15.5h-1.5l3.1-15.5h-2.6l0.3-1.3
			h6.7L491.5,934.9"/>
		<path id="path3136" inkscape:connector-curvature="0" class="st10" d="M501.3,950.4h-1.5l0.2-3.7h-3.3l-1.3,3.7h-1.4l0,0l6.4-16.8
			h1.5L501.3,950.4 M500,945.3l0.4-9.1l-3.3,9.1H500"/>
		<path id="path3138" inkscape:connector-curvature="0" class="st10" d="M514.7,950.4h-1.6l-1.3-9l0.3-0.3h2.7l1.2-6.2h-3.8
			l-3.1,15.5h-1.5l3.4-16.8h5.6c0.4,0,0.6,0.1,0.8,0.3c0.2,0.2,0.2,0.5,0.2,0.9l-1.3,6.4c-0.2,0.8-0.8,1.2-1.9,1.2
			c-0.1,0-0.3,0-0.5,0c-0.2,0-0.3,0-0.4,0C513.9,945,514.3,947.7,514.7,950.4"/>
		<path id="path3140" inkscape:connector-curvature="0" class="st10" d="M530.2,934.9h-2.6l-3.1,15.5H523l3.1-15.5h-2.6l0.3-1.3h6.7
			L530.2,934.9"/>
	</g>
	<g id="g4412" transform="matrix(0.04254447,0,0,-0.04254447,277.66869,762.30998)">
		<path id="path3868" inkscape:connector-curvature="0" class="st1" d="M258.7,1225.6c0,83.7,134,151.6,299.3,151.6
			c165.6,0,299.6-67.9,299.6-151.6c0-84-134-151.6-299.6-151.6C392.7,1074,258.7,1141.6,258.7,1225.6"/>
		<path id="path3870" inkscape:connector-curvature="0" class="st1" d="M812,945c0,87.9,140.8,159.3,314.6,159.3
			c173.7,0,314.8-71.3,314.8-159.3c0-87.9-141.1-159.3-314.8-159.3C952.9,785.7,812,857,812,945"/>
		<path id="path3872" inkscape:connector-curvature="0" class="st1" d="M941,1294c151.6,5.8,273,130.8,273,284.1
			c0,156.9-127.4,284.3-284.3,284.3c-155.9,0-282.5-125.3-284.3-280.9c3.7,0.3,7.4,0.3,11.3,0.3c156.9,0,284.3-127.1,284.3-284.3
			V1294"/>
		<path id="path3874" inkscape:connector-curvature="0" class="st1" d="M1494.1,1013.2c147.7,5.8,265.6,127.4,265.6,276.7
			c0,153-123.7,276.9-276.7,276.9c-151.6,0-274.8-122.2-276.7-273.5c3.7,0.3,7.4,0.3,11.1,0.3c152.7,0,276.7-124,276.7-277
			L1494.1,1013.2"/>
		<path id="path3876" inkscape:connector-curvature="0" class="st1" d="M5781.7,992.4h279.6l19.5,122.1h-137.7l56.6,332.8h137.7
			l19.5,103.2h-137.7l60.3,305.4h137.7l19.5,122.1H5976L5781.7,992.4"/>
		<path id="path3878" inkscape:connector-curvature="0" class="st1" d="M3279.8,992.4h279.6l19.5,122.1h-137.7l56.6,332.8h137.7
			l19.5,103.2h-137.7l60.3,305.4h137.7l19.5,122.1H3474L3279.8,992.4"/>
		<path id="path3880" inkscape:connector-curvature="0" class="st1" d="M5535.3,992.4h142.2l155.6,863.5h74.8L5927,1978h-292.2
			l-23.4-122.1h77.4L5535.3,992.4"/>
		<path id="path3882" inkscape:connector-curvature="0" class="st1" d="M6576.2,1978l-96.4-514.7l-64.5,514.7h-124.3l-187.2-985.6
			h143.2l115.3,571.5l45.6-571.5h124.3l187.2,985.6H6576.2"/>
		<path id="path3884" inkscape:connector-curvature="0" class="st1" d="M4756.6,1978l-96.4-514.7l-64.5,514.7h-124.3l-187.2-985.6
			h143.2l115.3,571.5l45.5-571.5h124.3l187.2,985.6H4756.6"/>
		<path id="path3886" inkscape:connector-curvature="0" class="st1" d="M5439,1978l-96.3-514.7l-64.5,514.7h-124.3l-187.2-985.6
			h143.2l115.3,571.5l45.5-571.5H5395l187.2,985.6H5439"/>
		<path id="path3888" inkscape:connector-curvature="0" class="st1" d="M5088.6,1978h-124.3l-187.2-985.6h124.3L5088.6,1978"/>
		<path id="path3890" inkscape:connector-curvature="0" class="st1" d="M7324.7,1797.9c6.3,36.6,31.6,66.3,68.2,66.3
			s61.3-29.7,55-66.3l-116.1-644.4c-6.3-36.6-41.1-66.3-77.7-66.3c-36.6,0-51.9,29.8-45.5,66.3L7324.7,1797.9L7324.7,1797.9z
			 M7203.3,1879.8L7064,1084c-9-50.8,25.5-91.6,76.6-91.6h204.3c51.3,0,100.6,40.8,110,91.6l150.8,795.8
			c10.3,54.2-24.5,98.2-77.6,98.2h-211.4C7263.6,1978,7212.8,1934,7203.3,1879.8"/>
		<path id="path3892" inkscape:connector-curvature="0" class="st1" d="M2555,1108.7l154,869.3h-124.5l-154.8-894
			c-9-50.8,25.5-91.6,76.6-91.6h185.3c51.3,0,100.6,40.8,110,91.6l165.8,894h-116.4l-158-869.3c-2.4-12.6-14.7-22.9-27.4-22.9h-91.6
			C2561.3,1085.8,2552.9,1096.1,2555,1108.7"/>
		<path id="path3894" inkscape:connector-curvature="0" class="st1" d="M6745.2,1087.1l145.3,777.1h56.9c36.6,0,61.4-29.7,55-66.3
			l-122.7-644.4c-6.3-36.6-41.1-66.3-77.7-66.3H6745.2z M6783.9,1978l-187.2-985.6h283.8c51.3,0,100.6,40.8,110,91.6l150.8,795.8
			c10.3,54.2-24.5,98.2-77.7,98.2L6783.9,1978"/>
		<path id="path3896" inkscape:connector-curvature="0" class="st1" d="M3093.4,1532c-11.1,0-18.7,7.4-19.5,17.6
			c0,1.6,0,3.4,0.3,5.3l57.4,298c5.3,4.5,11.9,7.4,18.4,7.4h60.5c13.2,0,40.8-29.7,38.4-43.2l-51.6-243.2
			c-2.4-12.6-18.7-41.9-31.3-41.9H3093.4z M3155.2,1978H3031l-187.2-985.6h124.3l84.8,446.2h158c51.3,0,100.6,41.1,110,91.6
			l67.7,349.6c10.3,54.2-24.5,98.2-77.7,98.2H3155.2z M3073.9,1549.7l0.3,5.3C3073.9,1553.1,3073.9,1551.3,3073.9,1549.7"/>
		<path id="path3898" inkscape:connector-curvature="0" class="st1" d="M3908.7,1852.9c5.3,4.5,11.9,7.4,18.4,7.4h56.6
			c13.2,0,40.8-29.7,38.2-43.2l-51.3-243.2c-2.4-12.6-33.7-41.9-46.3-41.9h-53.7c-11.1,0-18.7,7.4-19.5,17.6c0,1.6,0,3.4,0.3,5.3
			L3908.7,1852.9L3908.7,1852.9z M3996.3,1455.7h-7.9c35.5,14,102.4,36.9,109.5,74.5l67.7,349.6c10.3,54.2-24.5,98.2-77.7,98.2
			h-279.8l-187.2-985.6h124.3l84.8,446.2h88.2c11.6-10.8,12.6-30.8,14.2-40.8c2.4-14.5,4.8-32.9,2.9-47.4
			c-1.6-14.5-67.9-358-67.9-358h124.3c0,0,70.3,374.1,70.3,380.1c0.3,6.1,0.3,25.5-6.6,36.1c-4.5,6.8-12.6,22.9-21.6,28.7
			C4016.4,1448.3,3996.3,1455.7,3996.3,1455.7L3996.3,1455.7z M3851,1549.7l0.3,5.3C3851,1553.1,3851,1551.3,3851,1549.7"/>
		<path id="path3900" inkscape:connector-curvature="0" class="st1" d="M3824.2,865.5l-11.6-219h-36.9l4.7,50.5h-21.8l-19.2-50.5
			h-32.7l80.6,219H3824.2z M6541.5,852c2.1,12.1,13.2,21.9,25,21.9h42.6c11.6,0,19.2-9.7,17.1-21.9l-10.3-54h-26.6l6,35.8
			c1.3,8.2-4,14.7-12.1,14.7c-8.1,0-15.8-6.6-17.1-14.7l-4.5-26.1c-1-1.6,1-9,2.6-9.7c3.4-2.1,37.6-59,37.6-63.2
			c1.1-2.1,1.3-3.4,1.3-4.2c-1.3-7.1-10.5-55.6-10.5-55.6c-2.1-11.1-12.9-20.3-24.2-20.3h-41.1c-11.3,0-18.9,9.2-16.8,20.3l9.5,55.6
			h28.7l-7.1-40c-1.3-8.1,4.2-14.7,12.1-14.7c8.2,0,15.8,6.6,17.4,14.7l5.5,32.4c-5.3,13.4-39.5,61.8-41.6,73.4
			c-1.6,1.3-2.4,8.4-2.1,13.7C6533.3,816,6541.5,852,6541.5,852L6541.5,852z M6001.3,852c2.1,12.1,13.2,21.9,25,21.9h42.7
			c11.6,0,19.5-9.7,17.1-21.9l-10.3-54h-26.6l6.1,35.8c1.3,8.2-4,14.7-12.1,14.7c-8.2,0-15.8-6.6-17.1-14.7l-4.5-26.1
			c-0.8-1.6,1.3-9,2.6-9.7c3.7-2.1,37.9-59,37.9-63.2c0.8-2.1,1.3-3.4,1.1-4.2c-1.1-7.1-10.5-55.6-10.5-55.6
			c-2.1-11.1-12.9-20.3-24.2-20.3h-41.1c-11.3,0-18.9,9.2-16.8,20.3l9.7,55.6h28.7l-7.4-40c-1.3-8.1,4.2-14.7,12.4-14.7
			c7.9,0,15.8,6.6,17.1,14.7l5.5,32.4c-5.3,13.4-39.5,61.8-41.6,73.4c-1.6,1.3-2.4,8.4-2.1,13.7C5993.1,816,6001.3,852,6001.3,852
			L6001.3,852z M6998.7,654.9l42.9,219h57.7l-4.5-27.1h-30.3l-13.4-67.9h30.5l-4.2-22.9h-30.5l-12.6-74h30.5l-4.2-27.1L6998.7,654.9
			L6998.7,654.9z M6765.2,654.9l34,191.9h-17.1l5,27.1h64.8l-4.2-27.1h-16.6l-34.5-191.9C6796.6,654.9,6765.2,654.9,6765.2,654.9z
			 M7378.1,872.8l34.7,0.5l-37.1-218.5h-27.4l17.6,115.8l-48.7-115.8h-19l-6,118.7l-21.3-118.7h-31.6l41.3,219h36.1l5.8-126.9
			C7322.5,747,7378.1,872.8,7378.1,872.8z M6258.5,754.1l-14.2,119.8h35.3l4.2-83.2l45.3,83.2h34.2l-71.1-126.6l-17.6-92.4h-31.6
			L6258.5,754.1L6258.5,754.1z M3228.4,747.3c0,0,11.9-1.9,12.9-4.2c1.3-2.4,1.6-8.7,1.6-10c0-1.3-15.5-86.6-15.5-86.6h-27.6
			c0,0,14.7,76.3,15.3,79.5c0.3,3.4-0.3,7.4-0.8,10.5c-0.3,2.4-0.5,6.8-3.2,9.2h-19.5l-18.7-99.2h-27.4l41.3,219h61.9
			c11.6,0,19.5-9.7,17.1-21.9l-15-77.7c-1.6-8.4-16.3-15.5-24.2-18.7H3228.4L3228.4,747.3z M2870.9,646.4l42.9,219h57.7l-4.2-27.1
			h-30.6l-13.4-67.9h30.5l-4.2-22.9h-30.5l-12.6-74h30.5l-4.2-27.1C2932.8,646.4,2870.9,646.4,2870.9,646.4z M4713.7,864.4l35,0.5
			l-37.1-218.5h-27.4l17.6,115.8l-48.7-115.8H4634l-5.8,118.7l-21.3-118.7h-31.6l41.3,219h35.8l6-126.9L4713.7,864.4L4713.7,864.4z
			 M4073.2,865.5l-41.6-219h-27.4l41.3,219H4073.2L4073.2,865.5z M5312.3,865.5h31.6l-41.3-219h-27.4l-10.3,127.2l-25.5-127.2h-31.6
			l41.6,219h27.4l14.2-114.3L5312.3,865.5z M4358.1,865.5h31.6l-41.3-219h-27.6l-10,127.2l-25.5-127.2h-31.6l41.3,219h27.7
			l14.2-114.3L4358.1,865.5L4358.1,865.5z M5515.6,646.4l34,191.9h-17.1l5.3,27.1h64.5l-4.2-27.1h-16.6l-34.2-191.9H5515.6
			L5515.6,646.4z M2403.4,865.5h31.9l-41.6-219h-27.4l-10,127.2l-25.5-127.2h-31.6l41.3,219h27.4l14.5-114.3L2403.4,865.5z
			 M4925.1,646.4l42.9,219h57.7l-4.2-27.1h-30.5l-13.4-67.9h30.6l-4.2-22.9h-30.5l-12.6-74h30.5l-4.2-27.1L4925.1,646.4
			L4925.1,646.4z M2029.8,646.4l42.9,219h57.7l-4.2-27.1h-30.5l-13.2-67.9h30.3l-4.2-22.9H2078l-12.4-74h30.3l-4.2-27.1
			C2091.7,646.4,2029.8,646.4,2029.8,646.4z M3442.7,646.4l34,191.9h-17.1l5.3,27.1h64.5l-4.2-27.1h-16.6l-34.2-191.9H3442.7
			L3442.7,646.4z M2609,646.4l34,191.9h-17.1l5.3,27.1h64.5l-4.2-27.1h-16.6l-34.2-191.9H2609L2609,646.4z M1953,907.1V584.8h5534.6
			v322.2H1953z M3766.5,718.1h15.8l5.3,55.5L3766.5,718.1z M3200.5,766.5h11.9c2.9,0,9.7,6.3,10.3,9.2l11.3,54
			c0.5,3.2-5.5,9.7-8.4,9.7h-12.4c-1.6,0-3.2-0.8-4.2-1.8l-12.6-66.1c0-0.5,0-0.8,0-1.3C3196.3,768.1,3198.2,766.5,3200.5,766.5"/>
		<path id="path3902" inkscape:connector-curvature="0" class="st1" d="M2114.1,1879.8c0,0-36.9-162.4-37.9-188.5
			c-1.1-23.7,2.4-55.8,9.8-61.9c9.5-52.1,183-293.3,178-330.1c-4.7-36.9-24.7-145.9-24.7-145.9c-6.3-36.6-31.6-66.3-68.2-66.3
			c-36.6,0-61.4,29.8-55,66.3l32.4,180.1h-129.8l-43.7-249.6c-9-50.8,25.5-91.6,76.6-91.6h185.3c51.3,0,100.6,40.8,110,91.6
			c0,0,47.7,233,47.4,249.6c-0.3,16.6-5.3,18.4-5.3,18.4v0.5c0,19-154.8,274.8-170.6,284.3c-6.8,3.9-12.1,28.7-12.4,44
			c-0.3,15.3,20,117.1,20,117.1c6.3,36.6,41.1,66.3,77.7,66.3c36.6,0,51.9-29.7,45.6-66.3l-27.9-161.1h130.3l46.1,243
			c10.3,54.2-24.5,98.2-77.7,98.2h-192.4C2174.4,1978,2123.6,1934,2114.1,1879.8"/>
	</g>
	<g id="text3017-7-6-55">
		<path id="path3156" inkscape:connector-curvature="0" class="st11" d="M618.2,871.3l-4.9,9.9c-0.6,1-1.4,2.6-2.5,5l-1.9,9.5h-2.2
			l1.9-9.5c0-0.8,0-1.6-0.2-2.5c-0.2-1.5-0.3-2.3-0.3-2.5l-1-9.9c0,0,0-0.1,0-0.1h2.2l0.9,12.2l5.8-12.2h2.2
			C618.2,871.3,618.2,871.3,618.2,871.3"/>
	</g>
	<g id="text3017-7-6-5-3">
		<path id="path3123" inkscape:connector-curvature="0" class="st11" d="M824.7,741.2h-2.2l-1.3-10l-5.3,10h-2.2c0-0.1,0-0.1,0-0.1
			l6.8-12.4c-1.2-7.9-1.7-11.9-1.7-11.9h2.3l1.1,9.3l4.9-9.3h2.2c0,0.1,0,0.1,0,0.1l-6.4,11.7C824.2,736.9,824.8,741.1,824.7,741.2"
			/>
	</g>
	<g id="text3017-7-6-2-3">
		<path id="path3129" inkscape:connector-curvature="0" class="st11" d="M707.6,969.2c-0.1,0.5-0.3,0.9-0.7,1.3
			c-0.4,0.3-0.8,0.5-1.3,0.5h-8.1l4.9-24.5h8c0.5,0,0.9,0.2,1.2,0.5c0.3,0.3,0.3,0.7,0.2,1.3l-1.5,7.3c-0.1,0.6-0.5,1.2-1.2,1.6
			c-0.6,0.3-1.3,0.7-1.9,1l1.6,1.2c0.5,0.3,0.6,0.9,0.5,1.6L707.6,969.2 M708,955.7l1.5-7.4h-5.4l-1.8,8.8h3.2L708,955.7 M705.4,969
			l1.7-8.5l-1.9-1.4h-3.2l-2,9.9H705.4"/>
	</g>
	<g id="text3017-7-6-4-9">
		<path id="path3126" inkscape:connector-curvature="0" class="st11" d="M918.1,814h-2.2l0.2-5.4h-4.9l-2,5.4h-2.1l0-0.1l9.3-24.5
			h2.1L918.1,814 M916.3,806.7l0.5-13.3l-4.8,13.3H916.3"/>
	</g>
	<g id="disconnected">
		<g id="disconnected_background" class="st12">
		<path id="path4944-2" inkscape:connector-curvature="0" d="M199.7,636.5v0.2C89,641,0.6,732.1,0.6,843.8
			c0,114.5,92.8,207.3,207.3,207.3c42.7,0,82.4-12.9,115.3-35c5.8-3.9,7.6-5,13.4-7.9c5.6-2.8,12.5-4.7,16.4-4.7h129.2h3.9h129.3
			c3.9,0,10.8,1.9,16.4,4.7c5.8,2.8,7.6,4,13.4,7.9c33,22.1,72.6,35,115.3,35c114.5,0,207.3-92.8,207.3-207.3
			c0-111.7-88.4-202.8-199-207.2v-0.2h-8.3H486.3h-3.9H208H199.7L199.7,636.5z"/>
		
			<path id="path5631-77" inkscape:connector-curvature="0" sodipodi:nodetypes="ccccaacaasaczssssscccaaasczccsscczczccccccccccccccc" d="
			M653.4,635.8h40.3h33.9h36.7c0,0,2.7,0,4,0c3.8,0.1,7.5,0.3,11.3,0.6c3.5,0.3,6.8,0.6,10.4,1.1c3.6,0.5,6.6,0.8,9.9,1.4
			c2.6,0.5,5.2,1,7.8,1.7c2.7,0.6,5.3,1.4,7.9,2.2c2.2,0.6,4.3,1.3,6.4,2c3.7,1.2,7.9,2.7,11,3.8c1.7,0.6,3,1.1,4.9,1.9
			c1.9,0.8,4.4,1.8,6.5,2.8c2.2,1,4.4,2,6.5,3.1c2,1,4,2,6,3.1c0.9,0.5,1.8,1,2.7,1.4c0.6,0.3,1.3,0.7,1.9,1c0.3,0.2,1,0.5,1,0.5
			l0.7-5.5c-0.3-0.8-1-1.4-1.7-1.7c-1.1-0.7-2.2-1.3-3.2-2c-1.4-0.9-2.9-1.8-4.3-2.6c-1-0.6-2-1.1-3.1-1.6c-1.2-0.6-2.5-1.2-3.7-1.7
			c-1-0.5-2-1-3-1.5c-1.1-0.5-0.8-0.5-3.3-1.5c-2.5-1-8.4-3.1-11.9-4.4c-2.7-0.9-4.1-1.4-5.9-2c-3.3-1.1-6.2-1.7-10.3-2.8
			c-2.5-0.7-3.8-1.2-6.6-1.7c-2.5-0.4-4.5-0.9-6.4-1.2l-2.4-0.4c0,0-1.8-0.3-3.1-0.4s-3.5-0.4-4.9-0.6c-1.5-0.1-2.6-0.3-6-0.7
			s-7.9-0.7-11.8-1c-2-0.2-6.2-0.4-6.2-0.4h-12.4h-16.5H721h-15h-15.7h-14.8h-10.6h-2.7l-3.5,0.3l-2.6,1l-1.7,1.3l-1,1.5
			L653.4,635.8z"/>
		
			<path id="path5631-7-3" inkscape:connector-curvature="0" sodipodi:nodetypes="ccccaacaasaczssssscccaaasczccsscczczccccccccccccccc" d="
			M315.2,635.8h-40.3H241h-36.7c0,0-2.7,0-4,0c-3.8,0.1-7.5,0.3-11.3,0.6c-3.5,0.3-6.8,0.6-10.4,1.1c-3.6,0.5-6.6,0.8-9.9,1.4
			c-2.6,0.5-5.2,1-7.8,1.7c-2.7,0.6-5.3,1.4-7.9,2.2c-2.2,0.6-4.3,1.3-6.4,2c-3.7,1.2-7.9,2.7-11,3.8c-1.7,0.6-3,1.1-4.9,1.9
			c-1.9,0.8-4.4,1.8-6.5,2.8c-2.2,1-4.4,2-6.5,3.1c-2,1-4,2-6,3.1c-0.9,0.5-1.8,1-2.7,1.4c-0.6,0.3-1.3,0.7-1.9,1
			c-0.3,0.2-1,0.5-1,0.5l-0.7-5.5c0.3-0.8,1-1.4,1.7-1.7c1.1-0.7,2.2-1.3,3.2-2c1.4-0.9,2.9-1.8,4.3-2.6c1-0.6,2-1.1,3.1-1.6
			c1.2-0.6,2.5-1.2,3.7-1.7c1-0.5,2-1,3-1.5c1.1-0.5,0.8-0.5,3.3-1.5c2.5-1,8.4-3.1,11.9-4.4c2.7-0.9,4.1-1.4,5.9-2
			c3.3-1.1,6.2-1.7,10.3-2.8c2.5-0.7,3.8-1.2,6.6-1.7c2.5-0.4,4.5-0.9,6.4-1.2l2.4-0.4c0,0,1.8-0.3,3.1-0.4s3.5-0.4,4.9-0.6
			c1.5-0.1,2.6-0.3,6-0.7s7.9-0.7,11.8-1c2-0.2,6.2-0.4,6.2-0.4h12.4h16.5h15.4h15h15.7h14.8h10.6h2.7l3.5,0.3l2.6,1l1.7,1.3l1,1.5
			L315.2,635.8z"/>
		</g>
		<g id="disconnected_text" class="st13">
			<path d="M313.4,825.7c0,3.2-1,5.8-2.9,7.6s-4.5,2.8-7.8,2.8H286v-55h16.8c3.3,0,5.8,0.9,7.8,2.8s2.9,4.4,2.9,7.6
				V825.7z M305.1,824.3v-31.6c0-3.1-1.6-4.6-4.8-4.6h-6.1V829h5.9C303.5,829,305.1,827.4,305.1,824.3z"/>
			<path d="M328.1,836.1h-8.2v-55h8.2V836.1z"/>
			<path d="M361.3,831c0,3.4-1.7,5-5,5h-16.6c-3.3,0-5-1.7-5-5v-13.1h8.2v11.2H353v-10.8l-16.5-15.6
				c-1.2-1.1-1.8-2.6-1.8-4.4v-12.2c0-3.4,1.7-5.1,5-5.1h16.6c3.3,0,5,1.7,5,5v12.3H353V788H343v9.9l16.5,15.5
				c1.2,1.1,1.8,2.6,1.8,4.5V831z"/>
			<path d="M394.9,831c0,3.4-1.7,5-5,5h-17.2c-3.3,0-4.9-1.7-4.9-5v-44.9c0-3.4,1.6-5.1,4.9-5.1h17.2
				c3.4,0,5,1.7,5,5.1V799h-8.2v-10.9H376V829h10.7v-11.6h8.2V831z"/>
			<path d="M429.1,831c0,3.4-1.7,5-5,5h-17.9c-3.3,0-4.9-1.7-4.9-5v-44.9c0-3.4,1.6-5.1,4.9-5.1h17.9
				c3.3,0,5,1.7,5,5.1V831z M420.8,829v-40.9h-11.3V829H420.8z"/>
			<path d="M463.6,836.1h-7.2l-13.2-34.6c0.4,1.7,0.5,3,0.5,4v30.7h-8v-55h7.2l13.2,33.9c-0.4-1.7-0.5-3-0.5-4v-30h8
				V836.1z"/>
			<path d="M498,836.1h-7.2l-13.2-34.6c0.4,1.7,0.5,3,0.5,4v30.7h-8v-55h7.2l13.2,33.9c-0.4-1.7-0.5-3-0.5-4v-30h8
				V836.1z"/>
			<path d="M527.5,836.1h-22.8v-55h22.6v7.3h-14.4v16.1h12.4v7.1h-12.4v17.3h14.6V836.1z"/>
			<path d="M560.2,831c0,3.4-1.7,5-5,5H538c-3.3,0-4.9-1.7-4.9-5v-44.9c0-3.4,1.6-5.1,4.9-5.1h17.2c3.4,0,5,1.7,5,5.1
				V799H552v-10.9h-10.7V829H552v-11.6h8.2V831z"/>
			<path d="M590.5,788.3h-9.1v47.7h-8.2v-47.7h-9.1v-7.3h26.3V788.3z"/>
			<path d="M617.5,836.1h-22.8v-55h22.6v7.3H603v16.1h12.4v7.1H603v17.3h14.6V836.1z"/>
			<path d="M650.6,825.7c0,3.2-1,5.8-2.9,7.6s-4.5,2.8-7.8,2.8h-16.8v-55h16.8c3.3,0,5.8,0.9,7.8,2.8s2.9,4.4,2.9,7.6
				V825.7z M642.3,824.3v-31.6c0-3.1-1.6-4.6-4.8-4.6h-6.1V829h5.9C640.7,829,642.3,827.4,642.3,824.3z"/>
			<path d="M210.9,879c0,1.8-0.9,2.7-2.7,2.7h-9.1c-1.7,0-2.6-0.9-2.6-2.7v-23.7c0-1.8,0.9-2.7,2.6-2.7h9.1
				c1.8,0,2.7,0.9,2.7,2.7v6.8h-4.3v-5.7h-5.6v21.6h5.6v-6.1h4.3V879z"/>
			<path d="M226.4,879.4c0,1.5-0.8,2.3-2.4,2.3h-7.6c-1.6,0-2.4-0.8-2.4-2.3v-14.1c0-1.5,0.8-2.3,2.4-2.3h7.6
				c1.6,0,2.4,0.8,2.4,2.3V879.4z M222.3,878.1v-11.7h-4v11.7H222.3z"/>
			<path d="M242,881.7h-4.3v-15.2l-4,0.1v15.1h-4.2v-18.7h4.2v0.7c1-0.2,2-0.3,3-0.5c1.2-0.2,2.2-0.3,3-0.3
				c1.5,0,2.3,0.8,2.3,2.3V881.7z"/>
			<path d="M257.5,881.7h-4.3v-15.2l-4,0.1v15.1H245v-18.7h4.2v0.7c1-0.2,2-0.3,3-0.5c1.2-0.2,2.2-0.3,3-0.3
				c1.5,0,2.3,0.8,2.3,2.3V881.7z"/>
			<path d="M272.7,879.4c0,1.5-0.8,2.3-2.4,2.3H263c-1.6,0-2.4-0.8-2.4-2.3v-14.1c0-1.5,0.8-2.3,2.4-2.3h7.3
				c1.6,0,2.4,0.8,2.4,2.3v6.9l-1.2,1.2h-6.9v5.3h4v-3.1h4.1V879.4z M268.6,870.5V866h-4v4.5H268.6z"/>
			<path d="M287.9,879.4c0,1.5-0.8,2.3-2.4,2.3h-7.4c-1.6,0-2.4-0.8-2.4-2.3v-14.1c0-1.5,0.8-2.3,2.4-2.3h7.4
				c1.6,0,2.4,0.8,2.4,2.3v4.5h-4.1v-3.2H280v11.7h3.8v-3.6h4.1V879.4z"/>
			<path d="M299,881.7h-4.7c-1.6,0-2.4-0.8-2.4-2.3v-12.8h-2v-3.6h2v-5.1h4.2v5.1h2.7v3.6h-2.7v11.5h2.8V881.7z"/>
			<path d="M321.3,881.7h-4.1V881c-1,0.1-1.9,0.3-2.9,0.4c-1.3,0.2-2.2,0.3-2.9,0.3c-1.5,0-2.3-0.8-2.3-2.3v-6.8
				c0-1.5,0.8-2.3,2.4-2.3h5.7v-4.3h-4.1v2.7h-3.8v-3.5c0-1.5,0.8-2.3,2.4-2.3h7.2c1.6,0,2.4,0.8,2.4,2.3V881.7z M317.3,878.3v-5
				h-4.1v5.2L317.3,878.3z"/>
			<path d="M344.3,879.4c0,1.5-0.8,2.3-2.4,2.3h-7.4c-1.6,0-2.4-0.8-2.4-2.3v-14.1c0-1.5,0.8-2.3,2.4-2.3h7.4
				c1.6,0,2.4,0.8,2.4,2.3v4.5h-4.1v-3.2h-3.8v11.7h3.8v-3.6h4.1V879.4z"/>
			<path d="M359.7,879.4c0,1.5-0.8,2.3-2.4,2.3h-7.6c-1.6,0-2.4-0.8-2.4-2.3v-14.1c0-1.5,0.8-2.3,2.4-2.3h7.6
				c1.6,0,2.4,0.8,2.4,2.3V879.4z M355.5,878.1v-11.7h-4v11.7H355.5z"/>
			<path d="M375.3,881.7H371v-15.2l-4,0.1v15.1h-4.2v-18.7h4.2v0.7c1-0.2,2-0.3,3-0.5c1.2-0.2,2.2-0.3,3-0.3
				c1.5,0,2.3,0.8,2.3,2.3V881.7z"/>
			<path d="M386.4,881.7h-4.7c-1.6,0-2.4-0.8-2.4-2.3v-12.8h-2v-3.6h2v-5.1h4.2v5.1h2.7v3.6h-2.7v11.5h2.8V881.7z"/>
			<path d="M400.6,870.8h-4.2v-4.3l-3.4,0.1v15.1h-4.2v-18.7h4.2v0.7c0.9-0.2,1.8-0.3,2.6-0.5c1.1-0.2,1.9-0.3,2.6-0.3
				c1.5,0,2.3,0.8,2.3,2.3V870.8z"/>
			<path d="M415.3,879.4c0,1.5-0.8,2.3-2.4,2.3h-7.6c-1.6,0-2.4-0.8-2.4-2.3v-14.1c0-1.5,0.8-2.3,2.4-2.3h7.6
				c1.6,0,2.4,0.8,2.4,2.3V879.4z M411.2,878.1v-11.7h-4v11.7H411.2z"/>
			<path d="M422.7,881.7h-4.2v-29h4.2V881.7z"/>
			<path d="M430.1,881.7h-4.2v-29h4.2V881.7z"/>
			<path d="M445.4,879.4c0,1.5-0.8,2.3-2.4,2.3h-7.3c-1.6,0-2.4-0.8-2.4-2.3v-14.1c0-1.5,0.8-2.3,2.4-2.3h7.3
				c1.6,0,2.4,0.8,2.4,2.3v6.9l-1.2,1.2h-6.9v5.3h4v-3.1h4.1V879.4z M441.3,870.5V866h-4v4.5H441.3z"/>
			<path d="M460.3,870.8h-4.2v-4.3l-3.4,0.1v15.1h-4.2v-18.7h4.2v0.7c0.9-0.2,1.8-0.3,2.6-0.5c1.1-0.2,1.9-0.3,2.6-0.3
				c1.5,0,2.3,0.8,2.3,2.3V870.8z"/>
			<path d="M482.6,881.7h-4.1V881c-1,0.1-1.9,0.3-2.9,0.4c-1.3,0.2-2.2,0.3-2.9,0.3c-1.5,0-2.3-0.8-2.3-2.3v-6.8
				c0-1.5,0.8-2.3,2.4-2.3h5.7v-4.3h-4.1v2.7h-3.8v-3.5c0-1.5,0.8-2.3,2.4-2.3h7.2c1.6,0,2.4,0.8,2.4,2.3V881.7z M478.5,878.3v-5
				h-4.1v5.2L478.5,878.3z"/>
			<path d="M498.1,881.7h-4.3v-15.2l-4,0.1v15.1h-4.2v-18.7h4.2v0.7c1-0.2,2-0.3,3-0.5c1.2-0.2,2.2-0.3,3-0.3
				c1.5,0,2.3,0.8,2.3,2.3V881.7z"/>
			<path d="M513.6,881.7h-4.2V881c-2.9,0.5-4.5,0.8-4.8,0.8c-1.1,0-1.9-0.3-2.5-0.9c-0.6-0.6-0.9-1.5-0.9-2.6v-11.6
				c0-1.5,0.5-2.6,1.6-3.2c0.8-0.4,2-0.7,3.6-0.7c0.4,0,0.9,0,1.6,0c0.7,0,1.2,0,1.4,0v-10.3h4.2V881.7z M509.4,878v-11.5h-2.6
				c-0.9,0-1.4,0.5-1.4,1.4v9c0,0.9,0.4,1.4,1.3,1.4C506.9,878.2,507.8,878.2,509.4,878z"/>
			<path d="M537,877.9c0,1.5-0.5,2.6-1.6,3.2c-0.8,0.4-2,0.6-3.6,0.6c-0.4,0-0.9,0-1.6,0c-0.7,0-1.2,0-1.5,0v6.8h-4.2
				v-25.6h4.2v0.7c1-0.1,2-0.3,3-0.5c1.2-0.2,2.2-0.3,3-0.3c1.5,0,2.3,0.8,2.3,2.3V877.9z M532.7,876.7v-10.3l-4,0.1v11.6h2.6
				C532.3,878.1,532.7,877.7,532.7,876.7z"/>
			<path d="M551.8,870.8h-4.2v-4.3l-3.4,0.1v15.1H540v-18.7h4.2v0.7c0.9-0.2,1.8-0.3,2.6-0.5c1.1-0.2,1.9-0.3,2.6-0.3
				c1.5,0,2.3,0.8,2.3,2.3V870.8z"/>
			<path d="M566.3,879.4c0,1.5-0.8,2.3-2.4,2.3h-7.3c-1.6,0-2.4-0.8-2.4-2.3v-14.1c0-1.5,0.8-2.3,2.4-2.3h7.3
				c1.6,0,2.4,0.8,2.4,2.3v6.9l-1.2,1.2h-6.9v5.3h4v-3.1h4.1V879.4z M562.3,870.5V866h-4v4.5H562.3z"/>
			<path d="M581.2,879.4c0,1.5-0.8,2.3-2.4,2.3h-7.1c-1.6,0-2.4-0.8-2.4-2.3v-4h4.1v3.2h3.7v-3l-6.5-3.8
				c-0.9-0.5-1.3-1.2-1.3-2v-4.4c0-1.5,0.8-2.3,2.4-2.3h7.1c1.6,0,2.4,0.8,2.4,2.3v3.8h-4v-2.9h-3.7v2.7l6.5,3.8
				c0.9,0.5,1.3,1.2,1.3,2.1V879.4z"/>
			<path d="M596,879.4c0,1.5-0.8,2.3-2.4,2.3h-7.1c-1.6,0-2.4-0.8-2.4-2.3v-4h4.1v3.2h3.7v-3l-6.5-3.8
				c-0.9-0.5-1.3-1.2-1.3-2v-4.4c0-1.5,0.8-2.3,2.4-2.3h7.1c1.6,0,2.4,0.8,2.4,2.3v3.8h-4v-2.9h-3.7v2.7l6.5,3.8
				c0.9,0.5,1.3,1.2,1.3,2.1V879.4z"/>
			<path d="M618.8,881.7h-4.1V881c-1,0.1-1.9,0.3-2.9,0.4c-1.3,0.2-2.2,0.3-2.9,0.3c-1.5,0-2.3-0.8-2.3-2.3v-6.8
				c0-1.5,0.8-2.3,2.4-2.3h5.7v-4.3h-4.1v2.7h-3.8v-3.5c0-1.5,0.8-2.3,2.4-2.3h7.2c1.6,0,2.4,0.8,2.4,2.3V881.7z M614.8,878.3v-5
				h-4.1v5.2L614.8,878.3z"/>
			<path d="M634.4,881.7h-4.3v-15.2l-4,0.1v15.1h-4.2v-18.7h4.2v0.7c1-0.2,2-0.3,3-0.5c1.2-0.2,2.2-0.3,3-0.3
				c1.5,0,2.3,0.8,2.3,2.3V881.7z"/>
			<path d="M650.1,862.9l-4.7,18.5l-1.8,7.1h-4.3l1.9-7l-4.8-18.6h4.4l2.5,12.3l2.5-12.3H650.1z"/>
			<path d="M672.6,877.9c0,1.2-0.4,2.1-1.1,2.8s-1.6,1-2.8,1H660v-29h4.2v11c1-0.1,2-0.3,3-0.5c1.2-0.2,2.2-0.3,3-0.3
				c1.5,0,2.3,0.8,2.3,2.3V877.9z M668.3,876.7v-10.3l-4,0.1v11.6h2.6C667.8,878.1,668.3,877.7,668.3,876.7z"/>
			<path d="M688.1,881.7h-4.2V881c-1,0.2-2,0.3-3,0.5c-1.2,0.2-2.2,0.3-3,0.3c-1.5,0-2.3-0.8-2.3-2.3v-16.5h4.2v15.2
				l4-0.1v-15.1h4.2V881.7z"/>
			<path d="M699.2,881.7h-4.7c-1.6,0-2.4-0.8-2.4-2.3v-12.8h-2v-3.6h2v-5.1h4.2v5.1h2.7v3.6h-2.7v11.5h2.8V881.7z"/>
			<path d="M709.7,881.7H705c-1.6,0-2.4-0.8-2.4-2.3v-12.8h-2v-3.6h2v-5.1h4.2v5.1h2.7v3.6h-2.7v11.5h2.8V881.7z"/>
			<path d="M724.4,879.4c0,1.5-0.8,2.3-2.4,2.3h-7.6c-1.6,0-2.4-0.8-2.4-2.3v-14.1c0-1.5,0.8-2.3,2.4-2.3h7.6
				c1.6,0,2.4,0.8,2.4,2.3V879.4z M720.2,878.1v-11.7h-4v11.7H720.2z"/>
			<path d="M740,881.7h-4.3v-15.2l-4,0.1v15.1h-4.2v-18.7h4.2v0.7c1-0.2,2-0.3,3-0.5c1.2-0.2,2.2-0.3,3-0.3
				c1.5,0,2.3,0.8,2.3,2.3V881.7z"/>
		</g>
	</g>
</g>
</svg>
